<svg xmlns="http://www.w3.org/2000/svg" xmlns:cc="http://web.resource.org/cc/" xmlns:svg="http://www.w3.org/2000/svg" xmlns:xlink="http://www.w3.org/1999/xlink" id="svg2" width="32" height="32" version="1.0"><defs id="defs4"><linearGradient id="linearGradient5285"><stop style="stop-color:#000;stop-opacity:1" id="stop5287" offset="0"/><stop style="stop-color:#000;stop-opacity:0" id="stop5289" offset="1"/></linearGradient><linearGradient id="linearGradient5089"><stop style="stop-color:#fff;stop-opacity:1" id="stop5091" offset="0"/><stop id="stop5097" offset=".362" style="stop-color:#fff;stop-opacity:.13402061"/><stop style="stop-color:#fff;stop-opacity:.25773194" id="stop5103" offset=".715"/><stop style="stop-color:#fff;stop-opacity:1" id="stop5093" offset="1"/></linearGradient><linearGradient id="linearGradient5271" x1="12.642" x2="32.599" y1="19.648" y2="19.648" gradientUnits="userSpaceOnUse" xlink:href="#linearGradient5089"/><linearGradient id="linearGradient5273" x1="12.642" x2="32.599" y1="19.648" y2="19.648" gradientUnits="userSpaceOnUse" xlink:href="#linearGradient5089"/><linearGradient id="linearGradient5275" x1="12.642" x2="32.599" y1="19.648" y2="19.648" gradientUnits="userSpaceOnUse" xlink:href="#linearGradient5089"/><linearGradient id="linearGradient5277" x1="12.642" x2="32.599" y1="19.648" y2="19.648" gradientUnits="userSpaceOnUse" xlink:href="#linearGradient5089"/><linearGradient id="linearGradient5279" x1="12.642" x2="32.599" y1="19.648" y2="19.648" gradientUnits="userSpaceOnUse" xlink:href="#linearGradient5089"/><linearGradient id="linearGradient5281" x1="12.642" x2="32.599" y1="19.648" y2="19.648" gradientUnits="userSpaceOnUse" xlink:href="#linearGradient5089"/><radialGradient id="radialGradient5291" cx="16.048" cy="26.983" r="12.704" fx="16.048" fy="26.983" gradientTransform="matrix(1,0,0,0.1224018,0,23.680293)" gradientUnits="userSpaceOnUse" xlink:href="#linearGradient5285"/><radialGradient id="radialGradient5299" cx="16.048" cy="26.983" r="12.704" fx="16.048" fy="26.983" gradientTransform="matrix(1,0,0,0.1224018,0,23.680293)" gradientUnits="userSpaceOnUse" xlink:href="#linearGradient5285"/><linearGradient id="linearGradient5345" x1="12.642" x2="32.599" y1="19.648" y2="19.648" gradientUnits="userSpaceOnUse" xlink:href="#linearGradient5089"/><linearGradient id="linearGradient5347" x1="12.642" x2="32.599" y1="19.648" y2="19.648" gradientUnits="userSpaceOnUse" xlink:href="#linearGradient5089"/><linearGradient id="linearGradient5349" x1="12.642" x2="32.599" y1="19.648" y2="19.648" gradientUnits="userSpaceOnUse" xlink:href="#linearGradient5089"/><linearGradient id="linearGradient5351" x1="12.642" x2="32.599" y1="19.648" y2="19.648" gradientUnits="userSpaceOnUse" xlink:href="#linearGradient5089"/><linearGradient id="linearGradient5353" x1="12.642" x2="32.599" y1="19.648" y2="19.648" gradientUnits="userSpaceOnUse" xlink:href="#linearGradient5089"/><linearGradient id="linearGradient5355" x1="12.642" x2="32.599" y1="19.648" y2="19.648" gradientUnits="userSpaceOnUse" xlink:href="#linearGradient5089"/></defs><metadata id="metadata7"/><g id="layer1"><path style="fill:#736cae;fill-opacity:1;stroke:none;stroke-width:3.54502869;stroke-linecap:round;stroke-miterlimit:4;stroke-dasharray:none;stroke-opacity:.70520235" id="path3143" d="M 0,0 L 0,32.21875 L 32.21875,32.21875 L 32.21875,0 L 0,0 z" transform="scale(0.9932105,0.5586809)"/><path id="path3145" d="M 0,0 L 0,32.21875 L 32.21875,32.21875 L 32.21875,0 L 0,0 z" style="fill:#ffc961;fill-opacity:1;stroke:none;stroke-width:3.54502869;stroke-linecap:round;stroke-miterlimit:4;stroke-dasharray:none;stroke-opacity:.70520235" transform="matrix(0.9932105,0,0,0.4655674,0,17)"/><path style="opacity:.66145833;fill:url(#radialGradient5291);fill-opacity:1;stroke:none;stroke-width:.30000001;stroke-linecap:round;stroke-miterlimit:4;stroke-dasharray:none;stroke-opacity:1" id="path5283" d="M 28.751991 26.98307 A 12.703686 1.5549545 0 1 1 3.3446198,26.98307 A 12.703686 1.5549545 0 1 1 28.751991 26.98307 z" transform="matrix(0.9839664,0,0,0.9999998,-1.290993,1.5718892)"/><path id="path5297" d="M 28.751991 26.98307 A 12.703686 1.5549545 0 1 1 3.3446198,26.98307 A 12.703686 1.5549545 0 1 1 28.751991 26.98307 z" transform="matrix(1.023325,0,0,0.9646584,1.577367,-3.5294454)" style="opacity:.64583333;fill:url(#radialGradient5299);fill-opacity:1;stroke:none;stroke-width:.30000001;stroke-linecap:round;stroke-miterlimit:4;stroke-dasharray:none;stroke-opacity:1"/><g id="g5323" transform="translate(7.565218,-6.5714292)"><path id="path5325" d="M 12.231884,8.5714292 C 6.5988412,8.5714292 2.0000002,13.146385 2,18.785715 C 2,24.425044 6.5988413,29.000001 12.231884,29 C 17.864926,29 22.434783,24.425044 22.434782,18.785715 C 22.434782,13.146385 17.864926,8.5714291 12.231884,8.5714292 z M 12.231884,14.026786 C 14.861778,14.026786 16.985506,16.152885 16.985507,18.785715 C 16.985507,21.418544 14.861778,23.544644 12.231884,23.544643 C 9.6019893,23.544643 7.4492752,21.418544 7.4492752,18.785715 C 7.4492752,16.152885 9.6019893,14.026786 12.231884,14.026786 z" style="fill:#000;fill-opacity:1;stroke:none;stroke-width:3.58599997;stroke-linecap:round;stroke-miterlimit:4;stroke-dasharray:none;stroke-opacity:.70520235"/><path id="path5327" d="M 30.805703 19.64838 A 8.1855154 8.1855154 0 1 1 14.434672,19.64838 A 8.1855154 8.1855154 0 1 1 30.805703 19.64838 z" transform="matrix(-0.6972762,-0.8781039,0.877125,-0.6980544,10.756111,52.366118)" style="opacity:.66145833;fill:none;fill-opacity:1;stroke:url(#linearGradient5345);stroke-width:.18625061;stroke-linecap:round;stroke-miterlimit:4;stroke-dasharray:none;stroke-opacity:1"/><path style="opacity:.55729167;fill:none;fill-opacity:1;stroke:url(#linearGradient5347);stroke-width:.29814446;stroke-linecap:round;stroke-miterlimit:4;stroke-dasharray:none;stroke-opacity:1" id="path5329" d="M 30.805703 19.64838 A 8.1855154 8.1855154 0 1 1 14.434672,19.64838 A 8.1855154 8.1855154 0 1 1 30.805703 19.64838 z" transform="matrix(-0.5130257,-0.646071,0.6453507,-0.5135983,11.142319,43.493228)"/><path id="path5331" d="M 30.805703 19.64838 A 8.1855154 8.1855154 0 1 1 14.434672,19.64838 A 8.1855154 8.1855154 0 1 1 30.805703 19.64838 z" transform="matrix(-0.6065968,-0.7639082,0.7630566,-0.6072738,10.946184,47.999301)" style="opacity:.55729167;fill:none;fill-opacity:1;stroke:url(#linearGradient5349);stroke-width:.28545731;stroke-linecap:round;stroke-miterlimit:4;stroke-dasharray:none;stroke-opacity:1"/><path id="path5333" d="M 12.231884,14.026786 C 9.6019893,14.026786 7.4492752,16.152885 7.4492752,18.785715 C 7.4492752,21.418544 9.6019893,23.544643 12.231884,23.544643 C 14.861778,23.544644 16.985507,21.418544 16.985507,18.785715 C 16.985506,16.152885 14.861778,14.026786 12.231884,14.026786 z M 12.231884,16.696429 C 13.389566,16.696429 14.318841,17.62674 14.31884,18.785715 C 14.31884,19.944689 13.389566,20.875 12.231884,20.875 C 11.074202,20.875 10.115942,19.944689 10.115942,18.785715 C 10.115942,17.62674 11.074201,16.696429 12.231884,16.696429 z" style="fill:#fae4c4;fill-opacity:1;stroke:none;stroke-width:.44510838;stroke-linecap:round;stroke-miterlimit:4;stroke-dasharray:none;stroke-opacity:1"/><path style="fill:#000;fill-opacity:1;stroke:none;stroke-width:3.58599997;stroke-linecap:round;stroke-miterlimit:4;stroke-dasharray:none;stroke-opacity:.70520235" id="path5335" d="M 12.231884,8.5714292 C 6.5988412,8.5714292 2.0000002,13.146385 2,18.785715 C 2,24.425044 6.5988413,29.000001 12.231884,29 C 17.864926,29 22.434783,24.425044 22.434782,18.785715 C 22.434782,13.146385 17.864926,8.5714291 12.231884,8.5714292 z M 12.231884,14.026786 C 14.861778,14.026786 16.985506,16.152885 16.985507,18.785715 C 16.985507,21.418544 14.861778,23.544644 12.231884,23.544643 C 9.6019893,23.544643 7.4492752,21.418544 7.4492752,18.785715 C 7.4492752,16.152885 9.6019893,14.026786 12.231884,14.026786 z"/><path style="opacity:.80208333;fill:none;fill-opacity:1;stroke:url(#linearGradient5351);stroke-width:.18625061;stroke-linecap:round;stroke-miterlimit:4;stroke-dasharray:none;stroke-opacity:1" id="path5337" d="M 30.805703 19.64838 A 8.1855154 8.1855154 0 1 1 14.434672,19.64838 A 8.1855154 8.1855154 0 1 1 30.805703 19.64838 z" transform="matrix(-0.6972762,-0.8781039,0.877125,-0.6980544,10.756111,52.366118)"/><path id="path5339" d="M 30.805703 19.64838 A 8.1855154 8.1855154 0 1 1 14.434672,19.64838 A 8.1855154 8.1855154 0 1 1 30.805703 19.64838 z" transform="matrix(-0.5130257,-0.646071,0.6453507,-0.5135983,11.142319,43.493228)" style="opacity:.80208333;fill:none;fill-opacity:1;stroke:url(#linearGradient5353);stroke-width:.29814446;stroke-linecap:round;stroke-miterlimit:4;stroke-dasharray:none;stroke-opacity:1"/><path style="opacity:.80208333;fill:none;fill-opacity:1;stroke:url(#linearGradient5355);stroke-width:.28545731;stroke-linecap:round;stroke-miterlimit:4;stroke-dasharray:none;stroke-opacity:1" id="path5341" d="M 30.805703 19.64838 A 8.1855154 8.1855154 0 1 1 14.434672,19.64838 A 8.1855154 8.1855154 0 1 1 30.805703 19.64838 z" transform="matrix(-0.6065968,-0.7639082,0.7630566,-0.6072738,10.946184,47.999301)"/><path style="fill:#fff;fill-opacity:1;stroke:none;stroke-width:.44510838;stroke-linecap:round;stroke-miterlimit:4;stroke-dasharray:none;stroke-opacity:1" id="path5343" d="M 12.231884,14.026786 C 9.6019893,14.026786 7.4492752,16.152885 7.4492752,18.785715 C 7.4492752,21.418544 9.6019893,23.544643 12.231884,23.544643 C 14.861778,23.544644 16.985507,21.418544 16.985507,18.785715 C 16.985506,16.152885 14.861778,14.026786 12.231884,14.026786 z M 12.231884,16.696429 C 13.389566,16.696429 14.318841,17.62674 14.31884,18.785715 C 14.31884,19.944689 13.389566,20.875 12.231884,20.875 C 11.074202,20.875 10.115942,19.944689 10.115942,18.785715 C 10.115942,17.62674 11.074201,16.696429 12.231884,16.696429 z"/></g><g id="g5311"><path style="fill:#000;fill-opacity:1;stroke:none;stroke-width:3.58599997;stroke-linecap:round;stroke-miterlimit:4;stroke-dasharray:none;stroke-opacity:.70520235" id="path5171" d="M 12.231884,8.5714292 C 6.5988412,8.5714292 2.0000002,13.146385 2,18.785715 C 2,24.425044 6.5988413,29.000001 12.231884,29 C 17.864926,29 22.434783,24.425044 22.434782,18.785715 C 22.434782,13.146385 17.864926,8.5714291 12.231884,8.5714292 z M 12.231884,14.026786 C 14.861778,14.026786 16.985506,16.152885 16.985507,18.785715 C 16.985507,21.418544 14.861778,23.544644 12.231884,23.544643 C 9.6019893,23.544643 7.4492752,21.418544 7.4492752,18.785715 C 7.4492752,16.152885 9.6019893,14.026786 12.231884,14.026786 z"/><path style="opacity:.66145833;fill:none;fill-opacity:1;stroke:url(#linearGradient5271);stroke-width:.18625061;stroke-linecap:round;stroke-miterlimit:4;stroke-dasharray:none;stroke-opacity:1" id="path5173" d="M 30.805703 19.64838 A 8.1855154 8.1855154 0 1 1 14.434672,19.64838 A 8.1855154 8.1855154 0 1 1 30.805703 19.64838 z" transform="matrix(-0.6972762,-0.8781039,0.877125,-0.6980544,10.756111,52.366118)"/><path id="path5175" d="M 30.805703 19.64838 A 8.1855154 8.1855154 0 1 1 14.434672,19.64838 A 8.1855154 8.1855154 0 1 1 30.805703 19.64838 z" transform="matrix(-0.5130257,-0.646071,0.6453507,-0.5135983,11.142319,43.493228)" style="opacity:.55729167;fill:none;fill-opacity:1;stroke:url(#linearGradient5273);stroke-width:.29814446;stroke-linecap:round;stroke-miterlimit:4;stroke-dasharray:none;stroke-opacity:1"/><path style="opacity:.55729167;fill:none;fill-opacity:1;stroke:url(#linearGradient5275);stroke-width:.28545731;stroke-linecap:round;stroke-miterlimit:4;stroke-dasharray:none;stroke-opacity:1" id="path5177" d="M 30.805703 19.64838 A 8.1855154 8.1855154 0 1 1 14.434672,19.64838 A 8.1855154 8.1855154 0 1 1 30.805703 19.64838 z" transform="matrix(-0.6065968,-0.7639082,0.7630566,-0.6072738,10.946184,47.999301)"/><path style="fill:#fae4c4;fill-opacity:1;stroke:none;stroke-width:.44510838;stroke-linecap:round;stroke-miterlimit:4;stroke-dasharray:none;stroke-opacity:1" id="path5179" d="M 12.231884,14.026786 C 9.6019893,14.026786 7.4492752,16.152885 7.4492752,18.785715 C 7.4492752,21.418544 9.6019893,23.544643 12.231884,23.544643 C 14.861778,23.544644 16.985507,21.418544 16.985507,18.785715 C 16.985506,16.152885 14.861778,14.026786 12.231884,14.026786 z M 12.231884,16.696429 C 13.389566,16.696429 14.318841,17.62674 14.31884,18.785715 C 14.31884,19.944689 13.389566,20.875 12.231884,20.875 C 11.074202,20.875 10.115942,19.944689 10.115942,18.785715 C 10.115942,17.62674 11.074201,16.696429 12.231884,16.696429 z"/><path id="path5181" d="M 12.231884,8.5714292 C 6.5988412,8.5714292 2.0000002,13.146385 2,18.785715 C 2,24.425044 6.5988413,29.000001 12.231884,29 C 17.864926,29 22.434783,24.425044 22.434782,18.785715 C 22.434782,13.146385 17.864926,8.5714291 12.231884,8.5714292 z M 12.231884,14.026786 C 14.861778,14.026786 16.985506,16.152885 16.985507,18.785715 C 16.985507,21.418544 14.861778,23.544644 12.231884,23.544643 C 9.6019893,23.544643 7.4492752,21.418544 7.4492752,18.785715 C 7.4492752,16.152885 9.6019893,14.026786 12.231884,14.026786 z" style="fill:#000;fill-opacity:1;stroke:none;stroke-width:3.58599997;stroke-linecap:round;stroke-miterlimit:4;stroke-dasharray:none;stroke-opacity:.70520235"/><path id="path5183" d="M 30.805703 19.64838 A 8.1855154 8.1855154 0 1 1 14.434672,19.64838 A 8.1855154 8.1855154 0 1 1 30.805703 19.64838 z" transform="matrix(-0.6972762,-0.8781039,0.877125,-0.6980544,10.756111,52.366118)" style="opacity:.80208333;fill:none;fill-opacity:1;stroke:url(#linearGradient5277);stroke-width:.18625061;stroke-linecap:round;stroke-miterlimit:4;stroke-dasharray:none;stroke-opacity:1"/><path style="opacity:.80208333;fill:none;fill-opacity:1;stroke:url(#linearGradient5279);stroke-width:.29814446;stroke-linecap:round;stroke-miterlimit:4;stroke-dasharray:none;stroke-opacity:1" id="path5185" d="M 30.805703 19.64838 A 8.1855154 8.1855154 0 1 1 14.434672,19.64838 A 8.1855154 8.1855154 0 1 1 30.805703 19.64838 z" transform="matrix(-0.5130257,-0.646071,0.6453507,-0.5135983,11.142319,43.493228)"/><path id="path5187" d="M 30.805703 19.64838 A 8.1855154 8.1855154 0 1 1 14.434672,19.64838 A 8.1855154 8.1855154 0 1 1 30.805703 19.64838 z" transform="matrix(-0.6065968,-0.7639082,0.7630566,-0.6072738,10.946184,47.999301)" style="opacity:.80208333;fill:none;fill-opacity:1;stroke:url(#linearGradient5281);stroke-width:.28545731;stroke-linecap:round;stroke-miterlimit:4;stroke-dasharray:none;stroke-opacity:1"/><path id="path5189" d="M 12.231884,14.026786 C 9.6019893,14.026786 7.4492752,16.152885 7.4492752,18.785715 C 7.4492752,21.418544 9.6019893,23.544643 12.231884,23.544643 C 14.861778,23.544644 16.985507,21.418544 16.985507,18.785715 C 16.985506,16.152885 14.861778,14.026786 12.231884,14.026786 z M 12.231884,16.696429 C 13.389566,16.696429 14.318841,17.62674 14.31884,18.785715 C 14.31884,19.944689 13.389566,20.875 12.231884,20.875 C 11.074202,20.875 10.115942,19.944689 10.115942,18.785715 C 10.115942,17.62674 11.074201,16.696429 12.231884,16.696429 z" style="fill:#fff;fill-opacity:1;stroke:none;stroke-width:.44510838;stroke-linecap:round;stroke-miterlimit:4;stroke-dasharray:none;stroke-opacity:1"/></g></g></svg>