<svg xmlns="http://www.w3.org/2000/svg" xmlns:xlink="http://www.w3.org/1999/xlink" width="508pt" height="859pt" version="1.1" viewBox="0 0 508 858.5"><g class="graph" transform="scale(1) translate(4 854.5)"><title>area_entity_details</title><a xlink:title="Tables for the “area” entity type properties"><polygon fill="#e8c2da" stroke="transparent" points="-4 4 -4 -854.5 504 -854.5 504 4"/></a><g class="node"><title>musicbrainz.annotation</title><polygon fill="#eee" stroke="transparent" points="253 -803 253 -828 354 -828 354 -803"/><polygon fill="none" stroke="#000" points="253 -803 253 -828 354 -828 354 -803"/><text x="256" y="-811.4" font-family="Times,serif" font-size="17">annotation</text><polygon fill="#f0976c" stroke="transparent" points="253 -782 253 -803 354 -803 354 -782"/><polygon fill="none" stroke="#000" points="253 -782 253 -803 354 -803 354 -782"/><text x="256" y="-789.8" font-family="Times,serif" font-size="14" text-decoration="underline">id</text><polygon fill="#eee" stroke="transparent" points="253 -761 253 -782 354 -782 354 -761"/><polygon fill="none" stroke="#000" points="253 -761 253 -782 354 -782 354 -761"/><text x="256" y="-767.8" font-family="Times,serif" font-size="14">editor</text><polygon fill="#eee" stroke="transparent" points="253 -740 253 -761 354 -761 354 -740"/><polygon fill="none" stroke="#000" points="253 -740 253 -761 354 -761 354 -740"/><text x="256" y="-746.8" font-family="Times,serif" font-size="14">text</text><polygon fill="#eee" stroke="transparent" points="253 -719 253 -740 354 -740 354 -719"/><polygon fill="none" stroke="#000" points="253 -719 253 -740 354 -740 354 -719"/><text x="256" y="-725.8" font-family="Times,serif" font-size="14">changelog</text><polygon fill="#eee" stroke="transparent" points="253 -698 253 -719 354 -719 354 -698"/><polygon fill="none" stroke="#000" points="253 -698 253 -719 354 -719 354 -698"/><text x="256" y="-704.8" font-family="Times,serif" font-size="14">created</text></g><g class="node"><title>musicbrainz.area</title><polygon fill="#eb743b" stroke="transparent" points="235 -633 235 -658 372 -658 372 -633"/><polygon fill="none" stroke="#000" points="235 -633 235 -658 372 -658 372 -633"/><text x="283.5" y="-641.4" font-family="Times,serif" font-size="17">area</text><polygon fill="#f0976c" stroke="transparent" points="235 -612 235 -633 372 -633 372 -612"/><polygon fill="none" stroke="#000" points="235 -612 235 -633 372 -633 372 -612"/><text x="238" y="-619.8" font-family="Times,serif" font-size="14" text-decoration="underline">id</text><polygon fill="#eee" stroke="transparent" points="235 -591 235 -612 372 -612 372 -591"/><polygon fill="none" stroke="#000" points="235 -591 235 -612 372 -612 372 -591"/><text x="238" y="-597.8" font-family="Times,serif" font-size="14">gid</text><polygon fill="#eee" stroke="transparent" points="235 -570 235 -591 372 -591 372 -570"/><polygon fill="none" stroke="#000" points="235 -570 235 -591 372 -591 372 -570"/><text x="238" y="-576.8" font-family="Times,serif" font-size="14">name</text><polygon fill="#f8d1be" stroke="transparent" points="235 -549 235 -570 372 -570 372 -549"/><polygon fill="none" stroke="#000" points="235 -549 235 -570 372 -570 372 -549"/><text x="238" y="-555.8" font-family="Times,serif" font-size="14">type</text><polygon fill="#eee" stroke="transparent" points="235 -528 235 -549 372 -549 372 -528"/><polygon fill="none" stroke="#000" points="235 -528 235 -549 372 -549 372 -528"/><text x="238" y="-534.8" font-family="Times,serif" font-size="14">edits_pending</text><polygon fill="#eee" stroke="transparent" points="235 -507 235 -528 372 -528 372 -507"/><polygon fill="none" stroke="#000" points="235 -507 235 -528 372 -528 372 -507"/><text x="238" y="-513.8" font-family="Times,serif" font-size="14">last_updated</text><polygon fill="#eee" stroke="transparent" points="235 -486 235 -507 372 -507 372 -486"/><polygon fill="none" stroke="#000" points="235 -486 235 -507 372 -507 372 -486"/><text x="238" y="-492.8" font-family="Times,serif" font-size="14">begin_date_year</text><polygon fill="#eee" stroke="transparent" points="235 -465 235 -486 372 -486 372 -465"/><polygon fill="none" stroke="#000" points="235 -465 235 -486 372 -486 372 -465"/><text x="238" y="-471.8" font-family="Times,serif" font-size="14">begin_date_month</text><polygon fill="#eee" stroke="transparent" points="235 -444 235 -465 372 -465 372 -444"/><polygon fill="none" stroke="#000" points="235 -444 235 -465 372 -465 372 -444"/><text x="238" y="-450.8" font-family="Times,serif" font-size="14">begin_date_day</text><polygon fill="#eee" stroke="transparent" points="235 -423 235 -444 372 -444 372 -423"/><polygon fill="none" stroke="#000" points="235 -423 235 -444 372 -444 372 -423"/><text x="238" y="-429.8" font-family="Times,serif" font-size="14">end_date_year</text><polygon fill="#eee" stroke="transparent" points="235 -402 235 -423 372 -423 372 -402"/><polygon fill="none" stroke="#000" points="235 -402 235 -423 372 -423 372 -402"/><text x="238" y="-408.8" font-family="Times,serif" font-size="14">end_date_month</text><polygon fill="#eee" stroke="transparent" points="235 -381 235 -402 372 -402 372 -381"/><polygon fill="none" stroke="#000" points="235 -381 235 -402 372 -402 372 -381"/><text x="238" y="-387.8" font-family="Times,serif" font-size="14">end_date_day</text><polygon fill="#eee" stroke="transparent" points="235 -360 235 -381 372 -381 372 -360"/><polygon fill="none" stroke="#000" points="235 -360 235 -381 372 -381 372 -360"/><text x="238" y="-366.8" font-family="Times,serif" font-size="14">ended</text></g><g class="node"><title>musicbrainz.area_type</title><polygon fill="#eee" stroke="transparent" points="409.5 -570 409.5 -595 500.5 -595 500.5 -570"/><polygon fill="none" stroke="#000" points="409.5 -570 409.5 -595 500.5 -595 500.5 -570"/><text x="412.5" y="-578.4" font-family="Times,serif" font-size="17">area_type</text><polygon fill="#f0976c" stroke="transparent" points="409.5 -549 409.5 -570 500.5 -570 500.5 -549"/><polygon fill="none" stroke="#000" points="409.5 -549 409.5 -570 500.5 -570 500.5 -549"/><text x="412.5" y="-556.8" font-family="Times,serif" font-size="14" text-decoration="underline">id</text><polygon fill="#eee" stroke="transparent" points="409.5 -528 409.5 -549 500.5 -549 500.5 -528"/><polygon fill="none" stroke="#000" points="409.5 -528 409.5 -549 500.5 -549 500.5 -528"/><text x="412.5" y="-534.8" font-family="Times,serif" font-size="14">name</text><polygon fill="#f8d1be" stroke="transparent" points="409.5 -507 409.5 -528 500.5 -528 500.5 -507"/><polygon fill="none" stroke="#000" points="409.5 -507 409.5 -528 500.5 -528 500.5 -507"/><text x="412.5" y="-513.8" font-family="Times,serif" font-size="14">parent</text><polygon fill="#eee" stroke="transparent" points="409.5 -486 409.5 -507 500.5 -507 500.5 -486"/><polygon fill="none" stroke="#000" points="409.5 -486 409.5 -507 500.5 -507 500.5 -486"/><text x="412.5" y="-492.8" font-family="Times,serif" font-size="14">child_order</text><polygon fill="#eee" stroke="transparent" points="409.5 -465 409.5 -486 500.5 -486 500.5 -465"/><polygon fill="none" stroke="#000" points="409.5 -465 409.5 -486 500.5 -486 500.5 -465"/><text x="412.5" y="-471.8" font-family="Times,serif" font-size="14">description</text><polygon fill="#eee" stroke="transparent" points="409.5 -444 409.5 -465 500.5 -465 500.5 -444"/><polygon fill="none" stroke="#000" points="409.5 -444 409.5 -465 500.5 -465 500.5 -444"/><text x="412.5" y="-450.8" font-family="Times,serif" font-size="14">gid</text></g><g class="edge"><title>musicbrainz.area:type-&gt;musicbrainz.area_type:id</title><path fill="none" stroke="#000" d="m373-560h25.88"/><polygon stroke="#000" points="399 -563.5 409 -560 399 -556.5"/></g><g class="node"><title>musicbrainz.area_alias</title><polygon fill="#eee" stroke="transparent" points="29.5 -464 29.5 -489 168.5 -489 168.5 -464"/><polygon fill="none" stroke="#000" points="29.5 -464 29.5 -489 168.5 -489 168.5 -464"/><text x="55" y="-472.4" font-family="Times,serif" font-size="17">area_alias</text><polygon fill="#f0976c" stroke="transparent" points="29.5 -443 29.5 -464 168.5 -464 168.5 -443"/><polygon fill="none" stroke="#000" points="29.5 -443 29.5 -464 168.5 -464 168.5 -443"/><text x="32.5" y="-450.8" font-family="Times,serif" font-size="14" text-decoration="underline">id</text><polygon fill="#f8d1be" stroke="transparent" points="29.5 -422 29.5 -443 168.5 -443 168.5 -422"/><polygon fill="none" stroke="#000" points="29.5 -422 29.5 -443 168.5 -443 168.5 -422"/><text x="32.5" y="-428.8" font-family="Times,serif" font-size="14">area</text><polygon fill="#eee" stroke="transparent" points="29.5 -401 29.5 -422 168.5 -422 168.5 -401"/><polygon fill="none" stroke="#000" points="29.5 -401 29.5 -422 168.5 -422 168.5 -401"/><text x="32.5" y="-407.8" font-family="Times,serif" font-size="14">name</text><polygon fill="#eee" stroke="transparent" points="29.5 -380 29.5 -401 168.5 -401 168.5 -380"/><polygon fill="none" stroke="#000" points="29.5 -380 29.5 -401 168.5 -401 168.5 -380"/><text x="32.5" y="-386.8" font-family="Times,serif" font-size="14">locale</text><polygon fill="#eee" stroke="transparent" points="29.5 -359 29.5 -380 168.5 -380 168.5 -359"/><polygon fill="none" stroke="#000" points="29.5 -359 29.5 -380 168.5 -380 168.5 -359"/><text x="32.5" y="-365.8" font-family="Times,serif" font-size="14">edits_pending</text><polygon fill="#eee" stroke="transparent" points="29.5 -338 29.5 -359 168.5 -359 168.5 -338"/><polygon fill="none" stroke="#000" points="29.5 -338 29.5 -359 168.5 -359 168.5 -338"/><text x="32.5" y="-344.8" font-family="Times,serif" font-size="14">last_updated</text><polygon fill="#f8d1be" stroke="transparent" points="29.5 -317 29.5 -338 168.5 -338 168.5 -317"/><polygon fill="none" stroke="#000" points="29.5 -317 29.5 -338 168.5 -338 168.5 -317"/><text x="32.5" y="-323.8" font-family="Times,serif" font-size="14">type</text><polygon fill="#eee" stroke="transparent" points="29.5 -296 29.5 -317 168.5 -317 168.5 -296"/><polygon fill="none" stroke="#000" points="29.5 -296 29.5 -317 168.5 -317 168.5 -296"/><text x="32.5" y="-302.8" font-family="Times,serif" font-size="14">sort_name</text><polygon fill="#eee" stroke="transparent" points="29.5 -275 29.5 -296 168.5 -296 168.5 -275"/><polygon fill="none" stroke="#000" points="29.5 -275 29.5 -296 168.5 -296 168.5 -275"/><text x="32.5" y="-281.8" font-family="Times,serif" font-size="14">begin_date_year</text><polygon fill="#eee" stroke="transparent" points="29.5 -254 29.5 -275 168.5 -275 168.5 -254"/><polygon fill="none" stroke="#000" points="29.5 -254 29.5 -275 168.5 -275 168.5 -254"/><text x="32.5" y="-260.8" font-family="Times,serif" font-size="14">begin_date_month</text><polygon fill="#eee" stroke="transparent" points="29.5 -233 29.5 -254 168.5 -254 168.5 -233"/><polygon fill="none" stroke="#000" points="29.5 -233 29.5 -254 168.5 -254 168.5 -233"/><text x="32.5" y="-239.8" font-family="Times,serif" font-size="14">begin_date_day</text><polygon fill="#eee" stroke="transparent" points="29.5 -212 29.5 -233 168.5 -233 168.5 -212"/><polygon fill="none" stroke="#000" points="29.5 -212 29.5 -233 168.5 -233 168.5 -212"/><text x="32.5" y="-218.8" font-family="Times,serif" font-size="14">end_date_year</text><polygon fill="#eee" stroke="transparent" points="29.5 -191 29.5 -212 168.5 -212 168.5 -191"/><polygon fill="none" stroke="#000" points="29.5 -191 29.5 -212 168.5 -212 168.5 -191"/><text x="32.5" y="-197.8" font-family="Times,serif" font-size="14">end_date_month</text><polygon fill="#eee" stroke="transparent" points="29.5 -170 29.5 -191 168.5 -191 168.5 -170"/><polygon fill="none" stroke="#000" points="29.5 -170 29.5 -191 168.5 -191 168.5 -170"/><text x="32.5" y="-176.8" font-family="Times,serif" font-size="14">end_date_day</text><polygon fill="#eee" stroke="transparent" points="29.5 -149 29.5 -170 168.5 -170 168.5 -149"/><polygon fill="none" stroke="#000" points="29.5 -149 29.5 -170 168.5 -170 168.5 -149"/><text x="32.5" y="-155.8" font-family="Times,serif" font-size="14">primary_for_locale</text><polygon fill="#eee" stroke="transparent" points="29.5 -128 29.5 -149 168.5 -149 168.5 -128"/><polygon fill="none" stroke="#000" points="29.5 -128 29.5 -149 168.5 -149 168.5 -128"/><text x="32.5" y="-134.8" font-family="Times,serif" font-size="14">ended</text></g><g class="edge"><title>musicbrainz.area_alias:area-&gt;musicbrainz.area:id</title><path fill="none" stroke="#000" d="m169.5-433c34.576 0 14.353-161.36 54.52-189.07"/><polygon stroke="#000" points="223.72 -625.55 234 -623 224.37 -618.58"/></g><g class="node"><title>musicbrainz.area_alias_type</title><polygon fill="#eee" stroke="transparent" points="233 -317 233 -342 373 -342 373 -317"/><polygon fill="none" stroke="#000" points="233 -317 233 -342 373 -342 373 -317"/><text x="236" y="-325.4" font-family="Times,serif" font-size="17">area_alias_type</text><polygon fill="#f0976c" stroke="transparent" points="233 -296 233 -317 373 -317 373 -296"/><polygon fill="none" stroke="#000" points="233 -296 233 -317 373 -317 373 -296"/><text x="236" y="-303.8" font-family="Times,serif" font-size="14" text-decoration="underline">id</text><polygon fill="#eee" stroke="transparent" points="233 -275 233 -296 373 -296 373 -275"/><polygon fill="none" stroke="#000" points="233 -275 233 -296 373 -296 373 -275"/><text x="236" y="-281.8" font-family="Times,serif" font-size="14">name</text><polygon fill="#f8d1be" stroke="transparent" points="233 -254 233 -275 373 -275 373 -254"/><polygon fill="none" stroke="#000" points="233 -254 233 -275 373 -275 373 -254"/><text x="236" y="-260.8" font-family="Times,serif" font-size="14">parent</text><polygon fill="#eee" stroke="transparent" points="233 -233 233 -254 373 -254 373 -233"/><polygon fill="none" stroke="#000" points="233 -233 233 -254 373 -254 373 -233"/><text x="236" y="-239.8" font-family="Times,serif" font-size="14">child_order</text><polygon fill="#eee" stroke="transparent" points="233 -212 233 -233 373 -233 373 -212"/><polygon fill="none" stroke="#000" points="233 -212 233 -233 373 -233 373 -212"/><text x="236" y="-218.8" font-family="Times,serif" font-size="14">description</text><polygon fill="#eee" stroke="transparent" points="233 -191 233 -212 373 -212 373 -191"/><polygon fill="none" stroke="#000" points="233 -191 233 -212 373 -212 373 -191"/><text x="236" y="-197.8" font-family="Times,serif" font-size="14">gid</text></g><g class="edge"><title>musicbrainz.area_alias:type-&gt;musicbrainz.area_alias_type:id</title><path fill="none" stroke="#000" d="m169.5-328c26.01 0 32.36 16.08 53.46 20.1"/><polygon stroke="#000" points="223.35 -311.38 233 -307 222.73 -304.41"/></g><g class="node"><title>musicbrainz.area_annotation</title><polygon fill="#eee" stroke="transparent" points="24.5 -825 24.5 -850 172.5 -850 172.5 -825"/><polygon fill="none" stroke="#000" points="24.5 -825 24.5 -850 172.5 -850 172.5 -825"/><text x="27.5" y="-833.4" font-family="Times,serif" font-size="17">area_annotation</text><polygon fill="#f0976c" stroke="transparent" points="24.5 -804 24.5 -825 172.5 -825 172.5 -804"/><polygon fill="none" stroke="#000" points="24.5 -804 24.5 -825 172.5 -825 172.5 -804"/><text x="27.5" y="-811.8" font-family="Times,serif" font-size="14" text-decoration="underline">area</text><polygon fill="#f0976c" stroke="transparent" points="24.5 -783 24.5 -804 172.5 -804 172.5 -783"/><polygon fill="none" stroke="#000" points="24.5 -783 24.5 -804 172.5 -804 172.5 -783"/><text x="27.5" y="-790.8" font-family="Times,serif" font-size="14" text-decoration="underline">annotation</text></g><g class="edge"><title>musicbrainz.area_annotation:annotation-&gt;musicbrainz.annotation:id</title><path fill="none" stroke="#000" d="m173.5-793h68.27"/><polygon stroke="#000" points="242 -796.5 252 -793 242 -789.5"/></g><g class="edge"><title>musicbrainz.area_annotation:area-&gt;musicbrainz.area:id</title><path fill="none" stroke="#000" d="m173.5-814c102.62 0 15.377 184.47 51.155 188"/><polygon stroke="#000" points="224.39 -627.47 234 -623 223.7 -620.5"/></g><g class="node"><title>musicbrainz.area_containment</title><polygon fill="#eee" stroke="transparent" points=".5 -740 .5 -765 197.5 -765 197.5 -740"/><polygon fill="none" stroke="#000" points=".5 -740 .5 -765 197.5 -765 197.5 -740"/><text x="3.5" y="-748.4" font-family="Times,serif" font-size="17">area_containment (m)</text><polygon fill="#f0976c" stroke="transparent" points=".5 -719 .5 -740 197.5 -740 197.5 -719"/><polygon fill="none" stroke="#000" points=".5 -719 .5 -740 197.5 -740 197.5 -719"/><text x="3.5" y="-726.8" font-family="Times,serif" font-size="14" text-decoration="underline">descendant</text><polygon fill="#f0976c" stroke="transparent" points=".5 -698 .5 -719 197.5 -719 197.5 -698"/><polygon fill="none" stroke="#000" points=".5 -698 .5 -719 197.5 -719 197.5 -698"/><text x="3.5" y="-705.8" font-family="Times,serif" font-size="14" text-decoration="underline">parent</text><polygon fill="#eee" stroke="transparent" points=".5 -677 .5 -698 197.5 -698 197.5 -677"/><polygon fill="none" stroke="#000" points=".5 -677 .5 -698 197.5 -698 197.5 -677"/><text x="3.5" y="-683.8" font-family="Times,serif" font-size="14">depth</text></g><g class="edge"><title>musicbrainz.area_containment:descendant-&gt;musicbrainz.area:id</title><path fill="none" stroke="#000" d="m197-730c46.19 0-4.2502 102.37 26.79 104.96"/><polygon stroke="#000" points="224.88 -628.39 234 -623 223.51 -621.53"/></g><g class="edge"><title>musicbrainz.area_containment:parent-&gt;musicbrainz.area:id</title><path fill="none" stroke="#000" d="m197-708c37.18 0-5.2623 84.367 27.25 84.367"/><polygon stroke="#000" points="225.06 -628.68 234 -623 223.47 -621.86"/></g><g class="node"><title>musicbrainz.area_gid_redirect</title><polygon fill="#eee" stroke="transparent" points="19.5 -634 19.5 -659 178.5 -659 178.5 -634"/><polygon fill="none" stroke="#000" points="19.5 -634 19.5 -659 178.5 -659 178.5 -634"/><text x="22.5" y="-642.4" font-family="Times,serif" font-size="17">area_gid_redirect</text><polygon fill="#f0976c" stroke="transparent" points="19.5 -613 19.5 -634 178.5 -634 178.5 -613"/><polygon fill="none" stroke="#000" points="19.5 -613 19.5 -634 178.5 -634 178.5 -613"/><text x="22.5" y="-620.8" font-family="Times,serif" font-size="14" text-decoration="underline">gid</text><polygon fill="#f8d1be" stroke="transparent" points="19.5 -592 19.5 -613 178.5 -613 178.5 -592"/><polygon fill="none" stroke="#000" points="19.5 -592 19.5 -613 178.5 -613 178.5 -592"/><text x="22.5" y="-598.8" font-family="Times,serif" font-size="14">new_id</text><polygon fill="#eee" stroke="transparent" points="19.5 -571 19.5 -592 178.5 -592 178.5 -571"/><polygon fill="none" stroke="#000" points="19.5 -571 19.5 -592 178.5 -592 178.5 -571"/><text x="22.5" y="-577.8" font-family="Times,serif" font-size="14">created</text></g><g class="edge"><title>musicbrainz.area_gid_redirect:new_id-&gt;musicbrainz.area:id</title><path fill="none" stroke="#000" d="m179.5-602c22.11 0 27.26-15.23 44.33-19.75"/><polygon stroke="#000" points="223.65 -625.25 234 -623 224.5 -618.31"/></g><g class="node"><title>musicbrainz.area_tag</title><polygon fill="#eee" stroke="transparent" points="49.5 -85 49.5 -110 147.5 -110 147.5 -85"/><polygon fill="none" stroke="#000" points="49.5 -85 49.5 -110 147.5 -110 147.5 -85"/><text x="60.5" y="-93.4" font-family="Times,serif" font-size="17">area_tag</text><polygon fill="#f0976c" stroke="transparent" points="49.5 -64 49.5 -85 147.5 -85 147.5 -64"/><polygon fill="none" stroke="#000" points="49.5 -64 49.5 -85 147.5 -85 147.5 -64"/><text x="52.5" y="-71.8" font-family="Times,serif" font-size="14" text-decoration="underline">area</text><polygon fill="#f0976c" stroke="transparent" points="49.5 -43 49.5 -64 147.5 -64 147.5 -43"/><polygon fill="none" stroke="#000" points="49.5 -43 49.5 -64 147.5 -64 147.5 -43"/><text x="52.5" y="-50.8" font-family="Times,serif" font-size="14" text-decoration="underline">tag</text><polygon fill="#eee" stroke="transparent" points="49.5 -22 49.5 -43 147.5 -43 147.5 -22"/><polygon fill="none" stroke="#000" points="49.5 -22 49.5 -43 147.5 -43 147.5 -22"/><text x="52.5" y="-28.8" font-family="Times,serif" font-size="14">count</text><polygon fill="#eee" stroke="transparent" points="49.5 -1 49.5 -22 147.5 -22 147.5 -1"/><polygon fill="none" stroke="#000" points="49.5 -1 49.5 -22 147.5 -22 147.5 -1"/><text x="52.5" y="-7.8" font-family="Times,serif" font-size="14">last_updated</text></g><g class="edge"><title>musicbrainz.area_tag:area-&gt;musicbrainz.area:id</title><path fill="none" stroke="#000" d="m148.5-75c29.4 0 35.76-18.5 48.5-45 22.81-47.45-14.04-449.68 27.88-498.21"/><polygon stroke="#000" points="223.52 -621.45 234 -623 226.77 -615.25"/></g><g class="node"><title>musicbrainz.tag</title><polygon fill="#eee" stroke="transparent" points="267 -63 267 -88 340 -88 340 -63"/><polygon fill="none" stroke="#000" points="267 -63 267 -88 340 -88 340 -63"/><text x="289" y="-71.4" font-family="Times,serif" font-size="17">tag</text><polygon fill="#f0976c" stroke="transparent" points="267 -42 267 -63 340 -63 340 -42"/><polygon fill="none" stroke="#000" points="267 -42 267 -63 340 -63 340 -42"/><text x="270" y="-49.8" font-family="Times,serif" font-size="14" text-decoration="underline">id</text><polygon fill="#eee" stroke="transparent" points="267 -21 267 -42 340 -42 340 -21"/><polygon fill="none" stroke="#000" points="267 -21 267 -42 340 -42 340 -21"/><text x="270" y="-27.8" font-family="Times,serif" font-size="14">name</text><polygon fill="#eee" stroke="transparent" points="267 0 267 -21 340 -21 340 0"/><polygon fill="none" stroke="#000" points="267 0 267 -21 340 -21 340 0"/><text x="270" y="-6.8" font-family="Times,serif" font-size="14">ref_count</text></g><g class="edge"><title>musicbrainz.area_tag:tag-&gt;musicbrainz.tag:id</title><path fill="none" stroke="#000" d="m148.5-53h107.31"/><polygon stroke="#000" points="256 -56.5 266 -53 256 -49.5"/></g><g class="node"><title>musicbrainz.country_area</title><polygon fill="#eee" stroke="transparent" points="38.5 -528 38.5 -553 159.5 -553 159.5 -528"/><polygon fill="none" stroke="#000" points="38.5 -528 38.5 -553 159.5 -553 159.5 -528"/><text x="41.5" y="-536.4" font-family="Times,serif" font-size="17">country_area</text><polygon fill="#f0976c" stroke="transparent" points="38.5 -507 38.5 -528 159.5 -528 159.5 -507"/><polygon fill="none" stroke="#000" points="38.5 -507 38.5 -528 159.5 -528 159.5 -507"/><text x="41.5" y="-514.8" font-family="Times,serif" font-size="14" text-decoration="underline">area</text></g><g class="edge"><title>musicbrainz.country_area:area-&gt;musicbrainz.area:id</title><path fill="none" stroke="#000" d="m160.5-517c46.547-8.8574 13.92-82.753 63.55-104.44"/><polygon stroke="#000" points="223.58 -624.91 234 -623 224.66 -617.99"/></g></g></svg>