<svg xmlns="http://www.w3.org/2000/svg" xmlns:xlink="http://www.w3.org/1999/xlink" width="728" height="1514pt" version="1.1" viewBox="0 0 546 1513.5"><g class="graph" transform="scale(1) translate(4 1509.5)"><title>artist_entity_details</title><a xlink:title="Tables for the “artist” entity type properties"><polygon fill="#e8c2da" stroke="transparent" points="-4 4 -4 -1509.5 542 -1509.5 542 4"/></a><g class="node"><title>musicbrainz.annotation</title><polygon fill="#eee" stroke="transparent" points="279 -1458 279 -1483 380 -1483 380 -1458"/><polygon fill="none" stroke="#000" points="279 -1458 279 -1483 380 -1483 380 -1458"/><text x="282" y="-1466.4" font-family="Times,serif" font-size="17">annotation</text><polygon fill="#f0976c" stroke="transparent" points="279 -1437 279 -1458 380 -1458 380 -1437"/><polygon fill="none" stroke="#000" points="279 -1437 279 -1458 380 -1458 380 -1437"/><text x="282" y="-1444.8" font-family="Times,serif" font-size="14" text-decoration="underline">id</text><polygon fill="#eee" stroke="transparent" points="279 -1416 279 -1437 380 -1437 380 -1416"/><polygon fill="none" stroke="#000" points="279 -1416 279 -1437 380 -1437 380 -1416"/><text x="282" y="-1422.8" font-family="Times,serif" font-size="14">editor</text><polygon fill="#eee" stroke="transparent" points="279 -1395 279 -1416 380 -1416 380 -1395"/><polygon fill="none" stroke="#000" points="279 -1395 279 -1416 380 -1416 380 -1395"/><text x="282" y="-1401.8" font-family="Times,serif" font-size="14">text</text><polygon fill="#eee" stroke="transparent" points="279 -1374 279 -1395 380 -1395 380 -1374"/><polygon fill="none" stroke="#000" points="279 -1374 279 -1395 380 -1395 380 -1374"/><text x="282" y="-1380.8" font-family="Times,serif" font-size="14">changelog</text><polygon fill="#eee" stroke="transparent" points="279 -1353 279 -1374 380 -1374 380 -1353"/><polygon fill="none" stroke="#000" points="279 -1353 279 -1374 380 -1374 380 -1353"/><text x="282" y="-1359.8" font-family="Times,serif" font-size="14">created</text></g><g class="node"><title>musicbrainz.area</title><polygon fill="#eee" stroke="transparent" points="465.5 -447 465.5 -472 511.5 -472 511.5 -447"/><polygon fill="none" stroke="#000" points="465.5 -447 465.5 -472 511.5 -472 511.5 -447"/><text x="468.5" y="-455.4" font-family="Times,serif" font-size="17">area</text><polygon fill="#f0976c" stroke="transparent" points="465.5 -426 465.5 -447 511.5 -447 511.5 -426"/><polygon fill="none" stroke="#000" points="465.5 -426 465.5 -447 511.5 -447 511.5 -426"/><text x="468.5" y="-433.8" font-family="Times,serif" font-size="14" text-decoration="underline">id</text><polygon fill="#eee" stroke="transparent" points="465.5 -405 465.5 -426 511.5 -426 511.5 -405"/><polygon fill="none" stroke="#000" points="465.5 -405 465.5 -426 511.5 -426 511.5 -405"/><text x="468.5" y="-411.8" font-family="Times,serif" font-size="14">...</text></g><g class="node"><title>musicbrainz.artist</title><polygon fill="#eb743b" stroke="transparent" points="261 -678 261 -703 398 -703 398 -678"/><polygon fill="none" stroke="#000" points="261 -678 261 -703 398 -703 398 -678"/><text x="306" y="-686.4" font-family="Times,serif" font-size="17">artist</text><polygon fill="#f0976c" stroke="transparent" points="261 -657 261 -678 398 -678 398 -657"/><polygon fill="none" stroke="#000" points="261 -657 261 -678 398 -678 398 -657"/><text x="264" y="-664.8" font-family="Times,serif" font-size="14" text-decoration="underline">id</text><polygon fill="#eee" stroke="transparent" points="261 -636 261 -657 398 -657 398 -636"/><polygon fill="none" stroke="#000" points="261 -636 261 -657 398 -657 398 -636"/><text x="264" y="-642.8" font-family="Times,serif" font-size="14">gid</text><polygon fill="#eee" stroke="transparent" points="261 -615 261 -636 398 -636 398 -615"/><polygon fill="none" stroke="#000" points="261 -615 261 -636 398 -636 398 -615"/><text x="264" y="-621.8" font-family="Times,serif" font-size="14">name</text><polygon fill="#eee" stroke="transparent" points="261 -594 261 -615 398 -615 398 -594"/><polygon fill="none" stroke="#000" points="261 -594 261 -615 398 -615 398 -594"/><text x="264" y="-600.8" font-family="Times,serif" font-size="14">sort_name</text><polygon fill="#eee" stroke="transparent" points="261 -573 261 -594 398 -594 398 -573"/><polygon fill="none" stroke="#000" points="261 -573 261 -594 398 -594 398 -573"/><text x="264" y="-579.8" font-family="Times,serif" font-size="14">begin_date_year</text><polygon fill="#eee" stroke="transparent" points="261 -552 261 -573 398 -573 398 -552"/><polygon fill="none" stroke="#000" points="261 -552 261 -573 398 -573 398 -552"/><text x="264" y="-558.8" font-family="Times,serif" font-size="14">begin_date_month</text><polygon fill="#eee" stroke="transparent" points="261 -531 261 -552 398 -552 398 -531"/><polygon fill="none" stroke="#000" points="261 -531 261 -552 398 -552 398 -531"/><text x="264" y="-537.8" font-family="Times,serif" font-size="14">begin_date_day</text><polygon fill="#eee" stroke="transparent" points="261 -510 261 -531 398 -531 398 -510"/><polygon fill="none" stroke="#000" points="261 -510 261 -531 398 -531 398 -510"/><text x="264" y="-516.8" font-family="Times,serif" font-size="14">end_date_year</text><polygon fill="#eee" stroke="transparent" points="261 -489 261 -510 398 -510 398 -489"/><polygon fill="none" stroke="#000" points="261 -489 261 -510 398 -510 398 -489"/><text x="264" y="-495.8" font-family="Times,serif" font-size="14">end_date_month</text><polygon fill="#eee" stroke="transparent" points="261 -468 261 -489 398 -489 398 -468"/><polygon fill="none" stroke="#000" points="261 -468 261 -489 398 -489 398 -468"/><text x="264" y="-474.8" font-family="Times,serif" font-size="14">end_date_day</text><polygon fill="#f8d1be" stroke="transparent" points="261 -447 261 -468 398 -468 398 -447"/><polygon fill="none" stroke="#000" points="261 -447 261 -468 398 -468 398 -447"/><text x="264" y="-453.8" font-family="Times,serif" font-size="14">type</text><polygon fill="#f8d1be" stroke="transparent" points="261 -426 261 -447 398 -447 398 -426"/><polygon fill="none" stroke="#000" points="261 -426 261 -447 398 -447 398 -426"/><text x="264" y="-432.8" font-family="Times,serif" font-size="14">area</text><polygon fill="#f8d1be" stroke="transparent" points="261 -405 261 -426 398 -426 398 -405"/><polygon fill="none" stroke="#000" points="261 -405 261 -426 398 -426 398 -405"/><text x="264" y="-411.8" font-family="Times,serif" font-size="14">gender</text><polygon fill="#eee" stroke="transparent" points="261 -384 261 -405 398 -405 398 -384"/><polygon fill="none" stroke="#000" points="261 -384 261 -405 398 -405 398 -384"/><text x="264" y="-390.8" font-family="Times,serif" font-size="14">comment</text><polygon fill="#eee" stroke="transparent" points="261 -363 261 -384 398 -384 398 -363"/><polygon fill="none" stroke="#000" points="261 -363 261 -384 398 -384 398 -363"/><text x="264" y="-369.8" font-family="Times,serif" font-size="14">edits_pending</text><polygon fill="#eee" stroke="transparent" points="261 -342 261 -363 398 -363 398 -342"/><polygon fill="none" stroke="#000" points="261 -342 261 -363 398 -363 398 -342"/><text x="264" y="-348.8" font-family="Times,serif" font-size="14">last_updated</text><polygon fill="#eee" stroke="transparent" points="261 -321 261 -342 398 -342 398 -321"/><polygon fill="none" stroke="#000" points="261 -321 261 -342 398 -342 398 -321"/><text x="264" y="-327.8" font-family="Times,serif" font-size="14">ended</text></g><g class="edge"><title>musicbrainz.artist:area-&gt;musicbrainz.area:id</title><path fill="none" stroke="#000" d="m399-436h55.24"/><polygon stroke="#000" points="454.5 -439.5 464.5 -436 454.5 -432.5"/></g><g class="node"><title>musicbrainz.artist_type</title><polygon fill="#eee" stroke="transparent" points="439.5 -616 439.5 -641 538.5 -641 538.5 -616"/><polygon fill="none" stroke="#000" points="439.5 -616 439.5 -641 538.5 -641 538.5 -616"/><text x="442.5" y="-624.4" font-family="Times,serif" font-size="17">artist_type</text><polygon fill="#f0976c" stroke="transparent" points="439.5 -595 439.5 -616 538.5 -616 538.5 -595"/><polygon fill="none" stroke="#000" points="439.5 -595 439.5 -616 538.5 -616 538.5 -595"/><text x="442.5" y="-602.8" font-family="Times,serif" font-size="14" text-decoration="underline">id</text><polygon fill="#eee" stroke="transparent" points="439.5 -574 439.5 -595 538.5 -595 538.5 -574"/><polygon fill="none" stroke="#000" points="439.5 -574 439.5 -595 538.5 -595 538.5 -574"/><text x="442.5" y="-580.8" font-family="Times,serif" font-size="14">name</text><polygon fill="#f8d1be" stroke="transparent" points="439.5 -553 439.5 -574 538.5 -574 538.5 -553"/><polygon fill="none" stroke="#000" points="439.5 -553 439.5 -574 538.5 -574 538.5 -553"/><text x="442.5" y="-559.8" font-family="Times,serif" font-size="14">parent</text><polygon fill="#eee" stroke="transparent" points="439.5 -532 439.5 -553 538.5 -553 538.5 -532"/><polygon fill="none" stroke="#000" points="439.5 -532 439.5 -553 538.5 -553 538.5 -532"/><text x="442.5" y="-538.8" font-family="Times,serif" font-size="14">child_order</text><polygon fill="#eee" stroke="transparent" points="439.5 -511 439.5 -532 538.5 -532 538.5 -511"/><polygon fill="none" stroke="#000" points="439.5 -511 439.5 -532 538.5 -532 538.5 -511"/><text x="442.5" y="-517.8" font-family="Times,serif" font-size="14">description</text><polygon fill="#eee" stroke="transparent" points="439.5 -490 439.5 -511 538.5 -511 538.5 -490"/><polygon fill="none" stroke="#000" points="439.5 -490 439.5 -511 538.5 -511 538.5 -490"/><text x="442.5" y="-496.8" font-family="Times,serif" font-size="14">gid</text></g><g class="edge"><title>musicbrainz.artist:type-&gt;musicbrainz.artist_type:id</title><path fill="none" stroke="#000" d="m399-457c64.68 0-18.1-132.6 29.88-147.62"/><polygon stroke="#000" points="428.62 -608.12 439 -606 429.56 -601.18"/></g><g class="node"><title>musicbrainz.gender</title><polygon fill="#eee" stroke="transparent" points="445.5 -362 445.5 -387 532.5 -387 532.5 -362"/><polygon fill="none" stroke="#000" points="445.5 -362 445.5 -387 532.5 -387 532.5 -362"/><text x="458" y="-370.4" font-family="Times,serif" font-size="17">gender</text><polygon fill="#f0976c" stroke="transparent" points="445.5 -341 445.5 -362 532.5 -362 532.5 -341"/><polygon fill="none" stroke="#000" points="445.5 -341 445.5 -362 532.5 -362 532.5 -341"/><text x="448.5" y="-348.8" font-family="Times,serif" font-size="14" text-decoration="underline">id</text><polygon fill="#eee" stroke="transparent" points="445.5 -320 445.5 -341 532.5 -341 532.5 -320"/><polygon fill="none" stroke="#000" points="445.5 -320 445.5 -341 532.5 -341 532.5 -320"/><text x="448.5" y="-326.8" font-family="Times,serif" font-size="14">name</text><polygon fill="#f8d1be" stroke="transparent" points="445.5 -299 445.5 -320 532.5 -320 532.5 -299"/><polygon fill="none" stroke="#000" points="445.5 -299 445.5 -320 532.5 -320 532.5 -299"/><text x="448.5" y="-305.8" font-family="Times,serif" font-size="14">parent</text><polygon fill="#eee" stroke="transparent" points="445.5 -278 445.5 -299 532.5 -299 532.5 -278"/><polygon fill="none" stroke="#000" points="445.5 -278 445.5 -299 532.5 -299 532.5 -278"/><text x="448.5" y="-284.8" font-family="Times,serif" font-size="14">child_order</text><polygon fill="#eee" stroke="transparent" points="445.5 -257 445.5 -278 532.5 -278 532.5 -257"/><polygon fill="none" stroke="#000" points="445.5 -257 445.5 -278 532.5 -278 532.5 -257"/><text x="448.5" y="-263.8" font-family="Times,serif" font-size="14">description</text><polygon fill="#eee" stroke="transparent" points="445.5 -236 445.5 -257 532.5 -257 532.5 -236"/><polygon fill="none" stroke="#000" points="445.5 -236 445.5 -257 532.5 -257 532.5 -236"/><text x="448.5" y="-242.8" font-family="Times,serif" font-size="14">gid</text></g><g class="edge"><title>musicbrainz.artist:gender-&gt;musicbrainz.gender:id</title><path fill="none" stroke="#000" d="m399-415c30.49 0 15.69 49.1 35.56 60.61"/><polygon stroke="#000" points="435.6 -357.74 444.5 -352 433.96 -350.94"/></g><g class="node"><title>musicbrainz.artist_alias</title><polygon fill="#eee" stroke="transparent" points="40.5 -1395 40.5 -1420 179.5 -1420 179.5 -1395"/><polygon fill="none" stroke="#000" points="40.5 -1395 40.5 -1420 179.5 -1420 179.5 -1395"/><text x="62" y="-1403.4" font-family="Times,serif" font-size="17">artist_alias</text><polygon fill="#f0976c" stroke="transparent" points="40.5 -1374 40.5 -1395 179.5 -1395 179.5 -1374"/><polygon fill="none" stroke="#000" points="40.5 -1374 40.5 -1395 179.5 -1395 179.5 -1374"/><text x="43.5" y="-1381.8" font-family="Times,serif" font-size="14" text-decoration="underline">id</text><polygon fill="#f8d1be" stroke="transparent" points="40.5 -1353 40.5 -1374 179.5 -1374 179.5 -1353"/><polygon fill="none" stroke="#000" points="40.5 -1353 40.5 -1374 179.5 -1374 179.5 -1353"/><text x="43.5" y="-1359.8" font-family="Times,serif" font-size="14">artist</text><polygon fill="#eee" stroke="transparent" points="40.5 -1332 40.5 -1353 179.5 -1353 179.5 -1332"/><polygon fill="none" stroke="#000" points="40.5 -1332 40.5 -1353 179.5 -1353 179.5 -1332"/><text x="43.5" y="-1338.8" font-family="Times,serif" font-size="14">name</text><polygon fill="#eee" stroke="transparent" points="40.5 -1311 40.5 -1332 179.5 -1332 179.5 -1311"/><polygon fill="none" stroke="#000" points="40.5 -1311 40.5 -1332 179.5 -1332 179.5 -1311"/><text x="43.5" y="-1317.8" font-family="Times,serif" font-size="14">locale</text><polygon fill="#eee" stroke="transparent" points="40.5 -1290 40.5 -1311 179.5 -1311 179.5 -1290"/><polygon fill="none" stroke="#000" points="40.5 -1290 40.5 -1311 179.5 -1311 179.5 -1290"/><text x="43.5" y="-1296.8" font-family="Times,serif" font-size="14">edits_pending</text><polygon fill="#eee" stroke="transparent" points="40.5 -1269 40.5 -1290 179.5 -1290 179.5 -1269"/><polygon fill="none" stroke="#000" points="40.5 -1269 40.5 -1290 179.5 -1290 179.5 -1269"/><text x="43.5" y="-1275.8" font-family="Times,serif" font-size="14">last_updated</text><polygon fill="#f8d1be" stroke="transparent" points="40.5 -1248 40.5 -1269 179.5 -1269 179.5 -1248"/><polygon fill="none" stroke="#000" points="40.5 -1248 40.5 -1269 179.5 -1269 179.5 -1248"/><text x="43.5" y="-1254.8" font-family="Times,serif" font-size="14">type</text><polygon fill="#eee" stroke="transparent" points="40.5 -1227 40.5 -1248 179.5 -1248 179.5 -1227"/><polygon fill="none" stroke="#000" points="40.5 -1227 40.5 -1248 179.5 -1248 179.5 -1227"/><text x="43.5" y="-1233.8" font-family="Times,serif" font-size="14">sort_name</text><polygon fill="#eee" stroke="transparent" points="40.5 -1206 40.5 -1227 179.5 -1227 179.5 -1206"/><polygon fill="none" stroke="#000" points="40.5 -1206 40.5 -1227 179.5 -1227 179.5 -1206"/><text x="43.5" y="-1212.8" font-family="Times,serif" font-size="14">begin_date_year</text><polygon fill="#eee" stroke="transparent" points="40.5 -1185 40.5 -1206 179.5 -1206 179.5 -1185"/><polygon fill="none" stroke="#000" points="40.5 -1185 40.5 -1206 179.5 -1206 179.5 -1185"/><text x="43.5" y="-1191.8" font-family="Times,serif" font-size="14">begin_date_month</text><polygon fill="#eee" stroke="transparent" points="40.5 -1164 40.5 -1185 179.5 -1185 179.5 -1164"/><polygon fill="none" stroke="#000" points="40.5 -1164 40.5 -1185 179.5 -1185 179.5 -1164"/><text x="43.5" y="-1170.8" font-family="Times,serif" font-size="14">begin_date_day</text><polygon fill="#eee" stroke="transparent" points="40.5 -1143 40.5 -1164 179.5 -1164 179.5 -1143"/><polygon fill="none" stroke="#000" points="40.5 -1143 40.5 -1164 179.5 -1164 179.5 -1143"/><text x="43.5" y="-1149.8" font-family="Times,serif" font-size="14">end_date_year</text><polygon fill="#eee" stroke="transparent" points="40.5 -1122 40.5 -1143 179.5 -1143 179.5 -1122"/><polygon fill="none" stroke="#000" points="40.5 -1122 40.5 -1143 179.5 -1143 179.5 -1122"/><text x="43.5" y="-1128.8" font-family="Times,serif" font-size="14">end_date_month</text><polygon fill="#eee" stroke="transparent" points="40.5 -1101 40.5 -1122 179.5 -1122 179.5 -1101"/><polygon fill="none" stroke="#000" points="40.5 -1101 40.5 -1122 179.5 -1122 179.5 -1101"/><text x="43.5" y="-1107.8" font-family="Times,serif" font-size="14">end_date_day</text><polygon fill="#eee" stroke="transparent" points="40.5 -1080 40.5 -1101 179.5 -1101 179.5 -1080"/><polygon fill="none" stroke="#000" points="40.5 -1080 40.5 -1101 179.5 -1101 179.5 -1080"/><text x="43.5" y="-1086.8" font-family="Times,serif" font-size="14">primary_for_locale</text><polygon fill="#eee" stroke="transparent" points="40.5 -1059 40.5 -1080 179.5 -1080 179.5 -1059"/><polygon fill="none" stroke="#000" points="40.5 -1059 40.5 -1080 179.5 -1080 179.5 -1059"/><text x="43.5" y="-1065.8" font-family="Times,serif" font-size="14">ended</text></g><g class="edge"><title>musicbrainz.artist_alias:artist-&gt;musicbrainz.artist:id</title><path fill="none" stroke="#000" d="m180.5-1364c19.801 0 31.922 38.139 40.494 105.24 20.558 160.92 16.317 456.24 16.922 558.94 0.087 14.78 6.6388 22.314 12.494 27.726"/><polygon stroke="#000" points="252.17 -675.14 260 -668 249.43 -668.7"/></g><g class="node"><title>musicbrainz.artist_alias_type</title><polygon fill="#eee" stroke="transparent" points="255 -1269 255 -1294 403 -1294 403 -1269"/><polygon fill="none" stroke="#000" points="255 -1269 255 -1294 403 -1294 403 -1269"/><text x="258" y="-1277.4" font-family="Times,serif" font-size="17">artist_alias_type</text><polygon fill="#f0976c" stroke="transparent" points="255 -1248 255 -1269 403 -1269 403 -1248"/><polygon fill="none" stroke="#000" points="255 -1248 255 -1269 403 -1269 403 -1248"/><text x="258" y="-1255.8" font-family="Times,serif" font-size="14" text-decoration="underline">id</text><polygon fill="#eee" stroke="transparent" points="255 -1227 255 -1248 403 -1248 403 -1227"/><polygon fill="none" stroke="#000" points="255 -1227 255 -1248 403 -1248 403 -1227"/><text x="258" y="-1233.8" font-family="Times,serif" font-size="14">name</text><polygon fill="#f8d1be" stroke="transparent" points="255 -1206 255 -1227 403 -1227 403 -1206"/><polygon fill="none" stroke="#000" points="255 -1206 255 -1227 403 -1227 403 -1206"/><text x="258" y="-1212.8" font-family="Times,serif" font-size="14">parent</text><polygon fill="#eee" stroke="transparent" points="255 -1185 255 -1206 403 -1206 403 -1185"/><polygon fill="none" stroke="#000" points="255 -1185 255 -1206 403 -1206 403 -1185"/><text x="258" y="-1191.8" font-family="Times,serif" font-size="14">child_order</text><polygon fill="#eee" stroke="transparent" points="255 -1164 255 -1185 403 -1185 403 -1164"/><polygon fill="none" stroke="#000" points="255 -1164 255 -1185 403 -1185 403 -1164"/><text x="258" y="-1170.8" font-family="Times,serif" font-size="14">description</text><polygon fill="#eee" stroke="transparent" points="255 -1143 255 -1164 403 -1164 403 -1143"/><polygon fill="none" stroke="#000" points="255 -1143 255 -1164 403 -1164 403 -1143"/><text x="258" y="-1149.8" font-family="Times,serif" font-size="14">gid</text></g><g class="edge"><title>musicbrainz.artist_alias:type-&gt;musicbrainz.artist_alias_type:id</title><path fill="none" stroke="#000" d="m180.5-1259h64.46"/><polygon stroke="#000" points="245 -1262.5 255 -1259 245 -1255.5"/></g><g class="node"><title>musicbrainz.artist_annotation</title><polygon fill="#eee" stroke="transparent" points="31.5 -1480 31.5 -1505 187.5 -1505 187.5 -1480"/><polygon fill="none" stroke="#000" points="31.5 -1480 31.5 -1505 187.5 -1505 187.5 -1480"/><text x="34.5" y="-1488.4" font-family="Times,serif" font-size="17">artist_annotation</text><polygon fill="#f0976c" stroke="transparent" points="31.5 -1459 31.5 -1480 187.5 -1480 187.5 -1459"/><polygon fill="none" stroke="#000" points="31.5 -1459 31.5 -1480 187.5 -1480 187.5 -1459"/><text x="34.5" y="-1466.8" font-family="Times,serif" font-size="14" text-decoration="underline">artist</text><polygon fill="#f0976c" stroke="transparent" points="31.5 -1438 31.5 -1459 187.5 -1459 187.5 -1438"/><polygon fill="none" stroke="#000" points="31.5 -1438 31.5 -1459 187.5 -1459 187.5 -1438"/><text x="34.5" y="-1445.8" font-family="Times,serif" font-size="14" text-decoration="underline">annotation</text></g><g class="edge"><title>musicbrainz.artist_annotation:annotation-&gt;musicbrainz.annotation:id</title><path fill="none" stroke="#000" d="m188.5-1448h79.46"/><polygon stroke="#000" points="268 -1451.5 278 -1448 268 -1444.5"/></g><g class="edge"><title>musicbrainz.artist_annotation:artist-&gt;musicbrainz.artist:id</title><path fill="none" stroke="#000" d="m188.5-1469c22 0 36.42 0.7067 44.15 21.307 12.962 34.576 9.5696 604.75 10.91 747.92 0.22976 24.542 14.764 33.323 9.36 24.145"/><polygon stroke="#000" points="255.77 -677.71 260 -668 250.63 -672.95"/></g><g class="node"><title>musicbrainz.artist_gid_redirect</title><polygon fill="#eee" stroke="transparent" points="26.5 -446 26.5 -471 192.5 -471 192.5 -446"/><polygon fill="none" stroke="#000" points="26.5 -446 26.5 -471 192.5 -471 192.5 -446"/><text x="29.5" y="-454.4" font-family="Times,serif" font-size="17">artist_gid_redirect</text><polygon fill="#f0976c" stroke="transparent" points="26.5 -425 26.5 -446 192.5 -446 192.5 -425"/><polygon fill="none" stroke="#000" points="26.5 -425 26.5 -446 192.5 -446 192.5 -425"/><text x="29.5" y="-432.8" font-family="Times,serif" font-size="14" text-decoration="underline">gid</text><polygon fill="#f8d1be" stroke="transparent" points="26.5 -404 26.5 -425 192.5 -425 192.5 -404"/><polygon fill="none" stroke="#000" points="26.5 -404 26.5 -425 192.5 -425 192.5 -404"/><text x="29.5" y="-410.8" font-family="Times,serif" font-size="14">new_id</text><polygon fill="#eee" stroke="transparent" points="26.5 -383 26.5 -404 192.5 -404 192.5 -383"/><polygon fill="none" stroke="#000" points="26.5 -383 26.5 -404 192.5 -404 192.5 -383"/><text x="29.5" y="-389.8" font-family="Times,serif" font-size="14">created</text></g><g class="edge"><title>musicbrainz.artist_gid_redirect:new_id-&gt;musicbrainz.artist:id</title><path fill="none" stroke="#000" stroke-width="1.005" d="m193.5-414c54.698 0 4.761-254.06 56.778-253.61"/><polygon stroke="#000" points="249.42 -668.54 260 -668 251.39 -661.83"/></g><g class="node"><title>musicbrainz.artist_ipi</title><polygon fill="#eee" stroke="transparent" points="56.5 -339 56.5 -364 162.5 -364 162.5 -339"/><polygon fill="none" stroke="#000" points="56.5 -339 56.5 -364 162.5 -364 162.5 -339"/><text x="71" y="-347.4" font-family="Times,serif" font-size="17">artist_ipi</text><polygon fill="#f0976c" stroke="transparent" points="56.5 -318 56.5 -339 162.5 -339 162.5 -318"/><polygon fill="none" stroke="#000" points="56.5 -318 56.5 -339 162.5 -339 162.5 -318"/><text x="59.5" y="-325.8" font-family="Times,serif" font-size="14" text-decoration="underline">artist</text><polygon fill="#f0976c" stroke="transparent" points="56.5 -297 56.5 -318 162.5 -318 162.5 -297"/><polygon fill="none" stroke="#000" points="56.5 -297 56.5 -318 162.5 -318 162.5 -297"/><text x="59.5" y="-304.8" font-family="Times,serif" font-size="14" text-decoration="underline">ipi</text><polygon fill="#eee" stroke="transparent" points="56.5 -276 56.5 -297 162.5 -297 162.5 -276"/><polygon fill="none" stroke="#000" points="56.5 -276 56.5 -297 162.5 -297 162.5 -276"/><text x="59.5" y="-282.8" font-family="Times,serif" font-size="14">edits_pending</text><polygon fill="#eee" stroke="transparent" points="56.5 -255 56.5 -276 162.5 -276 162.5 -255"/><polygon fill="none" stroke="#000" points="56.5 -255 56.5 -276 162.5 -276 162.5 -255"/><text x="59.5" y="-261.8" font-family="Times,serif" font-size="14">created</text></g><g class="edge"><title>musicbrainz.artist_ipi:artist-&gt;musicbrainz.artist:id</title><path fill="none" stroke="#000" stroke-width="1" d="m163.5-329c31.76 0 47.787-14.212 55.5-45.041 18.59-75.815-11.051-282.51 30.94-292.07"/><polygon stroke="#000" points="249.48 -669.28 260 -668 250.98 -662.44"/></g><g class="node"><title>musicbrainz.artist_isni</title><polygon fill="#eee" stroke="transparent" points="56.5 -212 56.5 -237 162.5 -237 162.5 -212"/><polygon fill="none" stroke="#000" points="56.5 -212 56.5 -237 162.5 -237 162.5 -212"/><text x="66.5" y="-220.4" font-family="Times,serif" font-size="17">artist_isni</text><polygon fill="#f0976c" stroke="transparent" points="56.5 -191 56.5 -212 162.5 -212 162.5 -191"/><polygon fill="none" stroke="#000" points="56.5 -191 56.5 -212 162.5 -212 162.5 -191"/><text x="59.5" y="-198.8" font-family="Times,serif" font-size="14" text-decoration="underline">artist</text><polygon fill="#f0976c" stroke="transparent" points="56.5 -170 56.5 -191 162.5 -191 162.5 -170"/><polygon fill="none" stroke="#000" points="56.5 -170 56.5 -191 162.5 -191 162.5 -170"/><text x="59.5" y="-177.8" font-family="Times,serif" font-size="14" text-decoration="underline">isni</text><polygon fill="#eee" stroke="transparent" points="56.5 -149 56.5 -170 162.5 -170 162.5 -149"/><polygon fill="none" stroke="#000" points="56.5 -149 56.5 -170 162.5 -170 162.5 -149"/><text x="59.5" y="-155.8" font-family="Times,serif" font-size="14">edits_pending</text><polygon fill="#eee" stroke="transparent" points="56.5 -128 56.5 -149 162.5 -149 162.5 -128"/><polygon fill="none" stroke="#000" points="56.5 -128 56.5 -149 162.5 -149 162.5 -128"/><text x="59.5" y="-134.8" font-family="Times,serif" font-size="14">created</text></g><g class="edge"><title>musicbrainz.artist_isni:artist-&gt;musicbrainz.artist:id</title><path fill="none" stroke="#000" stroke-width="1.002" d="m163.5-202c31.76 0 43.109-15.823 55.5-45.18 28.121-65.932-11.916-415.44 32.38-417.58"/><polygon stroke="#000" points="260 -668 253.17 -659.9 249.61 -665.93"/></g><g class="node"><title>musicbrainz.artist_meta</title><polygon fill="#eee" stroke="transparent" points="57.5 -1017 57.5 -1042 161.5 -1042 161.5 -1017"/><polygon fill="none" stroke="#000" points="57.5 -1017 57.5 -1042 161.5 -1042 161.5 -1017"/><text x="60.5" y="-1025.4" font-family="Times,serif" font-size="17">artist_meta</text><polygon fill="#f0976c" stroke="transparent" points="57.5 -996 57.5 -1017 161.5 -1017 161.5 -996"/><polygon fill="none" stroke="#000" points="57.5 -996 57.5 -1017 161.5 -1017 161.5 -996"/><text x="60.5" y="-1003.8" font-family="Times,serif" font-size="14" text-decoration="underline">id</text><polygon fill="#eee" stroke="transparent" points="57.5 -975 57.5 -996 161.5 -996 161.5 -975"/><polygon fill="none" stroke="#000" points="57.5 -975 57.5 -996 161.5 -996 161.5 -975"/><text x="60.5" y="-981.8" font-family="Times,serif" font-size="14">rating</text><polygon fill="#eee" stroke="transparent" points="57.5 -954 57.5 -975 161.5 -975 161.5 -954"/><polygon fill="none" stroke="#000" points="57.5 -954 57.5 -975 161.5 -975 161.5 -954"/><text x="60.5" y="-960.8" font-family="Times,serif" font-size="14">rating_count</text></g><g class="edge"><title>musicbrainz.artist_meta:id-&gt;musicbrainz.artist:id</title><path fill="none" stroke="#000" d="m162.5-1007c37.28 0 56.233 1.9041 59.872 39.005 3.7072 44.099 8.6584 203.14 9.7572 268.39 0.25059 14.881 9.0901 25.007 18.031 29.4"/><polygon stroke="#000" points="251 -673.59 260 -668 249.48 -666.76"/></g><g class="node"><title>musicbrainz.artist_release</title><polygon fill="#eee" stroke="transparent" points="30.5 -910 30.5 -935 188.5 -935 188.5 -910"/><polygon fill="none" stroke="#000" points="30.5 -910 30.5 -935 188.5 -935 188.5 -910"/><text x="33.5" y="-918.4" font-family="Times,serif" font-size="17">artist_release (m)</text><polygon fill="#eee" stroke="transparent" points="30.5 -889 30.5 -910 188.5 -910 188.5 -889"/><polygon fill="none" stroke="#000" points="30.5 -889 30.5 -910 188.5 -910 188.5 -889"/><text x="33.5" y="-895.8" font-family="Times,serif" font-size="14">is_track_artist</text><polygon fill="#f8d1be" stroke="transparent" points="30.5 -868 30.5 -889 188.5 -889 188.5 -868"/><polygon fill="none" stroke="#000" points="30.5 -868 30.5 -889 188.5 -889 188.5 -868"/><text x="33.5" y="-874.8" font-family="Times,serif" font-size="14">artist</text><polygon fill="#eee" stroke="transparent" points="30.5 -847 30.5 -868 188.5 -868 188.5 -847"/><polygon fill="none" stroke="#000" points="30.5 -847 30.5 -868 188.5 -868 188.5 -847"/><text x="33.5" y="-853.8" font-family="Times,serif" font-size="14">first_release_date</text><polygon fill="#eee" stroke="transparent" points="30.5 -826 30.5 -847 188.5 -847 188.5 -826"/><polygon fill="none" stroke="#000" points="30.5 -826 30.5 -847 188.5 -847 188.5 -826"/><text x="33.5" y="-832.8" font-family="Times,serif" font-size="14">catalog_numbers</text><polygon fill="#eee" stroke="transparent" points="30.5 -805 30.5 -826 188.5 -826 188.5 -805"/><polygon fill="none" stroke="#000" points="30.5 -805 30.5 -826 188.5 -826 188.5 -805"/><text x="33.5" y="-811.8" font-family="Times,serif" font-size="14">country_code</text><polygon fill="#eee" stroke="transparent" points="30.5 -784 30.5 -805 188.5 -805 188.5 -784"/><polygon fill="none" stroke="#000" points="30.5 -784 30.5 -805 188.5 -805 188.5 -784"/><text x="33.5" y="-790.8" font-family="Times,serif" font-size="14">barcode</text><polygon fill="#eee" stroke="transparent" points="30.5 -763 30.5 -784 188.5 -784 188.5 -763"/><polygon fill="none" stroke="#000" points="30.5 -763 30.5 -784 188.5 -784 188.5 -763"/><text x="33.5" y="-769.8" font-family="Times,serif" font-size="14">name</text><polygon fill="#eee" stroke="transparent" points="30.5 -742 30.5 -763 188.5 -763 188.5 -742"/><polygon fill="none" stroke="#000" points="30.5 -742 30.5 -763 188.5 -763 188.5 -742"/><text x="33.5" y="-748.8" font-family="Times,serif" font-size="14">release</text></g><g class="edge"><title>musicbrainz.artist_release:artist-&gt;musicbrainz.artist:id</title><path fill="none" stroke="#000" d="m189.5-879c18.64 0 29.212 32.58 30.578 46.125 4.6044 45.648 5.4027 104.94 6.5227 144.22 0.21591 7.5714 14.049 18.118 23.299 19.804"/><polygon stroke="#000" points="250.33 -672.33 260 -668 249.74 -665.35"/></g><g class="node"><title>musicbrainz.artist_release_group</title><polygon fill="#eee" stroke="transparent" points=".5 -699 .5 -724 219.5 -724 219.5 -699"/><polygon fill="none" stroke="#000" points=".5 -699 .5 -724 219.5 -724 219.5 -699"/><text x="3.5" y="-707.4" font-family="Times,serif" font-size="17">artist_release_group (m)</text><polygon fill="#eee" stroke="transparent" points=".5 -678 .5 -699 219.5 -699 219.5 -678"/><polygon fill="none" stroke="#000" points=".5 -678 .5 -699 219.5 -699 219.5 -678"/><text x="3.5" y="-684.8" font-family="Times,serif" font-size="14">is_track_artist</text><polygon fill="#f8d1be" stroke="transparent" points=".5 -657 .5 -678 219.5 -678 219.5 -657"/><polygon fill="none" stroke="#000" points=".5 -657 .5 -678 219.5 -678 219.5 -657"/><text x="3.5" y="-663.8" font-family="Times,serif" font-size="14">artist</text><polygon fill="#eee" stroke="transparent" points=".5 -636 .5 -657 219.5 -657 219.5 -636"/><polygon fill="none" stroke="#000" points=".5 -636 .5 -657 219.5 -657 219.5 -636"/><text x="3.5" y="-642.8" font-family="Times,serif" font-size="14">unofficial</text><polygon fill="#eee" stroke="transparent" points=".5 -615 .5 -636 219.5 -636 219.5 -615"/><polygon fill="none" stroke="#000" points=".5 -615 .5 -636 219.5 -636 219.5 -615"/><text x="3.5" y="-621.8" font-family="Times,serif" font-size="14">primary_type_child_order</text><polygon fill="#eee" stroke="transparent" points=".5 -594 .5 -615 219.5 -615 219.5 -594"/><polygon fill="none" stroke="#000" points=".5 -594 .5 -615 219.5 -615 219.5 -594"/><text x="3.5" y="-600.8" font-family="Times,serif" font-size="14">primary_type</text><polygon fill="#eee" stroke="transparent" points=".5 -573 .5 -594 219.5 -594 219.5 -573"/><polygon fill="none" stroke="#000" points=".5 -573 .5 -594 219.5 -594 219.5 -573"/><text x="3.5" y="-579.8" font-family="Times,serif" font-size="14">secondary_type_child_orders</text><polygon fill="#eee" stroke="transparent" points=".5 -552 .5 -573 219.5 -573 219.5 -552"/><polygon fill="none" stroke="#000" points=".5 -552 .5 -573 219.5 -573 219.5 -552"/><text x="3.5" y="-558.8" font-family="Times,serif" font-size="14">secondary_types</text><polygon fill="#eee" stroke="transparent" points=".5 -531 .5 -552 219.5 -552 219.5 -531"/><polygon fill="none" stroke="#000" points=".5 -531 .5 -552 219.5 -552 219.5 -531"/><text x="3.5" y="-537.8" font-family="Times,serif" font-size="14">first_release_date</text><polygon fill="#eee" stroke="transparent" points=".5 -510 .5 -531 219.5 -531 219.5 -510"/><polygon fill="none" stroke="#000" points=".5 -510 .5 -531 219.5 -531 219.5 -510"/><text x="3.5" y="-516.8" font-family="Times,serif" font-size="14">name</text><polygon fill="#eee" stroke="transparent" points=".5 -489 .5 -510 219.5 -510 219.5 -489"/><polygon fill="none" stroke="#000" points=".5 -489 .5 -510 219.5 -510 219.5 -489"/><text x="3.5" y="-495.8" font-family="Times,serif" font-size="14">release_group</text></g><g class="edge"><title>musicbrainz.artist_release_group:artist-&gt;musicbrainz.artist:id</title><path fill="none" stroke="#000" d="m219-668h30.72"/><polygon stroke="#000" points="250 -671.5 260 -668 250 -664.5"/></g><g class="node"><title>musicbrainz.artist_tag</title><polygon fill="#eee" stroke="transparent" points="60.5 -85 60.5 -110 158.5 -110 158.5 -85"/><polygon fill="none" stroke="#000" points="60.5 -85 60.5 -110 158.5 -110 158.5 -85"/><text x="67.5" y="-93.4" font-family="Times,serif" font-size="17">artist_tag</text><polygon fill="#f0976c" stroke="transparent" points="60.5 -64 60.5 -85 158.5 -85 158.5 -64"/><polygon fill="none" stroke="#000" points="60.5 -64 60.5 -85 158.5 -85 158.5 -64"/><text x="63.5" y="-71.8" font-family="Times,serif" font-size="14" text-decoration="underline">artist</text><polygon fill="#f0976c" stroke="transparent" points="60.5 -43 60.5 -64 158.5 -64 158.5 -43"/><polygon fill="none" stroke="#000" points="60.5 -43 60.5 -64 158.5 -64 158.5 -43"/><text x="63.5" y="-50.8" font-family="Times,serif" font-size="14" text-decoration="underline">tag</text><polygon fill="#eee" stroke="transparent" points="60.5 -22 60.5 -43 158.5 -43 158.5 -22"/><polygon fill="none" stroke="#000" points="60.5 -22 60.5 -43 158.5 -43 158.5 -22"/><text x="63.5" y="-28.8" font-family="Times,serif" font-size="14">count</text><polygon fill="#eee" stroke="transparent" points="60.5 -1 60.5 -22 158.5 -22 158.5 -1"/><polygon fill="none" stroke="#000" points="60.5 -1 60.5 -22 158.5 -22 158.5 -1"/><text x="63.5" y="-7.8" font-family="Times,serif" font-size="14">last_updated</text></g><g class="edge"><title>musicbrainz.artist_tag:artist-&gt;musicbrainz.artist:id</title><path fill="none" stroke="#000" stroke-width=".999" d="m159.5-74.999c33.16 0 52.599-12.534 59.5-44.906 34.703-162.9-6.5854-539.99 31.94-542.58"/><polygon stroke="#000" points="249.46 -666.89 260 -668 252.46 -660.56"/></g><g class="node"><title>musicbrainz.tag</title><polygon fill="#eee" stroke="transparent" points="293 -63 293 -88 366 -88 366 -63"/><polygon fill="none" stroke="#000" points="293 -63 293 -88 366 -88 366 -63"/><text x="315" y="-71.4" font-family="Times,serif" font-size="17">tag</text><polygon fill="#f0976c" stroke="transparent" points="293 -42 293 -63 366 -63 366 -42"/><polygon fill="none" stroke="#000" points="293 -42 293 -63 366 -63 366 -42"/><text x="296" y="-49.8" font-family="Times,serif" font-size="14" text-decoration="underline">id</text><polygon fill="#eee" stroke="transparent" points="293 -21 293 -42 366 -42 366 -21"/><polygon fill="none" stroke="#000" points="293 -21 293 -42 366 -42 366 -21"/><text x="296" y="-27.8" font-family="Times,serif" font-size="14">name</text><polygon fill="#eee" stroke="transparent" points="293 0 293 -21 366 -21 366 0"/><polygon fill="none" stroke="#000" points="293 0 293 -21 366 -21 366 0"/><text x="296" y="-6.8" font-family="Times,serif" font-size="14">ref_count</text></g><g class="edge"><title>musicbrainz.artist_tag:tag-&gt;musicbrainz.tag:id</title><path fill="none" stroke="#000" d="m159.5-53h122.27"/><polygon stroke="#000" points="282 -56.5 292 -53 282 -49.5"/></g></g></svg>