<svg xmlns="http://www.w3.org/2000/svg" xmlns:xlink="http://www.w3.org/1999/xlink" width="260pt" height="349pt" viewBox="0 0 260 349"><g class="graph" transform="scale(1) translate(4 345)"><title>cdstub_details</title><a xlink:title="Tables for CD stub"><polygon fill="#e8c2da" stroke="transparent" points="-4 4 -4 -345 256 -345 256 4"/></a><g class="node"><title>musicbrainz.cdtoc_raw</title><polygon fill="#eee" stroke="transparent" points="0 -315.5 0 -340.5 106 -340.5 106 -315.5"/><polygon fill="none" stroke="#000" points="0 -315.5 0 -340.5 106 -340.5 106 -315.5"/><text x="8" y="-323.9" font-family="Times,serif" font-size="17">cdtoc_raw</text><polygon fill="#f0976c" stroke="transparent" points="0 -294.5 0 -315.5 106 -315.5 106 -294.5"/><polygon fill="none" stroke="#000" points="0 -294.5 0 -315.5 106 -315.5 106 -294.5"/><text x="3" y="-302.3" font-family="Times,serif" font-size="14" text-decoration="underline">id</text><polygon fill="#f8d1be" stroke="transparent" points="0 -273.5 0 -294.5 106 -294.5 106 -273.5"/><polygon fill="none" stroke="#000" points="0 -273.5 0 -294.5 106 -294.5 106 -273.5"/><text x="3" y="-280.3" font-family="Times,serif" font-size="14">release</text><polygon fill="#eee" stroke="transparent" points="0 -252.5 0 -273.5 106 -273.5 106 -252.5"/><polygon fill="none" stroke="#000" points="0 -252.5 0 -273.5 106 -273.5 106 -252.5"/><text x="3" y="-259.3" font-family="Times,serif" font-size="14">discid</text><polygon fill="#eee" stroke="transparent" points="0 -231.5 0 -252.5 106 -252.5 106 -231.5"/><polygon fill="none" stroke="#000" points="0 -231.5 0 -252.5 106 -252.5 106 -231.5"/><text x="3" y="-238.3" font-family="Times,serif" font-size="14">track_count</text><polygon fill="#eee" stroke="transparent" points="0 -210.5 0 -231.5 106 -231.5 106 -210.5"/><polygon fill="none" stroke="#000" points="0 -210.5 0 -231.5 106 -231.5 106 -210.5"/><text x="3" y="-217.3" font-family="Times,serif" font-size="14">leadout_offset</text><polygon fill="#eee" stroke="transparent" points="0 -189.5 0 -210.5 106 -210.5 106 -189.5"/><polygon fill="none" stroke="#000" points="0 -189.5 0 -210.5 106 -210.5 106 -189.5"/><text x="3" y="-196.3" font-family="Times,serif" font-size="14">track_offset</text></g><g class="node"><title>musicbrainz.release_raw</title><polygon fill="#eb743b" stroke="transparent" points="142 -209.5 142 -234.5 252 -234.5 252 -209.5"/><polygon fill="none" stroke="#000" points="142 -209.5 142 -234.5 252 -234.5 252 -209.5"/><text x="145" y="-217.9" font-family="Times,serif" font-size="17">release_raw</text><polygon fill="#f0976c" stroke="transparent" points="142 -188.5 142 -209.5 252 -209.5 252 -188.5"/><polygon fill="none" stroke="#000" points="142 -188.5 142 -209.5 252 -209.5 252 -188.5"/><text x="145" y="-196.3" font-family="Times,serif" font-size="14" text-decoration="underline">id</text><polygon fill="#eee" stroke="transparent" points="142 -167.5 142 -188.5 252 -188.5 252 -167.5"/><polygon fill="none" stroke="#000" points="142 -167.5 142 -188.5 252 -188.5 252 -167.5"/><text x="145" y="-174.3" font-family="Times,serif" font-size="14">title</text><polygon fill="#eee" stroke="transparent" points="142 -146.5 142 -167.5 252 -167.5 252 -146.5"/><polygon fill="none" stroke="#000" points="142 -146.5 142 -167.5 252 -167.5 252 -146.5"/><text x="145" y="-153.3" font-family="Times,serif" font-size="14">artist</text><polygon fill="#eee" stroke="transparent" points="142 -125.5 142 -146.5 252 -146.5 252 -125.5"/><polygon fill="none" stroke="#000" points="142 -125.5 142 -146.5 252 -146.5 252 -125.5"/><text x="145" y="-132.3" font-family="Times,serif" font-size="14">added</text><polygon fill="#eee" stroke="transparent" points="142 -104.5 142 -125.5 252 -125.5 252 -104.5"/><polygon fill="none" stroke="#000" points="142 -104.5 142 -125.5 252 -125.5 252 -104.5"/><text x="145" y="-111.3" font-family="Times,serif" font-size="14">last_modified</text><polygon fill="#eee" stroke="transparent" points="142 -83.5 142 -104.5 252 -104.5 252 -83.5"/><polygon fill="none" stroke="#000" points="142 -83.5 142 -104.5 252 -104.5 252 -83.5"/><text x="145" y="-90.3" font-family="Times,serif" font-size="14">lookup_count</text><polygon fill="#eee" stroke="transparent" points="142 -62.5 142 -83.5 252 -83.5 252 -62.5"/><polygon fill="none" stroke="#000" points="142 -62.5 142 -83.5 252 -83.5 252 -62.5"/><text x="145" y="-69.3" font-family="Times,serif" font-size="14">modify_count</text><polygon fill="#eee" stroke="transparent" points="142 -41.5 142 -62.5 252 -62.5 252 -41.5"/><polygon fill="none" stroke="#000" points="142 -41.5 142 -62.5 252 -62.5 252 -41.5"/><text x="145" y="-48.3" font-family="Times,serif" font-size="14">source</text><polygon fill="#eee" stroke="transparent" points="142 -20.5 142 -41.5 252 -41.5 252 -20.5"/><polygon fill="none" stroke="#000" points="142 -20.5 142 -41.5 252 -41.5 252 -20.5"/><text x="145" y="-27.3" font-family="Times,serif" font-size="14">barcode</text><polygon fill="#eee" stroke="transparent" points="142 .5 142 -20.5 252 -20.5 252 .5"/><polygon fill="none" stroke="#000" points="142 .5 142 -20.5 252 -20.5 252 .5"/><text x="145" y="-6.3" font-family="Times,serif" font-size="14">comment</text></g><g class="edge"><title>musicbrainz.cdtoc_raw:release-&gt;musicbrainz.release_raw:id</title><path fill="none" stroke="#000" d="m106-284.5c36.86 0 3.43 68.61 26.01 82.55"/><polygon stroke="#000" points="133.12 -205.28 142 -199.5 131.45 -198.49"/></g><g class="node"><title>musicbrainz.track_raw</title><polygon fill="#eee" stroke="transparent" points="6 -146.5 6 -171.5 100 -171.5 100 -146.5"/><polygon fill="none" stroke="#000" points="6 -146.5 6 -171.5 100 -171.5 100 -146.5"/><text x="9" y="-154.9" font-family="Times,serif" font-size="17">track_raw</text><polygon fill="#f0976c" stroke="transparent" points="6 -125.5 6 -146.5 100 -146.5 100 -125.5"/><polygon fill="none" stroke="#000" points="6 -125.5 6 -146.5 100 -146.5 100 -125.5"/><text x="9" y="-133.3" font-family="Times,serif" font-size="14" text-decoration="underline">id</text><polygon fill="#f8d1be" stroke="transparent" points="6 -104.5 6 -125.5 100 -125.5 100 -104.5"/><polygon fill="none" stroke="#000" points="6 -104.5 6 -125.5 100 -125.5 100 -104.5"/><text x="9" y="-111.3" font-family="Times,serif" font-size="14">release</text><polygon fill="#eee" stroke="transparent" points="6 -83.5 6 -104.5 100 -104.5 100 -83.5"/><polygon fill="none" stroke="#000" points="6 -83.5 6 -104.5 100 -104.5 100 -83.5"/><text x="9" y="-90.3" font-family="Times,serif" font-size="14">title</text><polygon fill="#eee" stroke="transparent" points="6 -62.5 6 -83.5 100 -83.5 100 -62.5"/><polygon fill="none" stroke="#000" points="6 -62.5 6 -83.5 100 -83.5 100 -62.5"/><text x="9" y="-69.3" font-family="Times,serif" font-size="14">artist</text><polygon fill="#eee" stroke="transparent" points="6 -41.5 6 -62.5 100 -62.5 100 -41.5"/><polygon fill="none" stroke="#000" points="6 -41.5 6 -62.5 100 -62.5 100 -41.5"/><text x="9" y="-48.3" font-family="Times,serif" font-size="14">sequence</text></g><g class="edge"><title>musicbrainz.track_raw:release-&gt;musicbrainz.release_raw:id</title><path fill="none" stroke="#000" d="m101-115.5c37.49 0 6.88-68.39 31.07-81.75"/><polygon stroke="#000" points="131.47 -200.71 142 -199.5 133.02 -193.88"/></g></g></svg>