<svg xmlns="http://www.w3.org/2000/svg" xmlns:xlink="http://www.w3.org/1999/xlink" width="1036" height="1060" version="1.1" viewBox="0 0 777 795.44"><g class="graph" transform="scale(1) translate(4 791.44)"><title>entity_network_overview</title><a xlink:title="Overview of tables connecting primary entity types"><polygon fill="#e8c2da" stroke="transparent" points="-4 4 -4 -791.44 773 -791.44 773 4"/></a><g class="node"><title>musicbrainz.area</title><polygon fill="#eb743b" stroke="transparent" points="533 -323.94 533 -348.94 579 -348.94 579 -323.94"/><polygon fill="none" stroke="#000" points="533 -323.94 533 -348.94 579 -348.94 579 -323.94"/><text x="536" y="-332.34" font-family="Times,serif" font-size="17">area</text><polygon fill="#f0976c" stroke="transparent" points="533 -302.94 533 -323.94 579 -323.94 579 -302.94"/><polygon fill="none" stroke="#000" points="533 -302.94 533 -323.94 579 -323.94 579 -302.94"/><text x="536" y="-310.74" font-family="Times,serif" font-size="14" text-decoration="underline">id</text><polygon fill="#eee" stroke="transparent" points="533 -281.94 533 -302.94 579 -302.94 579 -281.94"/><polygon fill="none" stroke="#000" points="533 -281.94 533 -302.94 579 -302.94 579 -281.94"/><text x="536" y="-288.74" font-family="Times,serif" font-size="14">...</text></g><g class="node"><title>musicbrainz.artist</title><polygon fill="#eb743b" stroke="transparent" points="368.5 -147.94 368.5 -172.94 421.5 -172.94 421.5 -147.94"/><polygon fill="none" stroke="#000" points="368.5 -147.94 368.5 -172.94 421.5 -172.94 421.5 -147.94"/><text x="371.5" y="-156.34" font-family="Times,serif" font-size="17">artist</text><polygon fill="#f0976c" stroke="transparent" points="368.5 -126.94 368.5 -147.94 421.5 -147.94 421.5 -126.94"/><polygon fill="none" stroke="#000" points="368.5 -126.94 368.5 -147.94 421.5 -147.94 421.5 -126.94"/><text x="371.5" y="-134.74" font-family="Times,serif" font-size="14" text-decoration="underline">id</text><polygon fill="#f8d1be" stroke="transparent" points="368.5 -105.94 368.5 -126.94 421.5 -126.94 421.5 -105.94"/><polygon fill="none" stroke="#000" points="368.5 -105.94 368.5 -126.94 421.5 -126.94 421.5 -105.94"/><text x="371.5" y="-112.74" font-family="Times,serif" font-size="14">area</text><polygon fill="#eee" stroke="transparent" points="368.5 -84.94 368.5 -105.94 421.5 -105.94 421.5 -84.94"/><polygon fill="none" stroke="#000" points="368.5 -84.94 368.5 -105.94 421.5 -105.94 421.5 -84.94"/><text x="371.5" y="-91.74" font-family="Times,serif" font-size="14">...</text></g><g class="edge"><title>musicbrainz.artist:area-&gt;musicbrainz.area:id</title><path fill="none" stroke="#000" d="m422.5-115.94c96.55 0 15.64-183.02 99.37-196.24"/><polygon stroke="#000" points="521.77 -315.68 532 -312.94 522.29 -308.7"/></g><g class="node"><title>musicbrainz.artist_credit</title><polygon fill="#eee" stroke="transparent" points="657 -525.94 657 -550.94 769 -550.94 769 -525.94"/><polygon fill="none" stroke="#000" points="657 -525.94 657 -550.94 769 -550.94 769 -525.94"/><text x="660" y="-534.34" font-family="Times,serif" font-size="17">artist_credit</text><polygon fill="#f0976c" stroke="transparent" points="657 -504.94 657 -525.94 769 -525.94 769 -504.94"/><polygon fill="none" stroke="#000" points="657 -504.94 657 -525.94 769 -525.94 769 -504.94"/><text x="660" y="-512.74" font-family="Times,serif" font-size="14" text-decoration="underline">id</text><polygon fill="#eee" stroke="transparent" points="657 -483.94 657 -504.94 769 -504.94 769 -483.94"/><polygon fill="none" stroke="#000" points="657 -483.94 657 -504.94 769 -504.94 769 -483.94"/><text x="660" y="-490.74" font-family="Times,serif" font-size="14">...</text></g><g class="node"><title>musicbrainz.artist_credit_name</title><polygon fill="#eee" stroke="transparent" points="130 -198.94 130 -223.94 298 -223.94 298 -198.94"/><polygon fill="none" stroke="#000" points="130 -198.94 130 -223.94 298 -223.94 298 -198.94"/><text x="133" y="-207.34" font-family="Times,serif" font-size="17">artist_credit_name</text><polygon fill="#f0976c" stroke="transparent" points="130 -177.94 130 -198.94 298 -198.94 298 -177.94"/><polygon fill="none" stroke="#000" points="130 -177.94 130 -198.94 298 -198.94 298 -177.94"/><text x="133" y="-185.74" font-family="Times,serif" font-size="14" text-decoration="underline">artist_credit</text><polygon fill="#f0976c" stroke="transparent" points="130 -156.94 130 -177.94 298 -177.94 298 -156.94"/><polygon fill="none" stroke="#000" points="130 -156.94 130 -177.94 298 -177.94 298 -156.94"/><text x="133" y="-164.74" font-family="Times,serif" font-size="14" text-decoration="underline">position</text><polygon fill="#f8d1be" stroke="transparent" points="130 -135.94 130 -156.94 298 -156.94 298 -135.94"/><polygon fill="none" stroke="#000" points="130 -135.94 130 -156.94 298 -156.94 298 -135.94"/><text x="133" y="-142.74" font-family="Times,serif" font-size="14">artist</text><polygon fill="#eee" stroke="transparent" points="130 -114.94 130 -135.94 298 -135.94 298 -114.94"/><polygon fill="none" stroke="#000" points="130 -114.94 130 -135.94 298 -135.94 298 -114.94"/><text x="133" y="-121.74" font-family="Times,serif" font-size="14">...</text></g><g class="edge"><title>musicbrainz.artist_credit_name:artist-&gt;musicbrainz.artist:id</title><path fill="none" stroke="#000" d="m298-145.94c27.45 0 36.37 6.24 59.47 7.7"/><polygon stroke="#000" points="357.61 -141.74 367.5 -137.94 357.4 -134.74"/></g><g class="edge"><title>musicbrainz.artist_credit_name:artist_credit-&gt;musicbrainz.artist_credit:id</title><path fill="none" stroke="#000" d="m298-188.94c28.59 0 236.38 7.81 257-12"/></g><g class="node"><title>musicbrainz.country_area</title><polygon fill="#eee" stroke="transparent" points="334.5 -461.94 334.5 -486.94 455.5 -486.94 455.5 -461.94"/><polygon fill="none" stroke="#000" points="334.5 -461.94 334.5 -486.94 455.5 -486.94 455.5 -461.94"/><text x="337.5" y="-470.34" font-family="Times,serif" font-size="17">country_area</text><polygon fill="#f0976c" stroke="transparent" points="334.5 -440.94 334.5 -461.94 455.5 -461.94 455.5 -440.94"/><polygon fill="none" stroke="#000" points="334.5 -440.94 334.5 -461.94 455.5 -461.94 455.5 -440.94"/><text x="337.5" y="-448.74" font-family="Times,serif" font-size="14" text-decoration="underline">area</text></g><g class="edge"><title>musicbrainz.country_area:area-&gt;musicbrainz.area:id</title><path fill="none" stroke="#000" d="m455-450.94c66.53 0 13.09 123.83 66.96 136.89"/><polygon stroke="#000" points="522.45 -317.51 532 -312.94 521.68 -310.56"/></g><g class="node"><title>musicbrainz.event</title><polygon fill="#eb743b" stroke="transparent" points="535 -761.94 535 -786.94 589 -786.94 589 -761.94"/><polygon fill="none" stroke="#000" points="535 -761.94 535 -786.94 589 -786.94 589 -761.94"/><text x="538" y="-770.34" font-family="Times,serif" font-size="17">event</text><polygon fill="#f0976c" stroke="transparent" points="535 -740.94 535 -761.94 589 -761.94 589 -740.94"/><polygon fill="none" stroke="#000" points="535 -740.94 535 -761.94 589 -761.94 589 -740.94"/><text x="538" y="-748.74" font-family="Times,serif" font-size="14" text-decoration="underline">id</text><polygon fill="#eee" stroke="transparent" points="535 -719.94 535 -740.94 589 -740.94 589 -719.94"/><polygon fill="none" stroke="#000" points="535 -719.94 535 -740.94 589 -740.94 589 -719.94"/><text x="538" y="-726.74" font-family="Times,serif" font-size="14">...</text></g><g class="node"><title>musicbrainz.genre</title><polygon fill="#eb743b" stroke="transparent" points="412.5 -761.94 412.5 -786.94 469.5 -786.94 469.5 -761.94"/><polygon fill="none" stroke="#000" points="412.5 -761.94 412.5 -786.94 469.5 -786.94 469.5 -761.94"/><text x="415.5" y="-770.34" font-family="Times,serif" font-size="17">genre</text><polygon fill="#f0976c" stroke="transparent" points="412.5 -740.94 412.5 -761.94 469.5 -761.94 469.5 -740.94"/><polygon fill="none" stroke="#000" points="412.5 -740.94 412.5 -761.94 469.5 -761.94 469.5 -740.94"/><text x="415.5" y="-748.74" font-family="Times,serif" font-size="14" text-decoration="underline">id</text><polygon fill="#eee" stroke="transparent" points="412.5 -719.94 412.5 -740.94 469.5 -740.94 469.5 -719.94"/><polygon fill="none" stroke="#000" points="412.5 -719.94 412.5 -740.94 469.5 -740.94 469.5 -719.94"/><text x="415.5" y="-726.74" font-family="Times,serif" font-size="14">...</text></g><g class="node"><title>musicbrainz.instrument</title><polygon fill="#eb743b" stroke="transparent" points="637 -761.94 637 -786.94 739 -786.94 739 -761.94"/><polygon fill="none" stroke="#000" points="637 -761.94 637 -786.94 739 -786.94 739 -761.94"/><text x="640" y="-770.34" font-family="Times,serif" font-size="17">instrument</text><polygon fill="#f0976c" stroke="transparent" points="637 -740.94 637 -761.94 739 -761.94 739 -740.94"/><polygon fill="none" stroke="#000" points="637 -740.94 637 -761.94 739 -761.94 739 -740.94"/><text x="640" y="-748.74" font-family="Times,serif" font-size="14" text-decoration="underline">id</text><polygon fill="#eee" stroke="transparent" points="637 -719.94 637 -740.94 739 -740.94 739 -719.94"/><polygon fill="none" stroke="#000" points="637 -719.94 637 -740.94 739 -740.94 739 -719.94"/><text x="640" y="-726.74" font-family="Times,serif" font-size="14">...</text></g><g class="node"><title>musicbrainz.label</title><polygon fill="#eb743b" stroke="transparent" points="370.5 -291.94 370.5 -316.94 419.5 -316.94 419.5 -291.94"/><polygon fill="none" stroke="#000" points="370.5 -291.94 370.5 -316.94 419.5 -316.94 419.5 -291.94"/><text x="373.5" y="-300.34" font-family="Times,serif" font-size="17">label</text><polygon fill="#f0976c" stroke="transparent" points="370.5 -270.94 370.5 -291.94 419.5 -291.94 419.5 -270.94"/><polygon fill="none" stroke="#000" points="370.5 -270.94 370.5 -291.94 419.5 -291.94 419.5 -270.94"/><text x="373.5" y="-278.74" font-family="Times,serif" font-size="14" text-decoration="underline">id</text><polygon fill="#f8d1be" stroke="transparent" points="370.5 -249.94 370.5 -270.94 419.5 -270.94 419.5 -249.94"/><polygon fill="none" stroke="#000" points="370.5 -249.94 370.5 -270.94 419.5 -270.94 419.5 -249.94"/><text x="373.5" y="-256.74" font-family="Times,serif" font-size="14">area</text><polygon fill="#eee" stroke="transparent" points="370.5 -228.94 370.5 -249.94 419.5 -249.94 419.5 -228.94"/><polygon fill="none" stroke="#000" points="370.5 -228.94 370.5 -249.94 419.5 -249.94 419.5 -228.94"/><text x="373.5" y="-235.74" font-family="Times,serif" font-size="14">...</text></g><g class="edge"><title>musicbrainz.label:area-&gt;musicbrainz.area:id</title><path fill="none" stroke="#000" d="m420.5-259.94c51.23 0 56.16-46.19 101.24-52.33"/><polygon stroke="#000" points="521.79 -315.78 532 -312.94 522.25 -308.79"/></g><g class="node"><title>musicbrainz.medium</title><polygon fill="#eee" stroke="transparent" points="176 -589.94 176 -614.94 252 -614.94 252 -589.94"/><polygon fill="none" stroke="#000" points="176 -589.94 176 -614.94 252 -614.94 252 -589.94"/><text x="179" y="-598.34" font-family="Times,serif" font-size="17">medium</text><polygon fill="#f0976c" stroke="transparent" points="176 -568.94 176 -589.94 252 -589.94 252 -568.94"/><polygon fill="none" stroke="#000" points="176 -568.94 176 -589.94 252 -589.94 252 -568.94"/><text x="179" y="-576.74" font-family="Times,serif" font-size="14" text-decoration="underline">id</text><polygon fill="#f8d1be" stroke="transparent" points="176 -547.94 176 -568.94 252 -568.94 252 -547.94"/><polygon fill="none" stroke="#000" points="176 -547.94 176 -568.94 252 -568.94 252 -547.94"/><text x="179" y="-554.74" font-family="Times,serif" font-size="14">release</text><polygon fill="#eee" stroke="transparent" points="176 -526.94 176 -547.94 252 -547.94 252 -526.94"/><polygon fill="none" stroke="#000" points="176 -526.94 176 -547.94 252 -547.94 252 -526.94"/><text x="179" y="-533.74" font-family="Times,serif" font-size="14">...</text></g><g class="node"><title>musicbrainz.release</title><polygon fill="#eb743b" stroke="transparent" points="341.5 -588.94 341.5 -613.94 448.5 -613.94 448.5 -588.94"/><polygon fill="none" stroke="#000" points="341.5 -588.94 341.5 -613.94 448.5 -613.94 448.5 -588.94"/><text x="363.5" y="-597.34" font-family="Times,serif" font-size="17">release</text><polygon fill="#f0976c" stroke="transparent" points="341.5 -567.94 341.5 -588.94 448.5 -588.94 448.5 -567.94"/><polygon fill="none" stroke="#000" points="341.5 -567.94 341.5 -588.94 448.5 -588.94 448.5 -567.94"/><text x="344.5" y="-575.74" font-family="Times,serif" font-size="14" text-decoration="underline">id</text><polygon fill="#f8d1be" stroke="transparent" points="341.5 -546.94 341.5 -567.94 448.5 -567.94 448.5 -546.94"/><polygon fill="none" stroke="#000" points="341.5 -546.94 341.5 -567.94 448.5 -567.94 448.5 -546.94"/><text x="344.5" y="-553.74" font-family="Times,serif" font-size="14">artist_credit</text><polygon fill="#f8d1be" stroke="transparent" points="341.5 -525.94 341.5 -546.94 448.5 -546.94 448.5 -525.94"/><polygon fill="none" stroke="#000" points="341.5 -525.94 341.5 -546.94 448.5 -546.94 448.5 -525.94"/><text x="344.5" y="-532.74" font-family="Times,serif" font-size="14">release_group</text><polygon fill="#eee" stroke="transparent" points="341.5 -504.94 341.5 -525.94 448.5 -525.94 448.5 -504.94"/><polygon fill="none" stroke="#000" points="341.5 -504.94 341.5 -525.94 448.5 -525.94 448.5 -504.94"/><text x="344.5" y="-511.74" font-family="Times,serif" font-size="14">...</text></g><g class="edge"><title>musicbrainz.medium:release-&gt;musicbrainz.release:id</title><path fill="none" stroke="#000" d="m253-557.94c36.4 0 45.89-17.39 77.46-20.52"/><polygon stroke="#000" points="330.34 -581.96 340.5 -578.94 330.68 -574.96"/></g><g class="node"><title>musicbrainz.place</title><polygon fill="#eb743b" stroke="transparent" points="368.5 -397.94 368.5 -422.94 421.5 -422.94 421.5 -397.94"/><polygon fill="none" stroke="#000" points="368.5 -397.94 368.5 -422.94 421.5 -422.94 421.5 -397.94"/><text x="371.5" y="-406.34" font-family="Times,serif" font-size="17">place</text><polygon fill="#f0976c" stroke="transparent" points="368.5 -376.94 368.5 -397.94 421.5 -397.94 421.5 -376.94"/><polygon fill="none" stroke="#000" points="368.5 -376.94 368.5 -397.94 421.5 -397.94 421.5 -376.94"/><text x="371.5" y="-384.74" font-family="Times,serif" font-size="14" text-decoration="underline">id</text><polygon fill="#f8d1be" stroke="transparent" points="368.5 -355.94 368.5 -376.94 421.5 -376.94 421.5 -355.94"/><polygon fill="none" stroke="#000" points="368.5 -355.94 368.5 -376.94 421.5 -376.94 421.5 -355.94"/><text x="371.5" y="-362.74" font-family="Times,serif" font-size="14">area</text><polygon fill="#eee" stroke="transparent" points="368.5 -334.94 368.5 -355.94 421.5 -355.94 421.5 -334.94"/><polygon fill="none" stroke="#000" points="368.5 -334.94 368.5 -355.94 421.5 -355.94 421.5 -334.94"/><text x="371.5" y="-341.74" font-family="Times,serif" font-size="14">...</text></g><g class="edge"><title>musicbrainz.place:area-&gt;musicbrainz.area:id</title><path fill="none" stroke="#000" d="m422.5-365.94c50.48 0 55.02 46.2 99.4 52.33"/><polygon stroke="#000" points="522.25 -317.09 532 -312.94 521.79 -310.1"/></g><g class="node"><title>musicbrainz.recording</title><polygon fill="#eb743b" stroke="transparent" points="509 -650.94 509 -675.94 603 -675.94 603 -650.94"/><polygon fill="none" stroke="#000" points="509 -650.94 509 -675.94 603 -675.94 603 -650.94"/><text x="513" y="-659.34" font-family="Times,serif" font-size="17">recording</text><polygon fill="#f0976c" stroke="transparent" points="509 -629.94 509 -650.94 603 -650.94 603 -629.94"/><polygon fill="none" stroke="#000" points="509 -629.94 509 -650.94 603 -650.94 603 -629.94"/><text x="512" y="-637.74" font-family="Times,serif" font-size="14" text-decoration="underline">id</text><polygon fill="#f8d1be" stroke="transparent" points="509 -608.94 509 -629.94 603 -629.94 603 -608.94"/><polygon fill="none" stroke="#000" points="509 -608.94 509 -629.94 603 -629.94 603 -608.94"/><text x="512" y="-615.74" font-family="Times,serif" font-size="14">artist_credit</text><polygon fill="#eee" stroke="transparent" points="509 -587.94 509 -608.94 603 -608.94 603 -587.94"/><polygon fill="none" stroke="#000" points="509 -587.94 509 -608.94 603 -608.94 603 -587.94"/><text x="512" y="-594.74" font-family="Times,serif" font-size="14">...</text></g><g class="edge"><title>musicbrainz.recording:artist_credit-&gt;musicbrainz.artist_credit:id</title><path fill="none" stroke="#000" d="m604-618.94c48.03 0 12.986 81.561 43.191 102.01"/><polygon stroke="#000" points="647.7 -520.01 657 -514.94 646.56 -513.1"/></g><g class="edge"><title>musicbrainz.release:artist_credit-&gt;musicbrainz.artist_credit:id</title><path fill="none" stroke="#000" d="m449.5-556.94c151.27 0 170.23 17.8 197.49 40.206"/><polygon stroke="#000" points="647.94 -520.42 657 -514.94 646.49 -513.57"/></g><g class="node"><title>musicbrainz.release_group</title><polygon fill="#eb743b" stroke="transparent" points="491 -504.94 491 -529.94 621 -529.94 621 -504.94"/><polygon fill="none" stroke="#000" points="491 -504.94 491 -529.94 621 -529.94 621 -504.94"/><text x="494" y="-513.34" font-family="Times,serif" font-size="17">release_group</text><polygon fill="#f0976c" stroke="transparent" points="491 -483.94 491 -504.94 621 -504.94 621 -483.94"/><polygon fill="none" stroke="#000" points="491 -483.94 491 -504.94 621 -504.94 621 -483.94"/><text x="494" y="-491.74" font-family="Times,serif" font-size="14" text-decoration="underline">id</text><polygon fill="#f8d1be" stroke="transparent" points="491 -462.94 491 -483.94 621 -483.94 621 -462.94"/><polygon fill="none" stroke="#000" points="491 -462.94 491 -483.94 621 -483.94 621 -462.94"/><text x="494" y="-469.74" font-family="Times,serif" font-size="14">artist_credit</text><polygon fill="#eee" stroke="transparent" points="491 -441.94 491 -462.94 621 -462.94 621 -441.94"/><polygon fill="none" stroke="#000" points="491 -441.94 491 -462.94 621 -462.94 621 -441.94"/><text x="494" y="-448.74" font-family="Times,serif" font-size="14">...</text></g><g class="edge"><title>musicbrainz.release:release_group-&gt;musicbrainz.release_group:id</title><path fill="none" stroke="#000" d="m449.5-535.94c21.88 0 17.92 29.19 31.73 38.31"/><polygon stroke="#000" points="482.29 -500.96 491 -494.94 480.43 -494.21"/></g><g class="node"><title>musicbrainz.release_country</title><polygon fill="#eee" stroke="transparent" points="142 -482.94 142 -507.94 287 -507.94 287 -482.94"/><polygon fill="none" stroke="#000" points="142 -482.94 142 -507.94 287 -507.94 287 -482.94"/><text x="145" y="-491.34" font-family="Times,serif" font-size="17">release_country</text><polygon fill="#f0976c" stroke="transparent" points="142 -461.94 142 -482.94 287 -482.94 287 -461.94"/><polygon fill="none" stroke="#000" points="142 -461.94 142 -482.94 287 -482.94 287 -461.94"/><text x="145" y="-469.74" font-family="Times,serif" font-size="14" text-decoration="underline">release</text><polygon fill="#f0976c" stroke="transparent" points="142 -440.94 142 -461.94 287 -461.94 287 -440.94"/><polygon fill="none" stroke="#000" points="142 -440.94 142 -461.94 287 -461.94 287 -440.94"/><text x="145" y="-448.74" font-family="Times,serif" font-size="14" text-decoration="underline">country</text><polygon fill="#eee" stroke="transparent" points="142 -419.94 142 -440.94 287 -440.94 287 -419.94"/><polygon fill="none" stroke="#000" points="142 -419.94 142 -440.94 287 -440.94 287 -419.94"/><text x="145" y="-426.74" font-family="Times,serif" font-size="14">...</text></g><g class="edge"><title>musicbrainz.release_country:country-&gt;musicbrainz.country_area:area</title><path fill="none" stroke="#000" d="m288-450.94h35.92"/><polygon stroke="#000" points="324 -454.44 334 -450.94 324 -447.44"/></g><g class="edge"><title>musicbrainz.release_country:release-&gt;musicbrainz.release:id</title><path fill="none" stroke="#000" d="m288-472.94c21.43 0 9.0746-91.572 42.45-104.33"/><polygon stroke="#000" points="330.06 -580.75 340.5 -578.94 331.21 -573.85"/></g><g class="edge"><title>musicbrainz.release_group:artist_credit-&gt;musicbrainz.artist_credit:id</title><path fill="none" stroke="#000" d="m621-472.94c10.821 0 6.6741-31.222 25.863-39.379"/><polygon stroke="#000" points="646.41 -515.04 657 -514.94 648.65 -508.41"/></g><g class="node"><title>musicbrainz.release_label</title><polygon fill="#eee" stroke="transparent" points="155 -354.94 155 -379.94 274 -379.94 274 -354.94"/><polygon fill="none" stroke="#000" points="155 -354.94 155 -379.94 274 -379.94 274 -354.94"/><text x="158" y="-363.34" font-family="Times,serif" font-size="17">release_label</text><polygon fill="#f0976c" stroke="transparent" points="155 -333.94 155 -354.94 274 -354.94 274 -333.94"/><polygon fill="none" stroke="#000" points="155 -333.94 155 -354.94 274 -354.94 274 -333.94"/><text x="158" y="-341.74" font-family="Times,serif" font-size="14" text-decoration="underline">id</text><polygon fill="#f8d1be" stroke="transparent" points="155 -312.94 155 -333.94 274 -333.94 274 -312.94"/><polygon fill="none" stroke="#000" points="155 -312.94 155 -333.94 274 -333.94 274 -312.94"/><text x="158" y="-319.74" font-family="Times,serif" font-size="14">release</text><polygon fill="#f8d1be" stroke="transparent" points="155 -291.94 155 -312.94 274 -312.94 274 -291.94"/><polygon fill="none" stroke="#000" points="155 -291.94 155 -312.94 274 -312.94 274 -291.94"/><text x="158" y="-298.74" font-family="Times,serif" font-size="14">label</text><polygon fill="#eee" stroke="transparent" points="155 -270.94 155 -291.94 274 -291.94 274 -270.94"/><polygon fill="none" stroke="#000" points="155 -270.94 155 -291.94 274 -291.94 274 -270.94"/><text x="158" y="-277.74" font-family="Times,serif" font-size="14">...</text></g><g class="edge"><title>musicbrainz.release_label:label-&gt;musicbrainz.label:id</title><path fill="none" stroke="#000" d="m275-301.94c39.24 0 49.83 16.71 84.15 19.59"/><polygon stroke="#000" points="359.65 -285.84 369.5 -281.94 359.37 -278.84"/></g><g class="edge"><title>musicbrainz.release_label:release-&gt;musicbrainz.release:id</title><path fill="none" stroke="#000" d="m275-322.94c55.05 0 12.84-225 55.73-253.12"/><polygon stroke="#000" points="329.92 -579.47 340.5 -578.94 331.9 -572.75"/></g><g class="node"><title>musicbrainz.series</title><polygon fill="#eb743b" stroke="transparent" points="291 -761.94 291 -786.94 349 -786.94 349 -761.94"/><polygon fill="none" stroke="#000" points="291 -761.94 291 -786.94 349 -786.94 349 -761.94"/><text x="294" y="-770.34" font-family="Times,serif" font-size="17">series</text><polygon fill="#f0976c" stroke="transparent" points="291 -740.94 291 -761.94 349 -761.94 349 -740.94"/><polygon fill="none" stroke="#000" points="291 -740.94 291 -761.94 349 -761.94 349 -740.94"/><text x="294" y="-748.74" font-family="Times,serif" font-size="14" text-decoration="underline">id</text><polygon fill="#eee" stroke="transparent" points="291 -719.94 291 -740.94 349 -740.94 349 -719.94"/><polygon fill="none" stroke="#000" points="291 -719.94 291 -740.94 349 -740.94 349 -719.94"/><text x="294" y="-726.74" font-family="Times,serif" font-size="14">...</text></g><g class="node"><title>musicbrainz.track</title><polygon fill="#eee" stroke="transparent" points="0 -632.94 0 -657.94 94 -657.94 94 -632.94"/><polygon fill="none" stroke="#000" points="0 -632.94 0 -657.94 94 -657.94 94 -632.94"/><text x="24" y="-641.34" font-family="Times,serif" font-size="17">track</text><polygon fill="#f0976c" stroke="transparent" points="0 -611.94 0 -632.94 94 -632.94 94 -611.94"/><polygon fill="none" stroke="#000" points="0 -611.94 0 -632.94 94 -632.94 94 -611.94"/><text x="3" y="-619.74" font-family="Times,serif" font-size="14" text-decoration="underline">id</text><polygon fill="#f8d1be" stroke="transparent" points="0 -590.94 0 -611.94 94 -611.94 94 -590.94"/><polygon fill="none" stroke="#000" points="0 -590.94 0 -611.94 94 -611.94 94 -590.94"/><text x="3" y="-597.74" font-family="Times,serif" font-size="14">recording</text><polygon fill="#f8d1be" stroke="transparent" points="0 -569.94 0 -590.94 94 -590.94 94 -569.94"/><polygon fill="none" stroke="#000" points="0 -569.94 0 -590.94 94 -590.94 94 -569.94"/><text x="3" y="-576.74" font-family="Times,serif" font-size="14">medium</text><polygon fill="#f8d1be" stroke="transparent" points="0 -548.94 0 -569.94 94 -569.94 94 -548.94"/><polygon fill="none" stroke="#000" points="0 -548.94 0 -569.94 94 -569.94 94 -548.94"/><text x="3" y="-555.74" font-family="Times,serif" font-size="14">artist_credit</text><polygon fill="#eee" stroke="transparent" points="0 -527.94 0 -548.94 94 -548.94 94 -527.94"/><polygon fill="none" stroke="#000" points="0 -527.94 0 -548.94 94 -548.94 94 -527.94"/><text x="3" y="-534.74" font-family="Times,serif" font-size="14">...</text></g><g class="edge"><title>musicbrainz.track:artist_credit-&gt;musicbrainz.artist_credit:id</title><path fill="none" stroke="#000" d="m555-200.94c30.39-30.16 47.872-33.212 66.002-72.002 21.36-45.7-12.124-214.38 26.276-238.55"/><polygon stroke="#000" points="646.1 -515.53 656.68 -514.93 648.04 -508.81"/><path fill="none" stroke="#000" d="m94-558.94c50.49 0 1.51 416.13 36 453 99.09 105.94 194.26 92.84 325 30 64.12-30.81 49.51-74.87 100-125"/></g><g class="edge"><title>musicbrainz.track:medium-&gt;musicbrainz.medium:id</title><path fill="none" stroke="#000" d="m94-579.94h70.81"/><polygon stroke="#000" points="165 -583.44 175 -579.94 165 -576.44"/></g><g class="edge"><title>musicbrainz.track:recording-&gt;musicbrainz.recording:id</title><path fill="none" stroke="#000" d="m94-601.94c34.544 0 58.48-13.976 76.012-20.627 41.976-15.902 167.76-19.653 327.79-18.413"/><polygon stroke="#000" points="498.01 -644.47 508 -640.94 497.99 -637.47"/></g><g class="node"><title>musicbrainz.url</title><polygon fill="#eb743b" stroke="transparent" points="108.5 -761.94 108.5 -786.94 139.5 -786.94 139.5 -761.94"/><polygon fill="none" stroke="#000" points="108.5 -761.94 108.5 -786.94 139.5 -786.94 139.5 -761.94"/><text x="111.5" y="-770.34" font-family="Times,serif" font-size="17">url</text><polygon fill="#f0976c" stroke="transparent" points="108.5 -740.94 108.5 -761.94 139.5 -761.94 139.5 -740.94"/><polygon fill="none" stroke="#000" points="108.5 -740.94 108.5 -761.94 139.5 -761.94 139.5 -740.94"/><text x="111.5" y="-748.74" font-family="Times,serif" font-size="14" text-decoration="underline">id</text><polygon fill="#eee" stroke="transparent" points="108.5 -719.94 108.5 -740.94 139.5 -740.94 139.5 -719.94"/><polygon fill="none" stroke="#000" points="108.5 -719.94 108.5 -740.94 139.5 -740.94 139.5 -719.94"/><text x="111.5" y="-726.74" font-family="Times,serif" font-size="14">...</text></g><g class="node"><title>musicbrainz.work</title><polygon fill="#eb743b" stroke="transparent" points="179 -761.94 179 -786.94 229 -786.94 229 -761.94"/><polygon fill="none" stroke="#000" points="179 -761.94 179 -786.94 229 -786.94 229 -761.94"/><text x="182" y="-770.34" font-family="Times,serif" font-size="17">work</text><polygon fill="#f0976c" stroke="transparent" points="179 -740.94 179 -761.94 229 -761.94 229 -740.94"/><polygon fill="none" stroke="#000" points="179 -740.94 179 -761.94 229 -761.94 229 -740.94"/><text x="182" y="-748.74" font-family="Times,serif" font-size="14" text-decoration="underline">id</text><polygon fill="#eee" stroke="transparent" points="179 -719.94 179 -740.94 229 -740.94 229 -719.94"/><polygon fill="none" stroke="#000" points="179 -719.94 179 -740.94 229 -740.94 229 -719.94"/><text x="182" y="-726.74" font-family="Times,serif" font-size="14">...</text></g></g></svg>