<svg xmlns="http://www.w3.org/2000/svg" xmlns:xlink="http://www.w3.org/1999/xlink" width="660" height="836pt" version="1.1" viewBox="0 0 495 835.5"><g class="graph" transform="scale(1) translate(4 831.5)"><title>event_entity_details</title><a xlink:title="Tables for the “event” entity type properties"><polygon fill="#e8c2da" stroke="transparent" points="-4 4 -4 -831.5 491 -831.5 491 4"/></a><g class="node"><title>musicbrainz.annotation</title><polygon fill="#eee" stroke="transparent" points="227 -781 227 -806 328 -806 328 -781"/><polygon fill="none" stroke="#000" points="227 -781 227 -806 328 -806 328 -781"/><text x="230" y="-789.4" font-family="Times,serif" font-size="17">annotation</text><polygon fill="#f0976c" stroke="transparent" points="227 -760 227 -781 328 -781 328 -760"/><polygon fill="none" stroke="#000" points="227 -760 227 -781 328 -781 328 -760"/><text x="230" y="-767.8" font-family="Times,serif" font-size="14" text-decoration="underline">id</text><polygon fill="#eee" stroke="transparent" points="227 -739 227 -760 328 -760 328 -739"/><polygon fill="none" stroke="#000" points="227 -739 227 -760 328 -760 328 -739"/><text x="230" y="-745.8" font-family="Times,serif" font-size="14">editor</text><polygon fill="#eee" stroke="transparent" points="227 -718 227 -739 328 -739 328 -718"/><polygon fill="none" stroke="#000" points="227 -718 227 -739 328 -739 328 -718"/><text x="230" y="-724.8" font-family="Times,serif" font-size="14">text</text><polygon fill="#eee" stroke="transparent" points="227 -697 227 -718 328 -718 328 -697"/><polygon fill="none" stroke="#000" points="227 -697 227 -718 328 -718 328 -697"/><text x="230" y="-703.8" font-family="Times,serif" font-size="14">changelog</text><polygon fill="#eee" stroke="transparent" points="227 -676 227 -697 328 -697 328 -676"/><polygon fill="none" stroke="#000" points="227 -676 227 -697 328 -697 328 -676"/><text x="230" y="-682.8" font-family="Times,serif" font-size="14">created</text></g><g class="node"><title>musicbrainz.event</title><polygon fill="#eb743b" stroke="transparent" points="209 -633 209 -658 346 -658 346 -633"/><polygon fill="none" stroke="#000" points="209 -633 209 -658 346 -658 346 -633"/><text x="253.5" y="-641.4" font-family="Times,serif" font-size="17">event</text><polygon fill="#f0976c" stroke="transparent" points="209 -612 209 -633 346 -633 346 -612"/><polygon fill="none" stroke="#000" points="209 -612 209 -633 346 -633 346 -612"/><text x="212" y="-619.8" font-family="Times,serif" font-size="14" text-decoration="underline">id</text><polygon fill="#eee" stroke="transparent" points="209 -591 209 -612 346 -612 346 -591"/><polygon fill="none" stroke="#000" points="209 -591 209 -612 346 -612 346 -591"/><text x="212" y="-597.8" font-family="Times,serif" font-size="14">gid</text><polygon fill="#eee" stroke="transparent" points="209 -570 209 -591 346 -591 346 -570"/><polygon fill="none" stroke="#000" points="209 -570 209 -591 346 -591 346 -570"/><text x="212" y="-576.8" font-family="Times,serif" font-size="14">name</text><polygon fill="#eee" stroke="transparent" points="209 -549 209 -570 346 -570 346 -549"/><polygon fill="none" stroke="#000" points="209 -549 209 -570 346 -570 346 -549"/><text x="212" y="-555.8" font-family="Times,serif" font-size="14">begin_date_year</text><polygon fill="#eee" stroke="transparent" points="209 -528 209 -549 346 -549 346 -528"/><polygon fill="none" stroke="#000" points="209 -528 209 -549 346 -549 346 -528"/><text x="212" y="-534.8" font-family="Times,serif" font-size="14">begin_date_month</text><polygon fill="#eee" stroke="transparent" points="209 -507 209 -528 346 -528 346 -507"/><polygon fill="none" stroke="#000" points="209 -507 209 -528 346 -528 346 -507"/><text x="212" y="-513.8" font-family="Times,serif" font-size="14">begin_date_day</text><polygon fill="#eee" stroke="transparent" points="209 -486 209 -507 346 -507 346 -486"/><polygon fill="none" stroke="#000" points="209 -486 209 -507 346 -507 346 -486"/><text x="212" y="-492.8" font-family="Times,serif" font-size="14">end_date_year</text><polygon fill="#eee" stroke="transparent" points="209 -465 209 -486 346 -486 346 -465"/><polygon fill="none" stroke="#000" points="209 -465 209 -486 346 -486 346 -465"/><text x="212" y="-471.8" font-family="Times,serif" font-size="14">end_date_month</text><polygon fill="#eee" stroke="transparent" points="209 -444 209 -465 346 -465 346 -444"/><polygon fill="none" stroke="#000" points="209 -444 209 -465 346 -465 346 -444"/><text x="212" y="-450.8" font-family="Times,serif" font-size="14">end_date_day</text><polygon fill="#eee" stroke="transparent" points="209 -423 209 -444 346 -444 346 -423"/><polygon fill="none" stroke="#000" points="209 -423 209 -444 346 -444 346 -423"/><text x="212" y="-429.8" font-family="Times,serif" font-size="14">time</text><polygon fill="#f8d1be" stroke="transparent" points="209 -402 209 -423 346 -423 346 -402"/><polygon fill="none" stroke="#000" points="209 -402 209 -423 346 -423 346 -402"/><text x="212" y="-408.8" font-family="Times,serif" font-size="14">type</text><polygon fill="#eee" stroke="transparent" points="209 -381 209 -402 346 -402 346 -381"/><polygon fill="none" stroke="#000" points="209 -381 209 -402 346 -402 346 -381"/><text x="212" y="-387.8" font-family="Times,serif" font-size="14">cancelled</text><polygon fill="#eee" stroke="transparent" points="209 -360 209 -381 346 -381 346 -360"/><polygon fill="none" stroke="#000" points="209 -360 209 -381 346 -381 346 -360"/><text x="212" y="-366.8" font-family="Times,serif" font-size="14">setlist</text><polygon fill="#eee" stroke="transparent" points="209 -339 209 -360 346 -360 346 -339"/><polygon fill="none" stroke="#000" points="209 -339 209 -360 346 -360 346 -339"/><text x="212" y="-345.8" font-family="Times,serif" font-size="14">comment</text><polygon fill="#eee" stroke="transparent" points="209 -318 209 -339 346 -339 346 -318"/><polygon fill="none" stroke="#000" points="209 -318 209 -339 346 -339 346 -318"/><text x="212" y="-324.8" font-family="Times,serif" font-size="14">edits_pending</text><polygon fill="#eee" stroke="transparent" points="209 -297 209 -318 346 -318 346 -297"/><polygon fill="none" stroke="#000" points="209 -297 209 -318 346 -318 346 -297"/><text x="212" y="-303.8" font-family="Times,serif" font-size="14">last_updated</text><polygon fill="#eee" stroke="transparent" points="209 -276 209 -297 346 -297 346 -276"/><polygon fill="none" stroke="#000" points="209 -276 209 -297 346 -297 346 -276"/><text x="212" y="-282.8" font-family="Times,serif" font-size="14">ended</text></g><g class="node"><title>musicbrainz.event_type</title><polygon fill="#eee" stroke="transparent" points="387 -422 387 -447 487 -447 487 -422"/><polygon fill="none" stroke="#000" points="387 -422 387 -447 487 -447 487 -422"/><text x="390" y="-430.4" font-family="Times,serif" font-size="17">event_type</text><polygon fill="#f0976c" stroke="transparent" points="387 -401 387 -422 487 -422 487 -401"/><polygon fill="none" stroke="#000" points="387 -401 387 -422 487 -422 487 -401"/><text x="390" y="-408.8" font-family="Times,serif" font-size="14" text-decoration="underline">id</text><polygon fill="#eee" stroke="transparent" points="387 -380 387 -401 487 -401 487 -380"/><polygon fill="none" stroke="#000" points="387 -380 387 -401 487 -401 487 -380"/><text x="390" y="-386.8" font-family="Times,serif" font-size="14">name</text><polygon fill="#f8d1be" stroke="transparent" points="387 -359 387 -380 487 -380 487 -359"/><polygon fill="none" stroke="#000" points="387 -359 387 -380 487 -380 487 -359"/><text x="390" y="-365.8" font-family="Times,serif" font-size="14">parent</text><polygon fill="#eee" stroke="transparent" points="387 -338 387 -359 487 -359 487 -338"/><polygon fill="none" stroke="#000" points="387 -338 387 -359 487 -359 487 -338"/><text x="390" y="-344.8" font-family="Times,serif" font-size="14">child_order</text><polygon fill="#eee" stroke="transparent" points="387 -317 387 -338 487 -338 487 -317"/><polygon fill="none" stroke="#000" points="387 -317 387 -338 487 -338 487 -317"/><text x="390" y="-323.8" font-family="Times,serif" font-size="14">description</text><polygon fill="#eee" stroke="transparent" points="387 -296 387 -317 487 -317 487 -296"/><polygon fill="none" stroke="#000" points="387 -296 387 -317 487 -317 487 -296"/><text x="390" y="-302.8" font-family="Times,serif" font-size="14">gid</text></g><g class="edge"><title>musicbrainz.event:type-&gt;musicbrainz.event_type:id</title><path fill="none" stroke="#000" d="m347-412h29.97"/><polygon stroke="#000" points="377 -415.5 387 -412 377 -408.5"/></g><g class="node"><title>musicbrainz.event_alias</title><polygon fill="#eee" stroke="transparent" points="14.5 -476 14.5 -501 153.5 -501 153.5 -476"/><polygon fill="none" stroke="#000" points="14.5 -476 14.5 -501 153.5 -501 153.5 -476"/><text x="35.5" y="-484.4" font-family="Times,serif" font-size="17">event_alias</text><polygon fill="#f0976c" stroke="transparent" points="14.5 -455 14.5 -476 153.5 -476 153.5 -455"/><polygon fill="none" stroke="#000" points="14.5 -455 14.5 -476 153.5 -476 153.5 -455"/><text x="17.5" y="-462.8" font-family="Times,serif" font-size="14" text-decoration="underline">id</text><polygon fill="#f8d1be" stroke="transparent" points="14.5 -434 14.5 -455 153.5 -455 153.5 -434"/><polygon fill="none" stroke="#000" points="14.5 -434 14.5 -455 153.5 -455 153.5 -434"/><text x="17.5" y="-440.8" font-family="Times,serif" font-size="14">event</text><polygon fill="#eee" stroke="transparent" points="14.5 -413 14.5 -434 153.5 -434 153.5 -413"/><polygon fill="none" stroke="#000" points="14.5 -413 14.5 -434 153.5 -434 153.5 -413"/><text x="17.5" y="-419.8" font-family="Times,serif" font-size="14">name</text><polygon fill="#eee" stroke="transparent" points="14.5 -392 14.5 -413 153.5 -413 153.5 -392"/><polygon fill="none" stroke="#000" points="14.5 -392 14.5 -413 153.5 -413 153.5 -392"/><text x="17.5" y="-398.8" font-family="Times,serif" font-size="14">locale</text><polygon fill="#eee" stroke="transparent" points="14.5 -371 14.5 -392 153.5 -392 153.5 -371"/><polygon fill="none" stroke="#000" points="14.5 -371 14.5 -392 153.5 -392 153.5 -371"/><text x="17.5" y="-377.8" font-family="Times,serif" font-size="14">edits_pending</text><polygon fill="#eee" stroke="transparent" points="14.5 -350 14.5 -371 153.5 -371 153.5 -350"/><polygon fill="none" stroke="#000" points="14.5 -350 14.5 -371 153.5 -371 153.5 -350"/><text x="17.5" y="-356.8" font-family="Times,serif" font-size="14">last_updated</text><polygon fill="#f8d1be" stroke="transparent" points="14.5 -329 14.5 -350 153.5 -350 153.5 -329"/><polygon fill="none" stroke="#000" points="14.5 -329 14.5 -350 153.5 -350 153.5 -329"/><text x="17.5" y="-335.8" font-family="Times,serif" font-size="14">type</text><polygon fill="#eee" stroke="transparent" points="14.5 -308 14.5 -329 153.5 -329 153.5 -308"/><polygon fill="none" stroke="#000" points="14.5 -308 14.5 -329 153.5 -329 153.5 -308"/><text x="17.5" y="-314.8" font-family="Times,serif" font-size="14">sort_name</text><polygon fill="#eee" stroke="transparent" points="14.5 -287 14.5 -308 153.5 -308 153.5 -287"/><polygon fill="none" stroke="#000" points="14.5 -287 14.5 -308 153.5 -308 153.5 -287"/><text x="17.5" y="-293.8" font-family="Times,serif" font-size="14">begin_date_year</text><polygon fill="#eee" stroke="transparent" points="14.5 -266 14.5 -287 153.5 -287 153.5 -266"/><polygon fill="none" stroke="#000" points="14.5 -266 14.5 -287 153.5 -287 153.5 -266"/><text x="17.5" y="-272.8" font-family="Times,serif" font-size="14">begin_date_month</text><polygon fill="#eee" stroke="transparent" points="14.5 -245 14.5 -266 153.5 -266 153.5 -245"/><polygon fill="none" stroke="#000" points="14.5 -245 14.5 -266 153.5 -266 153.5 -245"/><text x="17.5" y="-251.8" font-family="Times,serif" font-size="14">begin_date_day</text><polygon fill="#eee" stroke="transparent" points="14.5 -224 14.5 -245 153.5 -245 153.5 -224"/><polygon fill="none" stroke="#000" points="14.5 -224 14.5 -245 153.5 -245 153.5 -224"/><text x="17.5" y="-230.8" font-family="Times,serif" font-size="14">end_date_year</text><polygon fill="#eee" stroke="transparent" points="14.5 -203 14.5 -224 153.5 -224 153.5 -203"/><polygon fill="none" stroke="#000" points="14.5 -203 14.5 -224 153.5 -224 153.5 -203"/><text x="17.5" y="-209.8" font-family="Times,serif" font-size="14">end_date_month</text><polygon fill="#eee" stroke="transparent" points="14.5 -182 14.5 -203 153.5 -203 153.5 -182"/><polygon fill="none" stroke="#000" points="14.5 -182 14.5 -203 153.5 -203 153.5 -182"/><text x="17.5" y="-188.8" font-family="Times,serif" font-size="14">end_date_day</text><polygon fill="#eee" stroke="transparent" points="14.5 -161 14.5 -182 153.5 -182 153.5 -161"/><polygon fill="none" stroke="#000" points="14.5 -161 14.5 -182 153.5 -182 153.5 -161"/><text x="17.5" y="-167.8" font-family="Times,serif" font-size="14">primary_for_locale</text><polygon fill="#eee" stroke="transparent" points="14.5 -140 14.5 -161 153.5 -161 153.5 -140"/><polygon fill="none" stroke="#000" points="14.5 -140 14.5 -161 153.5 -161 153.5 -140"/><text x="17.5" y="-146.8" font-family="Times,serif" font-size="14">ended</text></g><g class="edge"><title>musicbrainz.event_alias:event-&gt;musicbrainz.event:id</title><path fill="none" stroke="#000" d="m154.5-445c27.566 0 14.708-167.07 44.866-175.15"/><polygon stroke="#000" points="197.69 -625.44 208 -623 198.42 -618.48"/></g><g class="node"><title>musicbrainz.event_alias_type</title><polygon fill="#eee" stroke="transparent" points="203 -232 203 -257 351 -257 351 -232"/><polygon fill="none" stroke="#000" points="203 -232 203 -257 351 -257 351 -232"/><text x="206" y="-240.4" font-family="Times,serif" font-size="17">event_alias_type</text><polygon fill="#f0976c" stroke="transparent" points="203 -211 203 -232 351 -232 351 -211"/><polygon fill="none" stroke="#000" points="203 -211 203 -232 351 -232 351 -211"/><text x="206" y="-218.8" font-family="Times,serif" font-size="14" text-decoration="underline">id</text><polygon fill="#eee" stroke="transparent" points="203 -190 203 -211 351 -211 351 -190"/><polygon fill="none" stroke="#000" points="203 -190 203 -211 351 -211 351 -190"/><text x="206" y="-196.8" font-family="Times,serif" font-size="14">name</text><polygon fill="#f8d1be" stroke="transparent" points="203 -169 203 -190 351 -190 351 -169"/><polygon fill="none" stroke="#000" points="203 -169 203 -190 351 -190 351 -169"/><text x="206" y="-175.8" font-family="Times,serif" font-size="14">parent</text><polygon fill="#eee" stroke="transparent" points="203 -148 203 -169 351 -169 351 -148"/><polygon fill="none" stroke="#000" points="203 -148 203 -169 351 -169 351 -148"/><text x="206" y="-154.8" font-family="Times,serif" font-size="14">child_order</text><polygon fill="#eee" stroke="transparent" points="203 -127 203 -148 351 -148 351 -127"/><polygon fill="none" stroke="#000" points="203 -127 203 -148 351 -148 351 -127"/><text x="206" y="-133.8" font-family="Times,serif" font-size="14">description</text><polygon fill="#eee" stroke="transparent" points="203 -106 203 -127 351 -127 351 -106"/><polygon fill="none" stroke="#000" points="203 -106 203 -127 351 -127 351 -106"/><text x="206" y="-112.8" font-family="Times,serif" font-size="14">gid</text></g><g class="edge"><title>musicbrainz.event_alias:type-&gt;musicbrainz.event_alias_type:id</title><path fill="none" stroke="#000" d="m154.5-340c52.71 0 0.32 101.99 38.26 116.33"/><polygon stroke="#000" points="193.69 -227.06 203 -222 192.57 -220.15"/></g><g class="node"><title>musicbrainz.event_annotation</title><polygon fill="#eee" stroke="transparent" points="5.5 -802 5.5 -827 162.5 -827 162.5 -802"/><polygon fill="none" stroke="#000" points="5.5 -802 5.5 -827 162.5 -827 162.5 -802"/><text x="8.5" y="-810.4" font-family="Times,serif" font-size="17">event_annotation</text><polygon fill="#f0976c" stroke="transparent" points="5.5 -781 5.5 -802 162.5 -802 162.5 -781"/><polygon fill="none" stroke="#000" points="5.5 -781 5.5 -802 162.5 -802 162.5 -781"/><text x="8.5" y="-788.8" font-family="Times,serif" font-size="14" text-decoration="underline">event</text><polygon fill="#f0976c" stroke="transparent" points="5.5 -760 5.5 -781 162.5 -781 162.5 -760"/><polygon fill="none" stroke="#000" points="5.5 -760 5.5 -781 162.5 -781 162.5 -760"/><text x="8.5" y="-767.8" font-family="Times,serif" font-size="14" text-decoration="underline">annotation</text></g><g class="edge"><title>musicbrainz.event_annotation:annotation-&gt;musicbrainz.annotation:id</title><path fill="none" stroke="#000" d="m163.5-770c24.09 0 32.51-0.75 52.44-0.95"/><polygon stroke="#000" points="215.98 -774.45 226 -771 216.02 -767.45"/></g><g class="edge"><title>musicbrainz.event_annotation:event-&gt;musicbrainz.event:id</title><path fill="none" stroke="#000" d="m163.5-791c64.126 0-8.0037 154.38 34.791 165.54"/><polygon stroke="#000" points="198.47 -627.63 208 -623 197.66 -620.68"/></g><g class="node"><title>musicbrainz.event_gid_redirect</title><polygon fill="#eee" stroke="transparent" points=".5 -587 .5 -612 167.5 -612 167.5 -587"/><polygon fill="none" stroke="#000" points=".5 -587 .5 -612 167.5 -612 167.5 -587"/><text x="3.5" y="-595.4" font-family="Times,serif" font-size="17">event_gid_redirect</text><polygon fill="#f0976c" stroke="transparent" points=".5 -566 .5 -587 167.5 -587 167.5 -566"/><polygon fill="none" stroke="#000" points=".5 -566 .5 -587 167.5 -587 167.5 -566"/><text x="3.5" y="-573.8" font-family="Times,serif" font-size="14" text-decoration="underline">gid</text><polygon fill="#f8d1be" stroke="transparent" points=".5 -545 .5 -566 167.5 -566 167.5 -545"/><polygon fill="none" stroke="#000" points=".5 -545 .5 -566 167.5 -566 167.5 -545"/><text x="3.5" y="-551.8" font-family="Times,serif" font-size="14">new_id</text><polygon fill="#eee" stroke="transparent" points=".5 -524 .5 -545 167.5 -545 167.5 -524"/><polygon fill="none" stroke="#000" points=".5 -524 .5 -545 167.5 -545 167.5 -524"/><text x="3.5" y="-530.8" font-family="Times,serif" font-size="14">created</text></g><g class="edge"><title>musicbrainz.event_gid_redirect:new_id-&gt;musicbrainz.event:id</title><path fill="none" stroke="#000" d="m167-555c17.509-17.509 6.6826-53.376 31.245-67.557"/><polygon stroke="#000" points="197.44 -623.87 208 -623 199.2 -617.1"/></g><g class="node"><title>musicbrainz.event_meta</title><polygon fill="#eee" stroke="transparent" points="11.5 -714 11.5 -739 156.5 -739 156.5 -714"/><polygon fill="none" stroke="#000" points="11.5 -714 11.5 -739 156.5 -739 156.5 -714"/><text x="34.5" y="-722.4" font-family="Times,serif" font-size="17">event_meta</text><polygon fill="#f0976c" stroke="transparent" points="11.5 -693 11.5 -714 156.5 -714 156.5 -693"/><polygon fill="none" stroke="#000" points="11.5 -693 11.5 -714 156.5 -714 156.5 -693"/><text x="14.5" y="-700.8" font-family="Times,serif" font-size="14" text-decoration="underline">id</text><polygon fill="#eee" stroke="transparent" points="11.5 -672 11.5 -693 156.5 -693 156.5 -672"/><polygon fill="none" stroke="#000" points="11.5 -672 11.5 -693 156.5 -693 156.5 -672"/><text x="14.5" y="-678.8" font-family="Times,serif" font-size="14">rating</text><polygon fill="#eee" stroke="transparent" points="11.5 -651 11.5 -672 156.5 -672 156.5 -651"/><polygon fill="none" stroke="#000" points="11.5 -651 11.5 -672 156.5 -672 156.5 -651"/><text x="14.5" y="-657.8" font-family="Times,serif" font-size="14">rating_count</text><polygon fill="#eee" stroke="transparent" points="11.5 -630 11.5 -651 156.5 -651 156.5 -630"/><polygon fill="none" stroke="#000" points="11.5 -630 11.5 -651 156.5 -651 156.5 -630"/><text x="14.5" y="-636.8" font-family="Times,serif" font-size="14">event_art_presence</text></g><g class="edge"><title>musicbrainz.event_meta:id-&gt;musicbrainz.event:id</title><path fill="none" stroke="#000" d="m157.5-704c27.754 0 6.0693 80.663 40.47 80.663"/><polygon stroke="#000" points="198.88 -628.39 208 -623 197.51 -621.52"/></g><g class="node"><title>musicbrainz.event_tag</title><polygon fill="#eee" stroke="transparent" points="34.5 -87 34.5 -112 132.5 -112 132.5 -87"/><polygon fill="none" stroke="#000" points="34.5 -87 34.5 -112 132.5 -112 132.5 -87"/><text x="41" y="-95.4" font-family="Times,serif" font-size="17">event_tag</text><polygon fill="#f0976c" stroke="transparent" points="34.5 -66 34.5 -87 132.5 -87 132.5 -66"/><polygon fill="none" stroke="#000" points="34.5 -66 34.5 -87 132.5 -87 132.5 -66"/><text x="37.5" y="-73.8" font-family="Times,serif" font-size="14" text-decoration="underline">event</text><polygon fill="#f0976c" stroke="transparent" points="34.5 -45 34.5 -66 132.5 -66 132.5 -45"/><polygon fill="none" stroke="#000" points="34.5 -45 34.5 -66 132.5 -66 132.5 -45"/><text x="37.5" y="-52.8" font-family="Times,serif" font-size="14" text-decoration="underline">tag</text><polygon fill="#eee" stroke="transparent" points="34.5 -24 34.5 -45 132.5 -45 132.5 -24"/><polygon fill="none" stroke="#000" points="34.5 -24 34.5 -45 132.5 -45 132.5 -24"/><text x="37.5" y="-30.8" font-family="Times,serif" font-size="14">count</text><polygon fill="#eee" stroke="transparent" points="34.5 -3 34.5 -24 132.5 -24 132.5 -3"/><polygon fill="none" stroke="#000" points="34.5 -3 34.5 -24 132.5 -24 132.5 -3"/><text x="37.5" y="-9.8" font-family="Times,serif" font-size="14">last_updated</text></g><g class="edge"><title>musicbrainz.event_tag:event-&gt;musicbrainz.event:id</title><path fill="none" stroke="#000" d="m133.5-77c20.666 0 24.63-2.8782 33.5-30.088 15.94-48.9-10.2-464.17 31.97-511.27"/><polygon stroke="#000" points="197.51 -621.54 208 -623 200.71 -615.32"/></g><g class="node"><title>musicbrainz.tag</title><polygon fill="#eee" stroke="transparent" points="241 -63 241 -88 314 -88 314 -63"/><polygon fill="none" stroke="#000" points="241 -63 241 -88 314 -88 314 -63"/><text x="263" y="-71.4" font-family="Times,serif" font-size="17">tag</text><polygon fill="#f0976c" stroke="transparent" points="241 -42 241 -63 314 -63 314 -42"/><polygon fill="none" stroke="#000" points="241 -42 241 -63 314 -63 314 -42"/><text x="244" y="-49.8" font-family="Times,serif" font-size="14" text-decoration="underline">id</text><polygon fill="#eee" stroke="transparent" points="241 -21 241 -42 314 -42 314 -21"/><polygon fill="none" stroke="#000" points="241 -21 241 -42 314 -42 314 -21"/><text x="244" y="-27.8" font-family="Times,serif" font-size="14">name</text><polygon fill="#eee" stroke="transparent" points="241 0 241 -21 314 -21 314 0"/><polygon fill="none" stroke="#000" points="241 0 241 -21 314 -21 314 0"/><text x="244" y="-6.8" font-family="Times,serif" font-size="14">ref_count</text></g><g class="edge"><title>musicbrainz.event_tag:tag-&gt;musicbrainz.tag:id</title><path fill="none" stroke="#000" d="m133.5-55c43.64 0 57.1 1.7 96.02 1.97"/><polygon stroke="#000" points="230.01 -56.53 240 -53 229.99 -49.53"/></g></g></svg>