<svg xmlns="http://www.w3.org/2000/svg" xmlns:xlink="http://www.w3.org/1999/xlink" width="479pt" height="1416" version="1.1" viewBox="0 0 479 1061.5"><g class="graph" transform="scale(1) translate(4 1057.5)"><title>label_entity_details</title><a xlink:title="Tables for the “label” entity type properties"><polygon fill="#e8c2da" stroke="transparent" points="-4 4 -4 -1057.5 475 -1057.5 475 4"/></a><g class="node"><title>musicbrainz.annotation</title><polygon fill="#eee" stroke="transparent" points="219.5 -1006 219.5 -1031 320.5 -1031 320.5 -1006"/><polygon fill="none" stroke="#000" points="219.5 -1006 219.5 -1031 320.5 -1031 320.5 -1006"/><text x="222.5" y="-1014.4" font-family="Times,serif" font-size="17">annotation</text><polygon fill="#f0976c" stroke="transparent" points="219.5 -985 219.5 -1006 320.5 -1006 320.5 -985"/><polygon fill="none" stroke="#000" points="219.5 -985 219.5 -1006 320.5 -1006 320.5 -985"/><text x="222.5" y="-992.8" font-family="Times,serif" font-size="14" text-decoration="underline">id</text><polygon fill="#eee" stroke="transparent" points="219.5 -964 219.5 -985 320.5 -985 320.5 -964"/><polygon fill="none" stroke="#000" points="219.5 -964 219.5 -985 320.5 -985 320.5 -964"/><text x="222.5" y="-970.8" font-family="Times,serif" font-size="14">editor</text><polygon fill="#eee" stroke="transparent" points="219.5 -943 219.5 -964 320.5 -964 320.5 -943"/><polygon fill="none" stroke="#000" points="219.5 -943 219.5 -964 320.5 -964 320.5 -943"/><text x="222.5" y="-949.8" font-family="Times,serif" font-size="14">text</text><polygon fill="#eee" stroke="transparent" points="219.5 -922 219.5 -943 320.5 -943 320.5 -922"/><polygon fill="none" stroke="#000" points="219.5 -922 219.5 -943 320.5 -943 320.5 -922"/><text x="222.5" y="-928.8" font-family="Times,serif" font-size="14">changelog</text><polygon fill="#eee" stroke="transparent" points="219.5 -901 219.5 -922 320.5 -922 320.5 -901"/><polygon fill="none" stroke="#000" points="219.5 -901 219.5 -922 320.5 -922 320.5 -901"/><text x="222.5" y="-907.8" font-family="Times,serif" font-size="14">created</text></g><g class="node"><title>musicbrainz.area</title><polygon fill="#eee" stroke="transparent" points="401 -135 401 -160 447 -160 447 -135"/><polygon fill="none" stroke="#000" points="401 -135 401 -160 447 -160 447 -135"/><text x="404" y="-143.4" font-family="Times,serif" font-size="17">area</text><polygon fill="#f0976c" stroke="transparent" points="401 -114 401 -135 447 -135 447 -114"/><polygon fill="none" stroke="#000" points="401 -114 401 -135 447 -135 447 -114"/><text x="404" y="-121.8" font-family="Times,serif" font-size="14" text-decoration="underline">id</text><polygon fill="#eee" stroke="transparent" points="401 -93 401 -114 447 -114 447 -93"/><polygon fill="none" stroke="#000" points="401 -93 401 -114 447 -114 447 -93"/><text x="404" y="-99.8" font-family="Times,serif" font-size="14">...</text></g><g class="node"><title>musicbrainz.label</title><polygon fill="#eb743b" stroke="transparent" points="201.5 -441 201.5 -466 338.5 -466 338.5 -441"/><polygon fill="none" stroke="#000" points="201.5 -441 201.5 -466 338.5 -466 338.5 -441"/><text x="248.5" y="-449.4" font-family="Times,serif" font-size="17">label</text><polygon fill="#f0976c" stroke="transparent" points="201.5 -420 201.5 -441 338.5 -441 338.5 -420"/><polygon fill="none" stroke="#000" points="201.5 -420 201.5 -441 338.5 -441 338.5 -420"/><text x="204.5" y="-427.8" font-family="Times,serif" font-size="14" text-decoration="underline">id</text><polygon fill="#eee" stroke="transparent" points="201.5 -399 201.5 -420 338.5 -420 338.5 -399"/><polygon fill="none" stroke="#000" points="201.5 -399 201.5 -420 338.5 -420 338.5 -399"/><text x="204.5" y="-405.8" font-family="Times,serif" font-size="14">gid</text><polygon fill="#eee" stroke="transparent" points="201.5 -378 201.5 -399 338.5 -399 338.5 -378"/><polygon fill="none" stroke="#000" points="201.5 -378 201.5 -399 338.5 -399 338.5 -378"/><text x="204.5" y="-384.8" font-family="Times,serif" font-size="14">name</text><polygon fill="#eee" stroke="transparent" points="201.5 -357 201.5 -378 338.5 -378 338.5 -357"/><polygon fill="none" stroke="#000" points="201.5 -357 201.5 -378 338.5 -378 338.5 -357"/><text x="204.5" y="-363.8" font-family="Times,serif" font-size="14">begin_date_year</text><polygon fill="#eee" stroke="transparent" points="201.5 -336 201.5 -357 338.5 -357 338.5 -336"/><polygon fill="none" stroke="#000" points="201.5 -336 201.5 -357 338.5 -357 338.5 -336"/><text x="204.5" y="-342.8" font-family="Times,serif" font-size="14">begin_date_month</text><polygon fill="#eee" stroke="transparent" points="201.5 -315 201.5 -336 338.5 -336 338.5 -315"/><polygon fill="none" stroke="#000" points="201.5 -315 201.5 -336 338.5 -336 338.5 -315"/><text x="204.5" y="-321.8" font-family="Times,serif" font-size="14">begin_date_day</text><polygon fill="#eee" stroke="transparent" points="201.5 -294 201.5 -315 338.5 -315 338.5 -294"/><polygon fill="none" stroke="#000" points="201.5 -294 201.5 -315 338.5 -315 338.5 -294"/><text x="204.5" y="-300.8" font-family="Times,serif" font-size="14">end_date_year</text><polygon fill="#eee" stroke="transparent" points="201.5 -273 201.5 -294 338.5 -294 338.5 -273"/><polygon fill="none" stroke="#000" points="201.5 -273 201.5 -294 338.5 -294 338.5 -273"/><text x="204.5" y="-279.8" font-family="Times,serif" font-size="14">end_date_month</text><polygon fill="#eee" stroke="transparent" points="201.5 -252 201.5 -273 338.5 -273 338.5 -252"/><polygon fill="none" stroke="#000" points="201.5 -252 201.5 -273 338.5 -273 338.5 -252"/><text x="204.5" y="-258.8" font-family="Times,serif" font-size="14">end_date_day</text><polygon fill="#eee" stroke="transparent" points="201.5 -231 201.5 -252 338.5 -252 338.5 -231"/><polygon fill="none" stroke="#000" points="201.5 -231 201.5 -252 338.5 -252 338.5 -231"/><text x="204.5" y="-237.8" font-family="Times,serif" font-size="14">label_code</text><polygon fill="#f8d1be" stroke="transparent" points="201.5 -210 201.5 -231 338.5 -231 338.5 -210"/><polygon fill="none" stroke="#000" points="201.5 -210 201.5 -231 338.5 -231 338.5 -210"/><text x="204.5" y="-216.8" font-family="Times,serif" font-size="14">type</text><polygon fill="#f8d1be" stroke="transparent" points="201.5 -189 201.5 -210 338.5 -210 338.5 -189"/><polygon fill="none" stroke="#000" points="201.5 -189 201.5 -210 338.5 -210 338.5 -189"/><text x="204.5" y="-195.8" font-family="Times,serif" font-size="14">area</text><polygon fill="#eee" stroke="transparent" points="201.5 -168 201.5 -189 338.5 -189 338.5 -168"/><polygon fill="none" stroke="#000" points="201.5 -168 201.5 -189 338.5 -189 338.5 -168"/><text x="204.5" y="-174.8" font-family="Times,serif" font-size="14">comment</text><polygon fill="#eee" stroke="transparent" points="201.5 -147 201.5 -168 338.5 -168 338.5 -147"/><polygon fill="none" stroke="#000" points="201.5 -147 201.5 -168 338.5 -168 338.5 -147"/><text x="204.5" y="-153.8" font-family="Times,serif" font-size="14">edits_pending</text><polygon fill="#eee" stroke="transparent" points="201.5 -126 201.5 -147 338.5 -147 338.5 -126"/><polygon fill="none" stroke="#000" points="201.5 -126 201.5 -147 338.5 -147 338.5 -126"/><text x="204.5" y="-132.8" font-family="Times,serif" font-size="14">last_updated</text><polygon fill="#eee" stroke="transparent" points="201.5 -105 201.5 -126 338.5 -126 338.5 -105"/><polygon fill="none" stroke="#000" points="201.5 -105 201.5 -126 338.5 -126 338.5 -105"/><text x="204.5" y="-111.8" font-family="Times,serif" font-size="14">ended</text></g><g class="edge"><title>musicbrainz.label:area-&gt;musicbrainz.area:id</title><path fill="none" stroke="#000" d="m339.5-199c38.98 0 21.64 62.13 50.5 73.29"/><polygon stroke="#000" points="390.73 -129.13 400 -124 389.55 -122.23"/></g><g class="node"><title>musicbrainz.label_type</title><polygon fill="#eee" stroke="transparent" points="377 -304 377 -329 471 -329 471 -304"/><polygon fill="none" stroke="#000" points="377 -304 377 -329 471 -329 471 -304"/><text x="380" y="-312.4" font-family="Times,serif" font-size="17">label_type</text><polygon fill="#f0976c" stroke="transparent" points="377 -283 377 -304 471 -304 471 -283"/><polygon fill="none" stroke="#000" points="377 -283 377 -304 471 -304 471 -283"/><text x="380" y="-290.8" font-family="Times,serif" font-size="14" text-decoration="underline">id</text><polygon fill="#eee" stroke="transparent" points="377 -262 377 -283 471 -283 471 -262"/><polygon fill="none" stroke="#000" points="377 -262 377 -283 471 -283 471 -262"/><text x="380" y="-268.8" font-family="Times,serif" font-size="14">name</text><polygon fill="#f8d1be" stroke="transparent" points="377 -241 377 -262 471 -262 471 -241"/><polygon fill="none" stroke="#000" points="377 -241 377 -262 471 -262 471 -241"/><text x="380" y="-247.8" font-family="Times,serif" font-size="14">parent</text><polygon fill="#eee" stroke="transparent" points="377 -220 377 -241 471 -241 471 -220"/><polygon fill="none" stroke="#000" points="377 -220 377 -241 471 -241 471 -220"/><text x="380" y="-226.8" font-family="Times,serif" font-size="14">child_order</text><polygon fill="#eee" stroke="transparent" points="377 -199 377 -220 471 -220 471 -199"/><polygon fill="none" stroke="#000" points="377 -199 377 -220 471 -220 471 -199"/><text x="380" y="-205.8" font-family="Times,serif" font-size="14">description</text><polygon fill="#eee" stroke="transparent" points="377 -178 377 -199 471 -199 471 -178"/><polygon fill="none" stroke="#000" points="377 -178 377 -199 471 -199 471 -178"/><text x="380" y="-184.8" font-family="Times,serif" font-size="14">gid</text></g><g class="edge"><title>musicbrainz.label:type-&gt;musicbrainz.label_type:id</title><path fill="none" stroke="#000" d="m339.5-220c32.69 0 7.9-58.18 27.57-71.37"/><polygon stroke="#000" points="366.44 -294.82 377 -294 368.23 -288.05"/></g><g class="node"><title>musicbrainz.label_alias</title><polygon fill="#eee" stroke="transparent" points="12 -943 12 -968 151 -968 151 -943"/><polygon fill="none" stroke="#000" points="12 -943 12 -968 151 -968 151 -943"/><text x="36" y="-951.4" font-family="Times,serif" font-size="17">label_alias</text><polygon fill="#f0976c" stroke="transparent" points="12 -922 12 -943 151 -943 151 -922"/><polygon fill="none" stroke="#000" points="12 -922 12 -943 151 -943 151 -922"/><text x="15" y="-929.8" font-family="Times,serif" font-size="14" text-decoration="underline">id</text><polygon fill="#f8d1be" stroke="transparent" points="12 -901 12 -922 151 -922 151 -901"/><polygon fill="none" stroke="#000" points="12 -901 12 -922 151 -922 151 -901"/><text x="15" y="-907.8" font-family="Times,serif" font-size="14">label</text><polygon fill="#eee" stroke="transparent" points="12 -880 12 -901 151 -901 151 -880"/><polygon fill="none" stroke="#000" points="12 -880 12 -901 151 -901 151 -880"/><text x="15" y="-886.8" font-family="Times,serif" font-size="14">name</text><polygon fill="#eee" stroke="transparent" points="12 -859 12 -880 151 -880 151 -859"/><polygon fill="none" stroke="#000" points="12 -859 12 -880 151 -880 151 -859"/><text x="15" y="-865.8" font-family="Times,serif" font-size="14">locale</text><polygon fill="#eee" stroke="transparent" points="12 -838 12 -859 151 -859 151 -838"/><polygon fill="none" stroke="#000" points="12 -838 12 -859 151 -859 151 -838"/><text x="15" y="-844.8" font-family="Times,serif" font-size="14">edits_pending</text><polygon fill="#eee" stroke="transparent" points="12 -817 12 -838 151 -838 151 -817"/><polygon fill="none" stroke="#000" points="12 -817 12 -838 151 -838 151 -817"/><text x="15" y="-823.8" font-family="Times,serif" font-size="14">last_updated</text><polygon fill="#f8d1be" stroke="transparent" points="12 -796 12 -817 151 -817 151 -796"/><polygon fill="none" stroke="#000" points="12 -796 12 -817 151 -817 151 -796"/><text x="15" y="-802.8" font-family="Times,serif" font-size="14">type</text><polygon fill="#eee" stroke="transparent" points="12 -775 12 -796 151 -796 151 -775"/><polygon fill="none" stroke="#000" points="12 -775 12 -796 151 -796 151 -775"/><text x="15" y="-781.8" font-family="Times,serif" font-size="14">sort_name</text><polygon fill="#eee" stroke="transparent" points="12 -754 12 -775 151 -775 151 -754"/><polygon fill="none" stroke="#000" points="12 -754 12 -775 151 -775 151 -754"/><text x="15" y="-760.8" font-family="Times,serif" font-size="14">begin_date_year</text><polygon fill="#eee" stroke="transparent" points="12 -733 12 -754 151 -754 151 -733"/><polygon fill="none" stroke="#000" points="12 -733 12 -754 151 -754 151 -733"/><text x="15" y="-739.8" font-family="Times,serif" font-size="14">begin_date_month</text><polygon fill="#eee" stroke="transparent" points="12 -712 12 -733 151 -733 151 -712"/><polygon fill="none" stroke="#000" points="12 -712 12 -733 151 -733 151 -712"/><text x="15" y="-718.8" font-family="Times,serif" font-size="14">begin_date_day</text><polygon fill="#eee" stroke="transparent" points="12 -691 12 -712 151 -712 151 -691"/><polygon fill="none" stroke="#000" points="12 -691 12 -712 151 -712 151 -691"/><text x="15" y="-697.8" font-family="Times,serif" font-size="14">end_date_year</text><polygon fill="#eee" stroke="transparent" points="12 -670 12 -691 151 -691 151 -670"/><polygon fill="none" stroke="#000" points="12 -670 12 -691 151 -691 151 -670"/><text x="15" y="-676.8" font-family="Times,serif" font-size="14">end_date_month</text><polygon fill="#eee" stroke="transparent" points="12 -649 12 -670 151 -670 151 -649"/><polygon fill="none" stroke="#000" points="12 -649 12 -670 151 -670 151 -649"/><text x="15" y="-655.8" font-family="Times,serif" font-size="14">end_date_day</text><polygon fill="#eee" stroke="transparent" points="12 -628 12 -649 151 -649 151 -628"/><polygon fill="none" stroke="#000" points="12 -628 12 -649 151 -649 151 -628"/><text x="15" y="-634.8" font-family="Times,serif" font-size="14">primary_for_locale</text><polygon fill="#eee" stroke="transparent" points="12 -607 12 -628 151 -628 151 -607"/><polygon fill="none" stroke="#000" points="12 -607 12 -628 151 -628 151 -607"/><text x="15" y="-613.8" font-family="Times,serif" font-size="14">ended</text></g><g class="edge"><title>musicbrainz.label_alias:label-&gt;musicbrainz.label:id</title><path fill="none" stroke="#000" d="m152-912c60.994 0-16.386 447.71 38.42 479.35"/><polygon stroke="#000" points="191.2 -436.07 200.5 -431 190.07 -429.16"/></g><g class="node"><title>musicbrainz.label_alias_type</title><polygon fill="#eee" stroke="transparent" points="198.5 -817 198.5 -842 341.5 -842 341.5 -817"/><polygon fill="none" stroke="#000" points="198.5 -817 198.5 -842 341.5 -842 341.5 -817"/><text x="201.5" y="-825.4" font-family="Times,serif" font-size="17">label_alias_type</text><polygon fill="#f0976c" stroke="transparent" points="198.5 -796 198.5 -817 341.5 -817 341.5 -796"/><polygon fill="none" stroke="#000" points="198.5 -796 198.5 -817 341.5 -817 341.5 -796"/><text x="201.5" y="-803.8" font-family="Times,serif" font-size="14" text-decoration="underline">id</text><polygon fill="#eee" stroke="transparent" points="198.5 -775 198.5 -796 341.5 -796 341.5 -775"/><polygon fill="none" stroke="#000" points="198.5 -775 198.5 -796 341.5 -796 341.5 -775"/><text x="201.5" y="-781.8" font-family="Times,serif" font-size="14">name</text><polygon fill="#f8d1be" stroke="transparent" points="198.5 -754 198.5 -775 341.5 -775 341.5 -754"/><polygon fill="none" stroke="#000" points="198.5 -754 198.5 -775 341.5 -775 341.5 -754"/><text x="201.5" y="-760.8" font-family="Times,serif" font-size="14">parent</text><polygon fill="#eee" stroke="transparent" points="198.5 -733 198.5 -754 341.5 -754 341.5 -733"/><polygon fill="none" stroke="#000" points="198.5 -733 198.5 -754 341.5 -754 341.5 -733"/><text x="201.5" y="-739.8" font-family="Times,serif" font-size="14">child_order</text><polygon fill="#eee" stroke="transparent" points="198.5 -712 198.5 -733 341.5 -733 341.5 -712"/><polygon fill="none" stroke="#000" points="198.5 -712 198.5 -733 341.5 -733 341.5 -712"/><text x="201.5" y="-718.8" font-family="Times,serif" font-size="14">description</text><polygon fill="#eee" stroke="transparent" points="198.5 -691 198.5 -712 341.5 -712 341.5 -691"/><polygon fill="none" stroke="#000" points="198.5 -691 198.5 -712 341.5 -712 341.5 -691"/><text x="201.5" y="-697.8" font-family="Times,serif" font-size="14">gid</text></g><g class="edge"><title>musicbrainz.label_alias:type-&gt;musicbrainz.label_alias_type:id</title><path fill="none" stroke="#000" d="m152-807h35.92"/><polygon stroke="#000" points="188 -810.5 198 -807 188 -803.5"/></g><g class="node"><title>musicbrainz.label_annotation</title><polygon fill="#eee" stroke="transparent" points="6 -1028 6 -1053 157 -1053 157 -1028"/><polygon fill="none" stroke="#000" points="6 -1028 6 -1053 157 -1053 157 -1028"/><text x="9" y="-1036.4" font-family="Times,serif" font-size="17">label_annotation</text><polygon fill="#f0976c" stroke="transparent" points="6 -1007 6 -1028 157 -1028 157 -1007"/><polygon fill="none" stroke="#000" points="6 -1007 6 -1028 157 -1028 157 -1007"/><text x="9" y="-1014.8" font-family="Times,serif" font-size="14" text-decoration="underline">label</text><polygon fill="#f0976c" stroke="transparent" points="6 -986 6 -1007 157 -1007 157 -986"/><polygon fill="none" stroke="#000" points="6 -986 6 -1007 157 -1007 157 -986"/><text x="9" y="-993.8" font-family="Times,serif" font-size="14" text-decoration="underline">annotation</text></g><g class="edge"><title>musicbrainz.label_annotation:annotation-&gt;musicbrainz.annotation:id</title><path fill="none" stroke="#000" d="m158-996h50.5"/><polygon stroke="#000" points="208.5 -999.5 218.5 -996 208.5 -992.5"/></g><g class="edge"><title>musicbrainz.label_annotation:label-&gt;musicbrainz.label:id</title><path fill="none" stroke="#000" d="m158-1017c61.84 0-13.92 525.82 33.41 581.28"/><polygon stroke="#000" points="193.23 -438.71 200.5 -431 190.01 -432.5"/></g><g class="node"><title>musicbrainz.label_gid_redirect</title><polygon fill="#eee" stroke="transparent" points="0 -459 0 -484 162 -484 162 -459"/><polygon fill="none" stroke="#000" points="0 -459 0 -484 162 -484 162 -459"/><text x="3" y="-467.4" font-family="Times,serif" font-size="17">label_gid_redirect</text><polygon fill="#f0976c" stroke="transparent" points="0 -438 0 -459 162 -459 162 -438"/><polygon fill="none" stroke="#000" points="0 -438 0 -459 162 -459 162 -438"/><text x="3" y="-445.8" font-family="Times,serif" font-size="14" text-decoration="underline">gid</text><polygon fill="#f8d1be" stroke="transparent" points="0 -417 0 -438 162 -438 162 -417"/><polygon fill="none" stroke="#000" points="0 -417 0 -438 162 -438 162 -417"/><text x="3" y="-423.8" font-family="Times,serif" font-size="14">new_id</text><polygon fill="#eee" stroke="transparent" points="0 -396 0 -417 162 -417 162 -396"/><polygon fill="none" stroke="#000" points="0 -396 0 -417 162 -417 162 -396"/><text x="3" y="-402.8" font-family="Times,serif" font-size="14">created</text></g><g class="edge"><title>musicbrainz.label_gid_redirect:new_id-&gt;musicbrainz.label:id</title><path fill="none" stroke="#000" d="m162-427c13.17 0 18.66-2.34 28.23-3.44"/><polygon stroke="#000" points="190.33 -433.95 200.5 -431 190.7 -426.96"/></g><g class="node"><title>musicbrainz.label_ipi</title><polygon fill="#eee" stroke="transparent" points="28 -352 28 -377 134 -377 134 -352"/><polygon fill="none" stroke="#000" points="28 -352 28 -377 134 -377 134 -352"/><text x="44.5" y="-360.4" font-family="Times,serif" font-size="17">label_ipi</text><polygon fill="#f0976c" stroke="transparent" points="28 -331 28 -352 134 -352 134 -331"/><polygon fill="none" stroke="#000" points="28 -331 28 -352 134 -352 134 -331"/><text x="31" y="-338.8" font-family="Times,serif" font-size="14" text-decoration="underline">label</text><polygon fill="#f0976c" stroke="transparent" points="28 -310 28 -331 134 -331 134 -310"/><polygon fill="none" stroke="#000" points="28 -310 28 -331 134 -331 134 -310"/><text x="31" y="-317.8" font-family="Times,serif" font-size="14" text-decoration="underline">ipi</text><polygon fill="#eee" stroke="transparent" points="28 -289 28 -310 134 -310 134 -289"/><polygon fill="none" stroke="#000" points="28 -289 28 -310 134 -310 134 -289"/><text x="31" y="-295.8" font-family="Times,serif" font-size="14">edits_pending</text><polygon fill="#eee" stroke="transparent" points="28 -268 28 -289 134 -289 134 -268"/><polygon fill="none" stroke="#000" points="28 -268 28 -289 134 -289 134 -268"/><text x="31" y="-274.8" font-family="Times,serif" font-size="14">created</text></g><g class="edge"><title>musicbrainz.label_ipi:label-&gt;musicbrainz.label:id</title><path fill="none" stroke="#000" d="m135-342c34.467 0 20.709-78.162 55.41-87.46"/><polygon stroke="#000" points="190.09 -432.95 200.5 -431 191.14 -426.03"/></g><g class="node"><title>musicbrainz.label_isni</title><polygon fill="#eee" stroke="transparent" points="28 -225 28 -250 134 -250 134 -225"/><polygon fill="none" stroke="#000" points="28 -225 28 -250 134 -250 134 -225"/><text x="40" y="-233.4" font-family="Times,serif" font-size="17">label_isni</text><polygon fill="#f0976c" stroke="transparent" points="28 -204 28 -225 134 -225 134 -204"/><polygon fill="none" stroke="#000" points="28 -204 28 -225 134 -225 134 -204"/><text x="31" y="-211.8" font-family="Times,serif" font-size="14" text-decoration="underline">label</text><polygon fill="#f0976c" stroke="transparent" points="28 -183 28 -204 134 -204 134 -183"/><polygon fill="none" stroke="#000" points="28 -183 28 -204 134 -204 134 -183"/><text x="31" y="-190.8" font-family="Times,serif" font-size="14" text-decoration="underline">isni</text><polygon fill="#eee" stroke="transparent" points="28 -162 28 -183 134 -183 134 -162"/><polygon fill="none" stroke="#000" points="28 -162 28 -183 134 -183 134 -162"/><text x="31" y="-168.8" font-family="Times,serif" font-size="14">edits_pending</text><polygon fill="#eee" stroke="transparent" points="28 -141 28 -162 134 -162 134 -141"/><polygon fill="none" stroke="#000" points="28 -141 28 -162 134 -162 134 -141"/><text x="31" y="-147.8" font-family="Times,serif" font-size="14">created</text></g><g class="edge"><title>musicbrainz.label_isni:label-&gt;musicbrainz.label:id</title><path fill="none" stroke="#000" d="m135-215c36.775 0 9.8088-201.46 55.876-213.81"/><polygon stroke="#000" points="189.91 -431 200.5 -431 192.22 -424.39"/></g><g class="node"><title>musicbrainz.label_meta</title><polygon fill="#eee" stroke="transparent" points="31 -565 31 -590 131 -590 131 -565"/><polygon fill="none" stroke="#000" points="31 -565 31 -590 131 -590 131 -565"/><text x="34" y="-573.4" font-family="Times,serif" font-size="17">label_meta</text><polygon fill="#f0976c" stroke="transparent" points="31 -544 31 -565 131 -565 131 -544"/><polygon fill="none" stroke="#000" points="31 -544 31 -565 131 -565 131 -544"/><text x="34" y="-551.8" font-family="Times,serif" font-size="14" text-decoration="underline">id</text><polygon fill="#eee" stroke="transparent" points="31 -523 31 -544 131 -544 131 -523"/><polygon fill="none" stroke="#000" points="31 -523 31 -544 131 -544 131 -523"/><text x="34" y="-529.8" font-family="Times,serif" font-size="14">rating</text><polygon fill="#eee" stroke="transparent" points="31 -502 31 -523 131 -523 131 -502"/><polygon fill="none" stroke="#000" points="31 -502 31 -523 131 -523 131 -502"/><text x="34" y="-508.8" font-family="Times,serif" font-size="14">rating_count</text></g><g class="edge"><title>musicbrainz.label_meta:id-&gt;musicbrainz.label:id</title><path fill="none" stroke="#000" d="m132-555c59.15 0 12.05 109.44 58.33 122.69"/><polygon stroke="#000" points="191.03 -435.75 200.5 -431 190.13 -428.81"/></g><g class="node"><title>musicbrainz.label_tag</title><polygon fill="#eee" stroke="transparent" points="32 -90 32 -115 130 -115 130 -90"/><polygon fill="none" stroke="#000" points="32 -90 32 -115 130 -115 130 -90"/><text x="41.5" y="-98.4" font-family="Times,serif" font-size="17">label_tag</text><polygon fill="#f0976c" stroke="transparent" points="32 -69 32 -90 130 -90 130 -69"/><polygon fill="none" stroke="#000" points="32 -69 32 -90 130 -90 130 -69"/><text x="35" y="-76.8" font-family="Times,serif" font-size="14" text-decoration="underline">label</text><polygon fill="#f0976c" stroke="transparent" points="32 -48 32 -69 130 -69 130 -48"/><polygon fill="none" stroke="#000" points="32 -48 32 -69 130 -69 130 -48"/><text x="35" y="-55.8" font-family="Times,serif" font-size="14" text-decoration="underline">tag</text><polygon fill="#eee" stroke="transparent" points="32 -27 32 -48 130 -48 130 -27"/><polygon fill="none" stroke="#000" points="32 -27 32 -48 130 -48 130 -27"/><text x="35" y="-33.8" font-family="Times,serif" font-size="14">count</text><polygon fill="#eee" stroke="transparent" points="32 -6 32 -27 130 -27 130 -6"/><polygon fill="none" stroke="#000" points="32 -6 32 -27 130 -27 130 -6"/><text x="35" y="-12.8" font-family="Times,serif" font-size="14">last_updated</text></g><g class="edge"><title>musicbrainz.label_tag:label-&gt;musicbrainz.label:id</title><path fill="none" stroke="#000" d="m131-80c86.031 0-1.3524-317.58 60.038-347.48"/><polygon stroke="#000" points="189.98 -432.25 200.5 -431 191.5 -425.42"/></g><g class="node"><title>musicbrainz.tag</title><polygon fill="#eee" stroke="transparent" points="233.5 -63 233.5 -88 306.5 -88 306.5 -63"/><polygon fill="none" stroke="#000" points="233.5 -63 233.5 -88 306.5 -88 306.5 -63"/><text x="255.5" y="-71.4" font-family="Times,serif" font-size="17">tag</text><polygon fill="#f0976c" stroke="transparent" points="233.5 -42 233.5 -63 306.5 -63 306.5 -42"/><polygon fill="none" stroke="#000" points="233.5 -42 233.5 -63 306.5 -63 306.5 -42"/><text x="236.5" y="-49.8" font-family="Times,serif" font-size="14" text-decoration="underline">id</text><polygon fill="#eee" stroke="transparent" points="233.5 -21 233.5 -42 306.5 -42 306.5 -21"/><polygon fill="none" stroke="#000" points="233.5 -21 233.5 -42 306.5 -42 306.5 -21"/><text x="236.5" y="-27.8" font-family="Times,serif" font-size="14">name</text><polygon fill="#eee" stroke="transparent" points="233.5 0 233.5 -21 306.5 -21 306.5 0"/><polygon fill="none" stroke="#000" points="233.5 0 233.5 -21 306.5 -21 306.5 0"/><text x="236.5" y="-6.8" font-family="Times,serif" font-size="14">ref_count</text></g><g class="edge"><title>musicbrainz.label_tag:tag-&gt;musicbrainz.tag:id</title><path fill="none" stroke="#000" d="m131-58c41.46 0 54.27 4.21 91.03 4.9"/><polygon stroke="#000" points="222.53 -56.59 232.5 -53 222.47 -49.59"/></g></g></svg>