<svg xmlns="http://www.w3.org/2000/svg" xmlns:xlink="http://www.w3.org/1999/xlink" width="493pt" height="1112" version="1.1" viewBox="0 0 493 833.5"><g class="graph" transform="scale(1) translate(4 829.5)"><title>place_entity_details</title><a xlink:title="Tables for the “place” entity type properties"><polygon fill="#e8c2da" stroke="transparent" points="-4 4 -4 -829.5 489 -829.5 489 4"/></a><g class="node"><title>musicbrainz.annotation</title><polygon fill="#eee" stroke="transparent" points="226 -781 226 -806 327 -806 327 -781"/><polygon fill="none" stroke="#000" points="226 -781 226 -806 327 -806 327 -781"/><text x="229" y="-789.4" font-family="Times,serif" font-size="17">annotation</text><polygon fill="#f0976c" stroke="transparent" points="226 -760 226 -781 327 -781 327 -760"/><polygon fill="none" stroke="#000" points="226 -760 226 -781 327 -781 327 -760"/><text x="229" y="-767.8" font-family="Times,serif" font-size="14" text-decoration="underline">id</text><polygon fill="#eee" stroke="transparent" points="226 -739 226 -760 327 -760 327 -739"/><polygon fill="none" stroke="#000" points="226 -739 226 -760 327 -760 327 -739"/><text x="229" y="-745.8" font-family="Times,serif" font-size="14">editor</text><polygon fill="#eee" stroke="transparent" points="226 -718 226 -739 327 -739 327 -718"/><polygon fill="none" stroke="#000" points="226 -718 226 -739 327 -739 327 -718"/><text x="229" y="-724.8" font-family="Times,serif" font-size="14">text</text><polygon fill="#eee" stroke="transparent" points="226 -697 226 -718 327 -718 327 -697"/><polygon fill="none" stroke="#000" points="226 -697 226 -718 327 -718 327 -697"/><text x="229" y="-703.8" font-family="Times,serif" font-size="14">changelog</text><polygon fill="#eee" stroke="transparent" points="226 -676 226 -697 327 -697 327 -676"/><polygon fill="none" stroke="#000" points="226 -676 226 -697 327 -697 327 -676"/><text x="229" y="-682.8" font-family="Times,serif" font-size="14">created</text></g><g class="node"><title>musicbrainz.area</title><polygon fill="#eee" stroke="transparent" points="412.5 -465 412.5 -490 458.5 -490 458.5 -465"/><polygon fill="none" stroke="#000" points="412.5 -465 412.5 -490 458.5 -490 458.5 -465"/><text x="415.5" y="-473.4" font-family="Times,serif" font-size="17">area</text><polygon fill="#f0976c" stroke="transparent" points="412.5 -444 412.5 -465 458.5 -465 458.5 -444"/><polygon fill="none" stroke="#000" points="412.5 -444 412.5 -465 458.5 -465 458.5 -444"/><text x="415.5" y="-451.8" font-family="Times,serif" font-size="14" text-decoration="underline">id</text><polygon fill="#eee" stroke="transparent" points="412.5 -423 412.5 -444 458.5 -444 458.5 -423"/><polygon fill="none" stroke="#000" points="412.5 -423 412.5 -444 458.5 -444 458.5 -423"/><text x="415.5" y="-429.8" font-family="Times,serif" font-size="14">...</text></g><g class="node"><title>musicbrainz.place</title><polygon fill="#eb743b" stroke="transparent" points="208 -633 208 -658 345 -658 345 -633"/><polygon fill="none" stroke="#000" points="208 -633 208 -658 345 -658 345 -633"/><text x="253" y="-641.4" font-family="Times,serif" font-size="17">place</text><polygon fill="#f0976c" stroke="transparent" points="208 -612 208 -633 345 -633 345 -612"/><polygon fill="none" stroke="#000" points="208 -612 208 -633 345 -633 345 -612"/><text x="211" y="-619.8" font-family="Times,serif" font-size="14" text-decoration="underline">id</text><polygon fill="#eee" stroke="transparent" points="208 -591 208 -612 345 -612 345 -591"/><polygon fill="none" stroke="#000" points="208 -591 208 -612 345 -612 345 -591"/><text x="211" y="-597.8" font-family="Times,serif" font-size="14">gid</text><polygon fill="#eee" stroke="transparent" points="208 -570 208 -591 345 -591 345 -570"/><polygon fill="none" stroke="#000" points="208 -570 208 -591 345 -591 345 -570"/><text x="211" y="-576.8" font-family="Times,serif" font-size="14">name</text><polygon fill="#f8d1be" stroke="transparent" points="208 -549 208 -570 345 -570 345 -549"/><polygon fill="none" stroke="#000" points="208 -549 208 -570 345 -570 345 -549"/><text x="211" y="-555.8" font-family="Times,serif" font-size="14">type</text><polygon fill="#eee" stroke="transparent" points="208 -528 208 -549 345 -549 345 -528"/><polygon fill="none" stroke="#000" points="208 -528 208 -549 345 -549 345 -528"/><text x="211" y="-534.8" font-family="Times,serif" font-size="14">address</text><polygon fill="#f8d1be" stroke="transparent" points="208 -507 208 -528 345 -528 345 -507"/><polygon fill="none" stroke="#000" points="208 -507 208 -528 345 -528 345 -507"/><text x="211" y="-513.8" font-family="Times,serif" font-size="14">area</text><polygon fill="#eee" stroke="transparent" points="208 -486 208 -507 345 -507 345 -486"/><polygon fill="none" stroke="#000" points="208 -486 208 -507 345 -507 345 -486"/><text x="211" y="-492.8" font-family="Times,serif" font-size="14">coordinates</text><polygon fill="#eee" stroke="transparent" points="208 -465 208 -486 345 -486 345 -465"/><polygon fill="none" stroke="#000" points="208 -465 208 -486 345 -486 345 -465"/><text x="211" y="-471.8" font-family="Times,serif" font-size="14">comment</text><polygon fill="#eee" stroke="transparent" points="208 -444 208 -465 345 -465 345 -444"/><polygon fill="none" stroke="#000" points="208 -444 208 -465 345 -465 345 -444"/><text x="211" y="-450.8" font-family="Times,serif" font-size="14">edits_pending</text><polygon fill="#eee" stroke="transparent" points="208 -423 208 -444 345 -444 345 -423"/><polygon fill="none" stroke="#000" points="208 -423 208 -444 345 -444 345 -423"/><text x="211" y="-429.8" font-family="Times,serif" font-size="14">last_updated</text><polygon fill="#eee" stroke="transparent" points="208 -402 208 -423 345 -423 345 -402"/><polygon fill="none" stroke="#000" points="208 -402 208 -423 345 -423 345 -402"/><text x="211" y="-408.8" font-family="Times,serif" font-size="14">begin_date_year</text><polygon fill="#eee" stroke="transparent" points="208 -381 208 -402 345 -402 345 -381"/><polygon fill="none" stroke="#000" points="208 -381 208 -402 345 -402 345 -381"/><text x="211" y="-387.8" font-family="Times,serif" font-size="14">begin_date_month</text><polygon fill="#eee" stroke="transparent" points="208 -360 208 -381 345 -381 345 -360"/><polygon fill="none" stroke="#000" points="208 -360 208 -381 345 -381 345 -360"/><text x="211" y="-366.8" font-family="Times,serif" font-size="14">begin_date_day</text><polygon fill="#eee" stroke="transparent" points="208 -339 208 -360 345 -360 345 -339"/><polygon fill="none" stroke="#000" points="208 -339 208 -360 345 -360 345 -339"/><text x="211" y="-345.8" font-family="Times,serif" font-size="14">end_date_year</text><polygon fill="#eee" stroke="transparent" points="208 -318 208 -339 345 -339 345 -318"/><polygon fill="none" stroke="#000" points="208 -318 208 -339 345 -339 345 -318"/><text x="211" y="-324.8" font-family="Times,serif" font-size="14">end_date_month</text><polygon fill="#eee" stroke="transparent" points="208 -297 208 -318 345 -318 345 -297"/><polygon fill="none" stroke="#000" points="208 -297 208 -318 345 -318 345 -297"/><text x="211" y="-303.8" font-family="Times,serif" font-size="14">end_date_day</text><polygon fill="#eee" stroke="transparent" points="208 -276 208 -297 345 -297 345 -276"/><polygon fill="none" stroke="#000" points="208 -276 208 -297 345 -297 345 -276"/><text x="211" y="-282.8" font-family="Times,serif" font-size="14">ended</text></g><g class="edge"><title>musicbrainz.place:area-&gt;musicbrainz.area:id</title><path fill="none" stroke="#000" d="m346-518c36.88 0 27.28 52.56 55.45 62.42"/><polygon stroke="#000" points="402.17 -459.01 411.5 -454 401.08 -452.1"/></g><g class="node"><title>musicbrainz.place_type</title><polygon fill="#eee" stroke="transparent" points="386.5 -634 386.5 -659 485.5 -659 485.5 -634"/><polygon fill="none" stroke="#000" points="386.5 -634 386.5 -659 485.5 -659 485.5 -634"/><text x="389.5" y="-642.4" font-family="Times,serif" font-size="17">place_type</text><polygon fill="#f0976c" stroke="transparent" points="386.5 -613 386.5 -634 485.5 -634 485.5 -613"/><polygon fill="none" stroke="#000" points="386.5 -613 386.5 -634 485.5 -634 485.5 -613"/><text x="389.5" y="-620.8" font-family="Times,serif" font-size="14" text-decoration="underline">id</text><polygon fill="#eee" stroke="transparent" points="386.5 -592 386.5 -613 485.5 -613 485.5 -592"/><polygon fill="none" stroke="#000" points="386.5 -592 386.5 -613 485.5 -613 485.5 -592"/><text x="389.5" y="-598.8" font-family="Times,serif" font-size="14">name</text><polygon fill="#f8d1be" stroke="transparent" points="386.5 -571 386.5 -592 485.5 -592 485.5 -571"/><polygon fill="none" stroke="#000" points="386.5 -571 386.5 -592 485.5 -592 485.5 -571"/><text x="389.5" y="-577.8" font-family="Times,serif" font-size="14">parent</text><polygon fill="#eee" stroke="transparent" points="386.5 -550 386.5 -571 485.5 -571 485.5 -550"/><polygon fill="none" stroke="#000" points="386.5 -550 386.5 -571 485.5 -571 485.5 -550"/><text x="389.5" y="-556.8" font-family="Times,serif" font-size="14">child_order</text><polygon fill="#eee" stroke="transparent" points="386.5 -529 386.5 -550 485.5 -550 485.5 -529"/><polygon fill="none" stroke="#000" points="386.5 -529 386.5 -550 485.5 -550 485.5 -529"/><text x="389.5" y="-535.8" font-family="Times,serif" font-size="14">description</text><polygon fill="#eee" stroke="transparent" points="386.5 -508 386.5 -529 485.5 -529 485.5 -508"/><polygon fill="none" stroke="#000" points="386.5 -508 386.5 -529 485.5 -529 485.5 -508"/><text x="389.5" y="-514.8" font-family="Times,serif" font-size="14">gid</text></g><g class="edge"><title>musicbrainz.place:type-&gt;musicbrainz.place_type:id</title><path fill="none" stroke="#000" d="m346-560c29.48 0 12.13-49.44 30.27-61.41"/><polygon stroke="#000" points="375.44 -624.81 386 -624 377.24 -618.05"/></g><g class="node"><title>musicbrainz.place_alias</title><polygon fill="#eee" stroke="transparent" points="14 -488 14 -513 153 -513 153 -488"/><polygon fill="none" stroke="#000" points="14 -488 14 -513 153 -513 153 -488"/><text x="35.5" y="-496.4" font-family="Times,serif" font-size="17">place_alias</text><polygon fill="#f0976c" stroke="transparent" points="14 -467 14 -488 153 -488 153 -467"/><polygon fill="none" stroke="#000" points="14 -467 14 -488 153 -488 153 -467"/><text x="17" y="-474.8" font-family="Times,serif" font-size="14" text-decoration="underline">id</text><polygon fill="#f8d1be" stroke="transparent" points="14 -446 14 -467 153 -467 153 -446"/><polygon fill="none" stroke="#000" points="14 -446 14 -467 153 -467 153 -446"/><text x="17" y="-452.8" font-family="Times,serif" font-size="14">place</text><polygon fill="#eee" stroke="transparent" points="14 -425 14 -446 153 -446 153 -425"/><polygon fill="none" stroke="#000" points="14 -425 14 -446 153 -446 153 -425"/><text x="17" y="-431.8" font-family="Times,serif" font-size="14">name</text><polygon fill="#eee" stroke="transparent" points="14 -404 14 -425 153 -425 153 -404"/><polygon fill="none" stroke="#000" points="14 -404 14 -425 153 -425 153 -404"/><text x="17" y="-410.8" font-family="Times,serif" font-size="14">locale</text><polygon fill="#eee" stroke="transparent" points="14 -383 14 -404 153 -404 153 -383"/><polygon fill="none" stroke="#000" points="14 -383 14 -404 153 -404 153 -383"/><text x="17" y="-389.8" font-family="Times,serif" font-size="14">edits_pending</text><polygon fill="#eee" stroke="transparent" points="14 -362 14 -383 153 -383 153 -362"/><polygon fill="none" stroke="#000" points="14 -362 14 -383 153 -383 153 -362"/><text x="17" y="-368.8" font-family="Times,serif" font-size="14">last_updated</text><polygon fill="#f8d1be" stroke="transparent" points="14 -341 14 -362 153 -362 153 -341"/><polygon fill="none" stroke="#000" points="14 -341 14 -362 153 -362 153 -341"/><text x="17" y="-347.8" font-family="Times,serif" font-size="14">type</text><polygon fill="#eee" stroke="transparent" points="14 -320 14 -341 153 -341 153 -320"/><polygon fill="none" stroke="#000" points="14 -320 14 -341 153 -341 153 -320"/><text x="17" y="-326.8" font-family="Times,serif" font-size="14">sort_name</text><polygon fill="#eee" stroke="transparent" points="14 -299 14 -320 153 -320 153 -299"/><polygon fill="none" stroke="#000" points="14 -299 14 -320 153 -320 153 -299"/><text x="17" y="-305.8" font-family="Times,serif" font-size="14">begin_date_year</text><polygon fill="#eee" stroke="transparent" points="14 -278 14 -299 153 -299 153 -278"/><polygon fill="none" stroke="#000" points="14 -278 14 -299 153 -299 153 -278"/><text x="17" y="-284.8" font-family="Times,serif" font-size="14">begin_date_month</text><polygon fill="#eee" stroke="transparent" points="14 -257 14 -278 153 -278 153 -257"/><polygon fill="none" stroke="#000" points="14 -257 14 -278 153 -278 153 -257"/><text x="17" y="-263.8" font-family="Times,serif" font-size="14">begin_date_day</text><polygon fill="#eee" stroke="transparent" points="14 -236 14 -257 153 -257 153 -236"/><polygon fill="none" stroke="#000" points="14 -236 14 -257 153 -257 153 -236"/><text x="17" y="-242.8" font-family="Times,serif" font-size="14">end_date_year</text><polygon fill="#eee" stroke="transparent" points="14 -215 14 -236 153 -236 153 -215"/><polygon fill="none" stroke="#000" points="14 -215 14 -236 153 -236 153 -215"/><text x="17" y="-221.8" font-family="Times,serif" font-size="14">end_date_month</text><polygon fill="#eee" stroke="transparent" points="14 -194 14 -215 153 -215 153 -194"/><polygon fill="none" stroke="#000" points="14 -194 14 -215 153 -215 153 -194"/><text x="17" y="-200.8" font-family="Times,serif" font-size="14">end_date_day</text><polygon fill="#eee" stroke="transparent" points="14 -173 14 -194 153 -194 153 -173"/><polygon fill="none" stroke="#000" points="14 -173 14 -194 153 -194 153 -173"/><text x="17" y="-179.8" font-family="Times,serif" font-size="14">primary_for_locale</text><polygon fill="#eee" stroke="transparent" points="14 -152 14 -173 153 -173 153 -152"/><polygon fill="none" stroke="#000" points="14 -152 14 -173 153 -173 153 -152"/><text x="17" y="-158.8" font-family="Times,serif" font-size="14">ended</text></g><g class="edge"><title>musicbrainz.place_alias:place-&gt;musicbrainz.place:id</title><path fill="none" stroke="#000" d="m154-457c28.422 0 10.174-154.17 44.183-163.28"/><polygon stroke="#000" points="196.67 -625.35 207 -623 197.46 -618.39"/></g><g class="node"><title>musicbrainz.place_alias_type</title><polygon fill="#eee" stroke="transparent" points="202 -232 202 -257 350 -257 350 -232"/><polygon fill="none" stroke="#000" points="202 -232 202 -257 350 -257 350 -232"/><text x="205" y="-240.4" font-family="Times,serif" font-size="17">place_alias_type</text><polygon fill="#f0976c" stroke="transparent" points="202 -211 202 -232 350 -232 350 -211"/><polygon fill="none" stroke="#000" points="202 -211 202 -232 350 -232 350 -211"/><text x="205" y="-218.8" font-family="Times,serif" font-size="14" text-decoration="underline">id</text><polygon fill="#eee" stroke="transparent" points="202 -190 202 -211 350 -211 350 -190"/><polygon fill="none" stroke="#000" points="202 -190 202 -211 350 -211 350 -190"/><text x="205" y="-196.8" font-family="Times,serif" font-size="14">name</text><polygon fill="#f8d1be" stroke="transparent" points="202 -169 202 -190 350 -190 350 -169"/><polygon fill="none" stroke="#000" points="202 -169 202 -190 350 -190 350 -169"/><text x="205" y="-175.8" font-family="Times,serif" font-size="14">parent</text><polygon fill="#eee" stroke="transparent" points="202 -148 202 -169 350 -169 350 -148"/><polygon fill="none" stroke="#000" points="202 -148 202 -169 350 -169 350 -148"/><text x="205" y="-154.8" font-family="Times,serif" font-size="14">child_order</text><polygon fill="#eee" stroke="transparent" points="202 -127 202 -148 350 -148 350 -127"/><polygon fill="none" stroke="#000" points="202 -127 202 -148 350 -148 350 -127"/><text x="205" y="-133.8" font-family="Times,serif" font-size="14">description</text><polygon fill="#eee" stroke="transparent" points="202 -106 202 -127 350 -127 350 -106"/><polygon fill="none" stroke="#000" points="202 -106 202 -127 350 -127 350 -106"/><text x="205" y="-112.8" font-family="Times,serif" font-size="14">gid</text></g><g class="edge"><title>musicbrainz.place_alias:type-&gt;musicbrainz.place_alias_type:id</title><path fill="none" stroke="#000" d="m154-352c57.74 0-4.73 114.26 37.99 128.54"/><polygon stroke="#000" points="192.61 -226.91 202 -222 191.6 -219.98"/></g><g class="node"><title>musicbrainz.place_annotation</title><polygon fill="#eee" stroke="transparent" points="5 -800 5 -825 161 -825 161 -800"/><polygon fill="none" stroke="#000" points="5 -800 5 -825 161 -825 161 -800"/><text x="8" y="-808.4" font-family="Times,serif" font-size="17">place_annotation</text><polygon fill="#f0976c" stroke="transparent" points="5 -779 5 -800 161 -800 161 -779"/><polygon fill="none" stroke="#000" points="5 -779 5 -800 161 -800 161 -779"/><text x="8" y="-786.8" font-family="Times,serif" font-size="14" text-decoration="underline">place</text><polygon fill="#f0976c" stroke="transparent" points="5 -758 5 -779 161 -779 161 -758"/><polygon fill="none" stroke="#000" points="5 -758 5 -779 161 -779 161 -758"/><text x="8" y="-765.8" font-family="Times,serif" font-size="14" text-decoration="underline">annotation</text></g><g class="edge"><title>musicbrainz.place_annotation:annotation-&gt;musicbrainz.annotation:id</title><path fill="none" stroke="#000" d="m162-768c24.31 0 32.75-2.26 52.85-2.86"/><polygon stroke="#000" points="214.95 -774.36 225 -771 215.05 -767.36"/></g><g class="edge"><title>musicbrainz.place_annotation:place-&gt;musicbrainz.place:id</title><path fill="none" stroke="#000" d="m162-789c72.56 0-20.96 149.57 34.73 164.76"/><polygon stroke="#000" points="197.49 -627.67 207 -623 196.65 -620.73"/></g><g class="node"><title>musicbrainz.place_gid_redirect</title><polygon fill="#eee" stroke="transparent" points="0 -604 0 -629 166 -629 166 -604"/><polygon fill="none" stroke="#000" points="0 -604 0 -629 166 -629 166 -604"/><text x="3" y="-612.4" font-family="Times,serif" font-size="17">place_gid_redirect</text><polygon fill="#f0976c" stroke="transparent" points="0 -583 0 -604 166 -604 166 -583"/><polygon fill="none" stroke="#000" points="0 -583 0 -604 166 -604 166 -583"/><text x="3" y="-590.8" font-family="Times,serif" font-size="14" text-decoration="underline">gid</text><polygon fill="#f8d1be" stroke="transparent" points="0 -562 0 -583 166 -583 166 -562"/><polygon fill="none" stroke="#000" points="0 -562 0 -583 166 -583 166 -562"/><text x="3" y="-568.8" font-family="Times,serif" font-size="14">new_id</text><polygon fill="#eee" stroke="transparent" points="0 -541 0 -562 166 -562 166 -541"/><polygon fill="none" stroke="#000" points="0 -541 0 -562 166 -562 166 -541"/><text x="3" y="-547.8" font-family="Times,serif" font-size="14">created</text></g><g class="edge"><title>musicbrainz.place_gid_redirect:new_id-&gt;musicbrainz.place:id</title><path fill="none" stroke="#000" d="m166-572c18.583 0 1.0915-48.26 31.22-48.26"/><polygon stroke="#000" points="196.43 -623.67 207 -623 198.32 -616.93"/></g><g class="node"><title>musicbrainz.place_meta</title><polygon fill="#eee" stroke="transparent" points="31 -710 31 -735 135 -735 135 -710"/><polygon fill="none" stroke="#000" points="31 -710 31 -735 135 -735 135 -710"/><text x="34" y="-718.4" font-family="Times,serif" font-size="17">place_meta</text><polygon fill="#f0976c" stroke="transparent" points="31 -689 31 -710 135 -710 135 -689"/><polygon fill="none" stroke="#000" points="31 -689 31 -710 135 -710 135 -689"/><text x="34" y="-696.8" font-family="Times,serif" font-size="14" text-decoration="underline">id</text><polygon fill="#eee" stroke="transparent" points="31 -668 31 -689 135 -689 135 -668"/><polygon fill="none" stroke="#000" points="31 -668 31 -689 135 -689 135 -668"/><text x="34" y="-674.8" font-family="Times,serif" font-size="14">rating</text><polygon fill="#eee" stroke="transparent" points="31 -647 31 -668 135 -668 135 -647"/><polygon fill="none" stroke="#000" points="31 -647 31 -668 135 -668 135 -647"/><text x="34" y="-653.8" font-family="Times,serif" font-size="14">rating_count</text></g><g class="edge"><title>musicbrainz.place_meta:id-&gt;musicbrainz.place:id</title><path fill="none" stroke="#000" d="m136-700c42.73 0 28.163 72.548 60.85 75.53"/><polygon stroke="#000" points="197.6 -627.9 207 -623 196.6 -620.97"/></g><g class="node"><title>musicbrainz.place_tag</title><polygon fill="#eee" stroke="transparent" points="34 -88 34 -113 132 -113 132 -88"/><polygon fill="none" stroke="#000" points="34 -88 34 -113 132 -113 132 -88"/><text x="41" y="-96.4" font-family="Times,serif" font-size="17">place_tag</text><polygon fill="#f0976c" stroke="transparent" points="34 -67 34 -88 132 -88 132 -67"/><polygon fill="none" stroke="#000" points="34 -67 34 -88 132 -88 132 -67"/><text x="37" y="-74.8" font-family="Times,serif" font-size="14" text-decoration="underline">place</text><polygon fill="#f0976c" stroke="transparent" points="34 -46 34 -67 132 -67 132 -46"/><polygon fill="none" stroke="#000" points="34 -46 34 -67 132 -67 132 -46"/><text x="37" y="-53.8" font-family="Times,serif" font-size="14" text-decoration="underline">tag</text><polygon fill="#eee" stroke="transparent" points="34 -25 34 -46 132 -46 132 -25"/><polygon fill="none" stroke="#000" points="34 -25 34 -46 132 -46 132 -25"/><text x="37" y="-31.8" font-family="Times,serif" font-size="14">count</text><polygon fill="#eee" stroke="transparent" points="34 -4 34 -25 132 -25 132 -4"/><polygon fill="none" stroke="#000" points="34 -4 34 -25 132 -25 132 -4"/><text x="37" y="-10.8" font-family="Times,serif" font-size="14">last_updated</text></g><g class="edge"><title>musicbrainz.place_tag:place-&gt;musicbrainz.place:id</title><path fill="none" stroke="#000" d="m133-78c19.627 0 24.11-3.2263 33-34.796 13.58-48.2-8.6624-462 32.458-509.17"/><polygon stroke="#000" points="196.52 -621.42 207 -623 199.8 -615.23"/></g><g class="node"><title>musicbrainz.tag</title><polygon fill="#eee" stroke="transparent" points="240 -63 240 -88 313 -88 313 -63"/><polygon fill="none" stroke="#000" points="240 -63 240 -88 313 -88 313 -63"/><text x="262" y="-71.4" font-family="Times,serif" font-size="17">tag</text><polygon fill="#f0976c" stroke="transparent" points="240 -42 240 -63 313 -63 313 -42"/><polygon fill="none" stroke="#000" points="240 -42 240 -63 313 -63 313 -42"/><text x="243" y="-49.8" font-family="Times,serif" font-size="14" text-decoration="underline">id</text><polygon fill="#eee" stroke="transparent" points="240 -21 240 -42 313 -42 313 -21"/><polygon fill="none" stroke="#000" points="240 -21 240 -42 313 -42 313 -21"/><text x="243" y="-27.8" font-family="Times,serif" font-size="14">name</text><polygon fill="#eee" stroke="transparent" points="240 0 240 -21 313 -21 313 0"/><polygon fill="none" stroke="#000" points="240 0 240 -21 313 -21 313 0"/><text x="243" y="-6.8" font-family="Times,serif" font-size="14">ref_count</text></g><g class="edge"><title>musicbrainz.place_tag:tag-&gt;musicbrainz.tag:id</title><path fill="none" stroke="#000" d="m133-56c43.45 0 56.82 2.55 95.57 2.95"/><polygon stroke="#000" points="229.02 -56.55 239 -53 228.98 -49.55"/></g></g></svg>