<svg xmlns="http://www.w3.org/2000/svg" xmlns:xlink="http://www.w3.org/1999/xlink" width="888" height="922pt" version="1.1" viewBox="0 0 666 921.5"><g class="graph" transform="scale(1) translate(4 917.5)"><title>recording_entity_details</title><a xlink:title="Tables for the “recording” entity type properties"><polygon fill="#e8c2da" stroke="transparent" points="-4 4 -4 -917.5 662 -917.5 662 4"/></a><g class="node"><title>musicbrainz.annotation</title><polygon fill="#eee" stroke="transparent" points="366.5 -866 366.5 -891 467.5 -891 467.5 -866"/><polygon fill="none" stroke="#000" points="366.5 -866 366.5 -891 467.5 -891 467.5 -866"/><text x="369.5" y="-874.4" font-family="Times,serif" font-size="17">annotation</text><polygon fill="#f0976c" stroke="transparent" points="366.5 -845 366.5 -866 467.5 -866 467.5 -845"/><polygon fill="none" stroke="#000" points="366.5 -845 366.5 -866 467.5 -866 467.5 -845"/><text x="369.5" y="-852.8" font-family="Times,serif" font-size="14" text-decoration="underline">id</text><polygon fill="#eee" stroke="transparent" points="366.5 -824 366.5 -845 467.5 -845 467.5 -824"/><polygon fill="none" stroke="#000" points="366.5 -824 366.5 -845 467.5 -845 467.5 -824"/><text x="369.5" y="-830.8" font-family="Times,serif" font-size="14">editor</text><polygon fill="#eee" stroke="transparent" points="366.5 -803 366.5 -824 467.5 -824 467.5 -803"/><polygon fill="none" stroke="#000" points="366.5 -803 366.5 -824 467.5 -824 467.5 -803"/><text x="369.5" y="-809.8" font-family="Times,serif" font-size="14">text</text><polygon fill="#eee" stroke="transparent" points="366.5 -782 366.5 -803 467.5 -803 467.5 -782"/><polygon fill="none" stroke="#000" points="366.5 -782 366.5 -803 467.5 -803 467.5 -782"/><text x="369.5" y="-788.8" font-family="Times,serif" font-size="14">changelog</text><polygon fill="#eee" stroke="transparent" points="366.5 -761 366.5 -782 467.5 -782 467.5 -761"/><polygon fill="none" stroke="#000" points="366.5 -761 366.5 -782 467.5 -782 467.5 -761"/><text x="369.5" y="-767.8" font-family="Times,serif" font-size="14">created</text></g><g class="node"><title>musicbrainz.artist</title><polygon fill="#eee" stroke="transparent" points="576 -380 576 -405 629 -405 629 -380"/><polygon fill="none" stroke="#000" points="576 -380 576 -405 629 -405 629 -380"/><text x="579" y="-388.4" font-family="Times,serif" font-size="17">artist</text><polygon fill="#f0976c" stroke="transparent" points="576 -359 576 -380 629 -380 629 -359"/><polygon fill="none" stroke="#000" points="576 -359 576 -380 629 -380 629 -359"/><text x="579" y="-366.8" font-family="Times,serif" font-size="14" text-decoration="underline">id</text><polygon fill="#eee" stroke="transparent" points="576 -338 576 -359 629 -359 629 -338"/><polygon fill="none" stroke="#000" points="576 -338 576 -359 629 -359 629 -338"/><text x="579" y="-344.8" font-family="Times,serif" font-size="14">...</text></g><g class="node"><title>musicbrainz.artist_credit</title><polygon fill="#eee" stroke="transparent" points="546 -581 546 -606 658 -606 658 -581"/><polygon fill="none" stroke="#000" points="546 -581 546 -606 658 -606 658 -581"/><text x="549" y="-589.4" font-family="Times,serif" font-size="17">artist_credit</text><polygon fill="#f0976c" stroke="transparent" points="546 -560 546 -581 658 -581 658 -560"/><polygon fill="none" stroke="#000" points="546 -560 546 -581 658 -581 658 -560"/><text x="549" y="-567.8" font-family="Times,serif" font-size="14" text-decoration="underline">id</text><polygon fill="#eee" stroke="transparent" points="546 -539 546 -560 658 -560 658 -539"/><polygon fill="none" stroke="#000" points="546 -539 546 -560 658 -560 658 -539"/><text x="549" y="-545.8" font-family="Times,serif" font-size="14">name</text><polygon fill="#eee" stroke="transparent" points="546 -518 546 -539 658 -539 658 -518"/><polygon fill="none" stroke="#000" points="546 -518 546 -539 658 -539 658 -518"/><text x="549" y="-524.8" font-family="Times,serif" font-size="14">artist_count</text><polygon fill="#eee" stroke="transparent" points="546 -497 546 -518 658 -518 658 -497"/><polygon fill="none" stroke="#000" points="546 -497 546 -518 658 -518 658 -497"/><text x="549" y="-503.8" font-family="Times,serif" font-size="14">ref_count</text><polygon fill="#eee" stroke="transparent" points="546 -476 546 -497 658 -497 658 -476"/><polygon fill="none" stroke="#000" points="546 -476 546 -497 658 -497 658 -476"/><text x="549" y="-482.8" font-family="Times,serif" font-size="14">created</text><polygon fill="#eee" stroke="transparent" points="546 -455 546 -476 658 -476 658 -455"/><polygon fill="none" stroke="#000" points="546 -455 546 -476 658 -476 658 -455"/><text x="549" y="-461.8" font-family="Times,serif" font-size="14">edits_pending</text><polygon fill="#eee" stroke="transparent" points="546 -434 546 -455 658 -455 658 -434"/><polygon fill="none" stroke="#000" points="546 -434 546 -455 658 -455 658 -434"/><text x="549" y="-440.8" font-family="Times,serif" font-size="14">gid</text></g><g class="node"><title>musicbrainz.artist_credit_name</title><polygon fill="#eee" stroke="transparent" points="332.5 -422 332.5 -447 500.5 -447 500.5 -422"/><polygon fill="none" stroke="#000" points="332.5 -422 332.5 -447 500.5 -447 500.5 -422"/><text x="335.5" y="-430.4" font-family="Times,serif" font-size="17">artist_credit_name</text><polygon fill="#f0976c" stroke="transparent" points="332.5 -401 332.5 -422 500.5 -422 500.5 -401"/><polygon fill="none" stroke="#000" points="332.5 -401 332.5 -422 500.5 -422 500.5 -401"/><text x="335.5" y="-408.8" font-family="Times,serif" font-size="14" text-decoration="underline">artist_credit</text><polygon fill="#f0976c" stroke="transparent" points="332.5 -380 332.5 -401 500.5 -401 500.5 -380"/><polygon fill="none" stroke="#000" points="332.5 -380 332.5 -401 500.5 -401 500.5 -380"/><text x="335.5" y="-387.8" font-family="Times,serif" font-size="14" text-decoration="underline">position</text><polygon fill="#f8d1be" stroke="transparent" points="332.5 -359 332.5 -380 500.5 -380 500.5 -359"/><polygon fill="none" stroke="#000" points="332.5 -359 332.5 -380 500.5 -380 500.5 -359"/><text x="335.5" y="-365.8" font-family="Times,serif" font-size="14">artist</text><polygon fill="#eee" stroke="transparent" points="332.5 -338 332.5 -359 500.5 -359 500.5 -338"/><polygon fill="none" stroke="#000" points="332.5 -338 332.5 -359 500.5 -359 500.5 -338"/><text x="335.5" y="-344.8" font-family="Times,serif" font-size="14">name</text><polygon fill="#eee" stroke="transparent" points="332.5 -317 332.5 -338 500.5 -338 500.5 -317"/><polygon fill="none" stroke="#000" points="332.5 -317 332.5 -338 500.5 -338 500.5 -317"/><text x="335.5" y="-323.8" font-family="Times,serif" font-size="14">join_phrase</text></g><g class="edge"><title>musicbrainz.artist_credit_name:artist-&gt;musicbrainz.artist:id</title><path fill="none" stroke="#000" d="m501.5-369h63.27"/><polygon stroke="#000" points="565 -372.5 575 -369 565 -365.5"/></g><g class="edge"><title>musicbrainz.artist_credit_name:artist_credit-&gt;musicbrainz.artist_credit:id</title><path fill="none" stroke="#000" d="m501.5-412c69.51 0-18.58-142.67 34.3-157.72"/><polygon stroke="#000" points="535.64 -573.23 546 -571 536.51 -566.28"/></g><g class="node"><title>musicbrainz.recording</title><polygon fill="#eb743b" stroke="transparent" points="363.5 -654 363.5 -679 469.5 -679 469.5 -654"/><polygon fill="none" stroke="#000" points="363.5 -654 363.5 -679 469.5 -679 469.5 -654"/><text x="373.5" y="-662.4" font-family="Times,serif" font-size="17">recording</text><polygon fill="#f0976c" stroke="transparent" points="363.5 -633 363.5 -654 469.5 -654 469.5 -633"/><polygon fill="none" stroke="#000" points="363.5 -633 363.5 -654 469.5 -654 469.5 -633"/><text x="366.5" y="-640.8" font-family="Times,serif" font-size="14" text-decoration="underline">id</text><polygon fill="#eee" stroke="transparent" points="363.5 -612 363.5 -633 469.5 -633 469.5 -612"/><polygon fill="none" stroke="#000" points="363.5 -612 363.5 -633 469.5 -633 469.5 -612"/><text x="366.5" y="-618.8" font-family="Times,serif" font-size="14">gid</text><polygon fill="#eee" stroke="transparent" points="363.5 -591 363.5 -612 469.5 -612 469.5 -591"/><polygon fill="none" stroke="#000" points="363.5 -591 363.5 -612 469.5 -612 469.5 -591"/><text x="366.5" y="-597.8" font-family="Times,serif" font-size="14">name</text><polygon fill="#f8d1be" stroke="transparent" points="363.5 -570 363.5 -591 469.5 -591 469.5 -570"/><polygon fill="none" stroke="#000" points="363.5 -570 363.5 -591 469.5 -591 469.5 -570"/><text x="366.5" y="-576.8" font-family="Times,serif" font-size="14">artist_credit</text><polygon fill="#eee" stroke="transparent" points="363.5 -549 363.5 -570 469.5 -570 469.5 -549"/><polygon fill="none" stroke="#000" points="363.5 -549 363.5 -570 469.5 -570 469.5 -549"/><text x="366.5" y="-555.8" font-family="Times,serif" font-size="14">length</text><polygon fill="#eee" stroke="transparent" points="363.5 -528 363.5 -549 469.5 -549 469.5 -528"/><polygon fill="none" stroke="#000" points="363.5 -528 363.5 -549 469.5 -549 469.5 -528"/><text x="366.5" y="-534.8" font-family="Times,serif" font-size="14">comment</text><polygon fill="#eee" stroke="transparent" points="363.5 -507 363.5 -528 469.5 -528 469.5 -507"/><polygon fill="none" stroke="#000" points="363.5 -507 363.5 -528 469.5 -528 469.5 -507"/><text x="366.5" y="-513.8" font-family="Times,serif" font-size="14">edits_pending</text><polygon fill="#eee" stroke="transparent" points="363.5 -486 363.5 -507 469.5 -507 469.5 -486"/><polygon fill="none" stroke="#000" points="363.5 -486 363.5 -507 469.5 -507 469.5 -486"/><text x="366.5" y="-492.8" font-family="Times,serif" font-size="14">last_updated</text><polygon fill="#eee" stroke="transparent" points="363.5 -465 363.5 -486 469.5 -486 469.5 -465"/><polygon fill="none" stroke="#000" points="363.5 -465 363.5 -486 469.5 -486 469.5 -465"/><text x="366.5" y="-471.8" font-family="Times,serif" font-size="14">video</text></g><g class="edge"><title>musicbrainz.recording:artist_credit-&gt;musicbrainz.artist_credit:id</title><path fill="none" stroke="#000" d="m470.5-581c30.15 0 39.63 7.93 65.26 9.67"/><polygon stroke="#000" points="536.12 -574.82 546 -571 535.89 -567.83"/></g><g class="node"><title>musicbrainz.recording_alias</title><polygon fill="#eee" stroke="transparent" points="73.5 -464 73.5 -489 214.5 -489 214.5 -464"/><polygon fill="none" stroke="#000" points="73.5 -464 73.5 -489 214.5 -489 214.5 -464"/><text x="76.5" y="-472.4" font-family="Times,serif" font-size="17">recording_alias</text><polygon fill="#f0976c" stroke="transparent" points="73.5 -443 73.5 -464 214.5 -464 214.5 -443"/><polygon fill="none" stroke="#000" points="73.5 -443 73.5 -464 214.5 -464 214.5 -443"/><text x="76.5" y="-450.8" font-family="Times,serif" font-size="14" text-decoration="underline">id</text><polygon fill="#f8d1be" stroke="transparent" points="73.5 -422 73.5 -443 214.5 -443 214.5 -422"/><polygon fill="none" stroke="#000" points="73.5 -422 73.5 -443 214.5 -443 214.5 -422"/><text x="76.5" y="-428.8" font-family="Times,serif" font-size="14">recording</text><polygon fill="#eee" stroke="transparent" points="73.5 -401 73.5 -422 214.5 -422 214.5 -401"/><polygon fill="none" stroke="#000" points="73.5 -401 73.5 -422 214.5 -422 214.5 -401"/><text x="76.5" y="-407.8" font-family="Times,serif" font-size="14">name</text><polygon fill="#eee" stroke="transparent" points="73.5 -380 73.5 -401 214.5 -401 214.5 -380"/><polygon fill="none" stroke="#000" points="73.5 -380 73.5 -401 214.5 -401 214.5 -380"/><text x="76.5" y="-386.8" font-family="Times,serif" font-size="14">locale</text><polygon fill="#eee" stroke="transparent" points="73.5 -359 73.5 -380 214.5 -380 214.5 -359"/><polygon fill="none" stroke="#000" points="73.5 -359 73.5 -380 214.5 -380 214.5 -359"/><text x="76.5" y="-365.8" font-family="Times,serif" font-size="14">edits_pending</text><polygon fill="#eee" stroke="transparent" points="73.5 -338 73.5 -359 214.5 -359 214.5 -338"/><polygon fill="none" stroke="#000" points="73.5 -338 73.5 -359 214.5 -359 214.5 -338"/><text x="76.5" y="-344.8" font-family="Times,serif" font-size="14">last_updated</text><polygon fill="#f8d1be" stroke="transparent" points="73.5 -317 73.5 -338 214.5 -338 214.5 -317"/><polygon fill="none" stroke="#000" points="73.5 -317 73.5 -338 214.5 -338 214.5 -317"/><text x="76.5" y="-323.8" font-family="Times,serif" font-size="14">type</text><polygon fill="#eee" stroke="transparent" points="73.5 -296 73.5 -317 214.5 -317 214.5 -296"/><polygon fill="none" stroke="#000" points="73.5 -296 73.5 -317 214.5 -317 214.5 -296"/><text x="76.5" y="-302.8" font-family="Times,serif" font-size="14">sort_name</text><polygon fill="#eee" stroke="transparent" points="73.5 -275 73.5 -296 214.5 -296 214.5 -275"/><polygon fill="none" stroke="#000" points="73.5 -275 73.5 -296 214.5 -296 214.5 -275"/><text x="76.5" y="-281.8" font-family="Times,serif" font-size="14">begin_date_year</text><polygon fill="#eee" stroke="transparent" points="73.5 -254 73.5 -275 214.5 -275 214.5 -254"/><polygon fill="none" stroke="#000" points="73.5 -254 73.5 -275 214.5 -275 214.5 -254"/><text x="76.5" y="-260.8" font-family="Times,serif" font-size="14">begin_date_month</text><polygon fill="#eee" stroke="transparent" points="73.5 -233 73.5 -254 214.5 -254 214.5 -233"/><polygon fill="none" stroke="#000" points="73.5 -233 73.5 -254 214.5 -254 214.5 -233"/><text x="76.5" y="-239.8" font-family="Times,serif" font-size="14">begin_date_day</text><polygon fill="#eee" stroke="transparent" points="73.5 -212 73.5 -233 214.5 -233 214.5 -212"/><polygon fill="none" stroke="#000" points="73.5 -212 73.5 -233 214.5 -233 214.5 -212"/><text x="76.5" y="-218.8" font-family="Times,serif" font-size="14">end_date_year</text><polygon fill="#eee" stroke="transparent" points="73.5 -191 73.5 -212 214.5 -212 214.5 -191"/><polygon fill="none" stroke="#000" points="73.5 -191 73.5 -212 214.5 -212 214.5 -191"/><text x="76.5" y="-197.8" font-family="Times,serif" font-size="14">end_date_month</text><polygon fill="#eee" stroke="transparent" points="73.5 -170 73.5 -191 214.5 -191 214.5 -170"/><polygon fill="none" stroke="#000" points="73.5 -170 73.5 -191 214.5 -191 214.5 -170"/><text x="76.5" y="-176.8" font-family="Times,serif" font-size="14">end_date_day</text><polygon fill="#eee" stroke="transparent" points="73.5 -149 73.5 -170 214.5 -170 214.5 -149"/><polygon fill="none" stroke="#000" points="73.5 -149 73.5 -170 214.5 -170 214.5 -149"/><text x="76.5" y="-155.8" font-family="Times,serif" font-size="14">primary_for_locale</text><polygon fill="#eee" stroke="transparent" points="73.5 -128 73.5 -149 214.5 -149 214.5 -128"/><polygon fill="none" stroke="#000" points="73.5 -128 73.5 -149 214.5 -149 214.5 -128"/><text x="76.5" y="-134.8" font-family="Times,serif" font-size="14">ended</text></g><g class="edge"><title>musicbrainz.recording_alias:recording-&gt;musicbrainz.recording:id</title><path fill="none" stroke="#000" d="m215.5-433c107.73 0 38.296-183.95 136.74-210.33"/><polygon stroke="#000" points="352.29 -646.85 362.5 -644 352.75 -639.86"/></g><g class="node"><title>musicbrainz.recording_alias_type</title><polygon fill="#eee" stroke="transparent" points="323.5 -273 323.5 -298 510.5 -298 510.5 -273"/><polygon fill="none" stroke="#000" points="323.5 -273 323.5 -298 510.5 -298 510.5 -273"/><text x="326.5" y="-281.4" font-family="Times,serif" font-size="17">recording_alias_type</text><polygon fill="#f0976c" stroke="transparent" points="323.5 -252 323.5 -273 510.5 -273 510.5 -252"/><polygon fill="none" stroke="#000" points="323.5 -252 323.5 -273 510.5 -273 510.5 -252"/><text x="326.5" y="-259.8" font-family="Times,serif" font-size="14" text-decoration="underline">id</text><polygon fill="#eee" stroke="transparent" points="323.5 -231 323.5 -252 510.5 -252 510.5 -231"/><polygon fill="none" stroke="#000" points="323.5 -231 323.5 -252 510.5 -252 510.5 -231"/><text x="326.5" y="-237.8" font-family="Times,serif" font-size="14">name</text><polygon fill="#f8d1be" stroke="transparent" points="323.5 -210 323.5 -231 510.5 -231 510.5 -210"/><polygon fill="none" stroke="#000" points="323.5 -210 323.5 -231 510.5 -231 510.5 -210"/><text x="326.5" y="-216.8" font-family="Times,serif" font-size="14">parent</text><polygon fill="#eee" stroke="transparent" points="323.5 -189 323.5 -210 510.5 -210 510.5 -189"/><polygon fill="none" stroke="#000" points="323.5 -189 323.5 -210 510.5 -210 510.5 -189"/><text x="326.5" y="-195.8" font-family="Times,serif" font-size="14">child_order</text><polygon fill="#eee" stroke="transparent" points="323.5 -168 323.5 -189 510.5 -189 510.5 -168"/><polygon fill="none" stroke="#000" points="323.5 -168 323.5 -189 510.5 -189 510.5 -168"/><text x="326.5" y="-174.8" font-family="Times,serif" font-size="14">description</text><polygon fill="#eee" stroke="transparent" points="323.5 -147 323.5 -168 510.5 -168 510.5 -147"/><polygon fill="none" stroke="#000" points="323.5 -147 323.5 -168 510.5 -168 510.5 -147"/><text x="326.5" y="-153.8" font-family="Times,serif" font-size="14">gid</text></g><g class="edge"><title>musicbrainz.recording_alias:type-&gt;musicbrainz.recording_alias_type:id</title><path fill="none" stroke="#000" d="m215.5-328c52.23 0 51.96 56.89 97.42 64.22"/><polygon stroke="#000" points="313.3 -267.26 323 -263 312.76 -260.28"/></g><g class="node"><title>musicbrainz.recording_annotation</title><polygon fill="#eee" stroke="transparent" points="46.5 -888 46.5 -913 241.5 -913 241.5 -888"/><polygon fill="none" stroke="#000" points="46.5 -888 46.5 -913 241.5 -913 241.5 -888"/><text x="49.5" y="-896.4" font-family="Times,serif" font-size="17">recording_annotation</text><polygon fill="#f0976c" stroke="transparent" points="46.5 -867 46.5 -888 241.5 -888 241.5 -867"/><polygon fill="none" stroke="#000" points="46.5 -867 46.5 -888 241.5 -888 241.5 -867"/><text x="49.5" y="-874.8" font-family="Times,serif" font-size="14" text-decoration="underline">recording</text><polygon fill="#f0976c" stroke="transparent" points="46.5 -846 46.5 -867 241.5 -867 241.5 -846"/><polygon fill="none" stroke="#000" points="46.5 -846 46.5 -867 241.5 -867 241.5 -846"/><text x="49.5" y="-853.8" font-family="Times,serif" font-size="14" text-decoration="underline">annotation</text></g><g class="edge"><title>musicbrainz.recording_annotation:annotation-&gt;musicbrainz.annotation:id</title><path fill="none" stroke="#000" d="m242.5-856h112.92"/><polygon stroke="#000" points="355.5 -859.5 365.5 -856 355.5 -852.5"/></g><g class="edge"><title>musicbrainz.recording_annotation:recording-&gt;musicbrainz.recording:id</title><path fill="none" stroke="#000" d="m242.5-877c124.47 0 39.494 220 111.03 229.83"/><polygon stroke="#000" points="352.75 -648.14 362.5 -644 352.29 -641.16"/></g><g class="node"><title>musicbrainz.recording_first_release_date</title><polygon fill="#eee" stroke="transparent" points=".5 -803 .5 -828 287.5 -828 287.5 -803"/><polygon fill="none" stroke="#000" points=".5 -803 .5 -828 287.5 -828 287.5 -803"/><text x="3.5" y="-811.4" font-family="Times,serif" font-size="17">recording_first_release_date (m)</text><polygon fill="#f0976c" stroke="transparent" points=".5 -782 .5 -803 287.5 -803 287.5 -782"/><polygon fill="none" stroke="#000" points=".5 -782 .5 -803 287.5 -803 287.5 -782"/><text x="3.5" y="-789.8" font-family="Times,serif" font-size="14" text-decoration="underline">recording</text><polygon fill="#eee" stroke="transparent" points=".5 -761 .5 -782 287.5 -782 287.5 -761"/><polygon fill="none" stroke="#000" points=".5 -761 .5 -782 287.5 -782 287.5 -761"/><text x="3.5" y="-767.8" font-family="Times,serif" font-size="14">year</text><polygon fill="#eee" stroke="transparent" points=".5 -740 .5 -761 287.5 -761 287.5 -740"/><polygon fill="none" stroke="#000" points=".5 -740 .5 -761 287.5 -761 287.5 -740"/><text x="3.5" y="-746.8" font-family="Times,serif" font-size="14">month</text><polygon fill="#eee" stroke="transparent" points=".5 -719 .5 -740 287.5 -740 287.5 -719"/><polygon fill="none" stroke="#000" points=".5 -719 .5 -740 287.5 -740 287.5 -719"/><text x="3.5" y="-725.8" font-family="Times,serif" font-size="14">day</text></g><g class="edge"><title>musicbrainz.recording_first_release_date:recording-&gt;musicbrainz.recording:id</title><path fill="none" stroke="#000" d="m287-793c36.195 0 4.5256 147.56 66.323 147.56"/><polygon stroke="#000" points="354.43 -650.86 362.5 -644 351.91 -644.33"/></g><g class="node"><title>musicbrainz.recording_gid_redirect</title><polygon fill="#eee" stroke="transparent" points="41.5 -676 41.5 -701 246.5 -701 246.5 -676"/><polygon fill="none" stroke="#000" points="41.5 -676 41.5 -701 246.5 -701 246.5 -676"/><text x="44.5" y="-684.4" font-family="Times,serif" font-size="17">recording_gid_redirect</text><polygon fill="#f0976c" stroke="transparent" points="41.5 -655 41.5 -676 246.5 -676 246.5 -655"/><polygon fill="none" stroke="#000" points="41.5 -655 41.5 -676 246.5 -676 246.5 -655"/><text x="44.5" y="-662.8" font-family="Times,serif" font-size="14" text-decoration="underline">gid</text><polygon fill="#f8d1be" stroke="transparent" points="41.5 -634 41.5 -655 246.5 -655 246.5 -634"/><polygon fill="none" stroke="#000" points="41.5 -634 41.5 -655 246.5 -655 246.5 -634"/><text x="44.5" y="-640.8" font-family="Times,serif" font-size="14">new_id</text><polygon fill="#eee" stroke="transparent" points="41.5 -613 41.5 -634 246.5 -634 246.5 -613"/><polygon fill="none" stroke="#000" points="41.5 -613 41.5 -634 246.5 -634 246.5 -613"/><text x="44.5" y="-619.8" font-family="Times,serif" font-size="14">created</text></g><g class="edge"><title>musicbrainz.recording_gid_redirect:new_id-&gt;musicbrainz.recording:id</title><path fill="none" stroke="#000" d="m247.5-644h104.76"/><polygon stroke="#000" points="352.5 -647.5 362.5 -644 352.5 -640.5"/></g><g class="node"><title>musicbrainz.recording_meta</title><polygon fill="#eee" stroke="transparent" points="72.5 -570 72.5 -595 215.5 -595 215.5 -570"/><polygon fill="none" stroke="#000" points="72.5 -570 72.5 -595 215.5 -595 215.5 -570"/><text x="75.5" y="-578.4" font-family="Times,serif" font-size="17">recording_meta</text><polygon fill="#f0976c" stroke="transparent" points="72.5 -549 72.5 -570 215.5 -570 215.5 -549"/><polygon fill="none" stroke="#000" points="72.5 -549 72.5 -570 215.5 -570 215.5 -549"/><text x="75.5" y="-556.8" font-family="Times,serif" font-size="14" text-decoration="underline">id</text><polygon fill="#eee" stroke="transparent" points="72.5 -528 72.5 -549 215.5 -549 215.5 -528"/><polygon fill="none" stroke="#000" points="72.5 -528 72.5 -549 215.5 -549 215.5 -528"/><text x="75.5" y="-534.8" font-family="Times,serif" font-size="14">rating</text><polygon fill="#eee" stroke="transparent" points="72.5 -507 72.5 -528 215.5 -528 215.5 -507"/><polygon fill="none" stroke="#000" points="72.5 -507 72.5 -528 215.5 -528 215.5 -507"/><text x="75.5" y="-513.8" font-family="Times,serif" font-size="14">rating_count</text></g><g class="edge"><title>musicbrainz.recording_meta:id-&gt;musicbrainz.recording:id</title><path fill="none" stroke="#000" d="m216.5-560c71.35 0 44.108-73.302 135.97-83.46"/><polygon stroke="#000" points="352.33 -646.96 362.5 -644 352.7 -639.97"/></g><g class="node"><title>musicbrainz.recording_tag</title><polygon fill="#eee" stroke="transparent" points="79.5 -85 79.5 -110 208.5 -110 208.5 -85"/><polygon fill="none" stroke="#000" points="79.5 -85 79.5 -110 208.5 -110 208.5 -85"/><text x="82.5" y="-93.4" font-family="Times,serif" font-size="17">recording_tag</text><polygon fill="#f0976c" stroke="transparent" points="79.5 -64 79.5 -85 208.5 -85 208.5 -64"/><polygon fill="none" stroke="#000" points="79.5 -64 79.5 -85 208.5 -85 208.5 -64"/><text x="82.5" y="-71.8" font-family="Times,serif" font-size="14" text-decoration="underline">recording</text><polygon fill="#f0976c" stroke="transparent" points="79.5 -43 79.5 -64 208.5 -64 208.5 -43"/><polygon fill="none" stroke="#000" points="79.5 -43 79.5 -64 208.5 -64 208.5 -43"/><text x="82.5" y="-50.8" font-family="Times,serif" font-size="14" text-decoration="underline">tag</text><polygon fill="#eee" stroke="transparent" points="79.5 -22 79.5 -43 208.5 -43 208.5 -22"/><polygon fill="none" stroke="#000" points="79.5 -22 79.5 -43 208.5 -43 208.5 -22"/><text x="82.5" y="-28.8" font-family="Times,serif" font-size="14">count</text><polygon fill="#eee" stroke="transparent" points="79.5 -1 79.5 -22 208.5 -22 208.5 -1"/><polygon fill="none" stroke="#000" points="79.5 -1 79.5 -22 208.5 -22 208.5 -1"/><text x="82.5" y="-7.8" font-family="Times,serif" font-size="14">last_updated</text></g><g class="edge"><title>musicbrainz.recording_tag:recording-&gt;musicbrainz.recording:id</title><path fill="none" stroke="#000" d="m209.5-75c132.25 0 42.286-540.94 142.65-567.83"/><polygon stroke="#000" points="352.32 -646.94 362.5 -644 352.71 -639.95"/></g><g class="node"><title>musicbrainz.tag</title><polygon fill="#eee" stroke="transparent" points="380.5 -63 380.5 -88 453.5 -88 453.5 -63"/><polygon fill="none" stroke="#000" points="380.5 -63 380.5 -88 453.5 -88 453.5 -63"/><text x="402.5" y="-71.4" font-family="Times,serif" font-size="17">tag</text><polygon fill="#f0976c" stroke="transparent" points="380.5 -42 380.5 -63 453.5 -63 453.5 -42"/><polygon fill="none" stroke="#000" points="380.5 -42 380.5 -63 453.5 -63 453.5 -42"/><text x="383.5" y="-49.8" font-family="Times,serif" font-size="14" text-decoration="underline">id</text><polygon fill="#eee" stroke="transparent" points="380.5 -21 380.5 -42 453.5 -42 453.5 -21"/><polygon fill="none" stroke="#000" points="380.5 -21 380.5 -42 453.5 -42 453.5 -21"/><text x="383.5" y="-27.8" font-family="Times,serif" font-size="14">name</text><polygon fill="#eee" stroke="transparent" points="380.5 0 380.5 -21 453.5 -21 453.5 0"/><polygon fill="none" stroke="#000" points="380.5 0 380.5 -21 453.5 -21 453.5 0"/><text x="383.5" y="-6.8" font-family="Times,serif" font-size="14">ref_count</text></g><g class="edge"><title>musicbrainz.recording_tag:tag-&gt;musicbrainz.tag:id</title><path fill="none" stroke="#000" d="m209.5-53h159.74"/><polygon stroke="#000" points="369.5 -56.5 379.5 -53 369.5 -49.5"/></g></g></svg>