<svg xmlns="http://www.w3.org/2000/svg" xmlns:xlink="http://www.w3.org/1999/xlink" width="1228" height="1433pt" version="1.1" viewBox="0 0 921 1433"><g class="graph" transform="scale(1) translate(4 1429)"><title>release_group_entity_details</title><a xlink:title="Tables for the “release_group” entity type properties"><polygon fill="#e8c2da" stroke="transparent" points="-4 4 -4 -1429 917 -1429 917 4"/></a><g class="node"><title>musicbrainz.annotation</title><polygon fill="#eee" stroke="transparent" points="437 -976 437 -1001 538 -1001 538 -976"/><polygon fill="none" stroke="#000" points="437 -976 437 -1001 538 -1001 538 -976"/><text x="440" y="-984.4" font-family="Times,serif" font-size="17">annotation</text><polygon fill="#f0976c" stroke="transparent" points="437 -955 437 -976 538 -976 538 -955"/><polygon fill="none" stroke="#000" points="437 -955 437 -976 538 -976 538 -955"/><text x="440" y="-962.8" font-family="Times,serif" font-size="14" text-decoration="underline">id</text><polygon fill="#eee" stroke="transparent" points="437 -934 437 -955 538 -955 538 -934"/><polygon fill="none" stroke="#000" points="437 -934 437 -955 538 -955 538 -934"/><text x="440" y="-940.8" font-family="Times,serif" font-size="14">editor</text><polygon fill="#eee" stroke="transparent" points="437 -913 437 -934 538 -934 538 -913"/><polygon fill="none" stroke="#000" points="437 -913 437 -934 538 -934 538 -913"/><text x="440" y="-919.8" font-family="Times,serif" font-size="14">text</text><polygon fill="#eee" stroke="transparent" points="437 -892 437 -913 538 -913 538 -892"/><polygon fill="none" stroke="#000" points="437 -892 437 -913 538 -913 538 -892"/><text x="440" y="-898.8" font-family="Times,serif" font-size="14">changelog</text><polygon fill="#eee" stroke="transparent" points="437 -871 437 -892 538 -892 538 -871"/><polygon fill="none" stroke="#000" points="437 -871 437 -892 538 -892 538 -871"/><text x="440" y="-877.8" font-family="Times,serif" font-size="14">created</text></g><g class="node"><title>musicbrainz.artist</title><polygon fill="#eee" stroke="transparent" points="461 -1257 461 -1282 514 -1282 514 -1257"/><polygon fill="none" stroke="#000" points="461 -1257 461 -1282 514 -1282 514 -1257"/><text x="464" y="-1265.4" font-family="Times,serif" font-size="17">artist</text><polygon fill="#f0976c" stroke="transparent" points="461 -1236 461 -1257 514 -1257 514 -1236"/><polygon fill="none" stroke="#000" points="461 -1236 461 -1257 514 -1257 514 -1236"/><text x="464" y="-1243.8" font-family="Times,serif" font-size="14" text-decoration="underline">id</text><polygon fill="#eee" stroke="transparent" points="461 -1215 461 -1236 514 -1236 514 -1215"/><polygon fill="none" stroke="#000" points="461 -1215 461 -1236 514 -1236 514 -1215"/><text x="464" y="-1221.8" font-family="Times,serif" font-size="14">...</text></g><g class="node"><title>musicbrainz.artist_credit</title><polygon fill="#eee" stroke="transparent" points="730.5 -1140 730.5 -1165 842.5 -1165 842.5 -1140"/><polygon fill="none" stroke="#000" points="730.5 -1140 730.5 -1165 842.5 -1165 842.5 -1140"/><text x="733.5" y="-1148.4" font-family="Times,serif" font-size="17">artist_credit</text><polygon fill="#f0976c" stroke="transparent" points="730.5 -1119 730.5 -1140 842.5 -1140 842.5 -1119"/><polygon fill="none" stroke="#000" points="730.5 -1119 730.5 -1140 842.5 -1140 842.5 -1119"/><text x="733.5" y="-1126.8" font-family="Times,serif" font-size="14" text-decoration="underline">id</text><polygon fill="#eee" stroke="transparent" points="730.5 -1098 730.5 -1119 842.5 -1119 842.5 -1098"/><polygon fill="none" stroke="#000" points="730.5 -1098 730.5 -1119 842.5 -1119 842.5 -1098"/><text x="733.5" y="-1104.8" font-family="Times,serif" font-size="14">name</text><polygon fill="#eee" stroke="transparent" points="730.5 -1077 730.5 -1098 842.5 -1098 842.5 -1077"/><polygon fill="none" stroke="#000" points="730.5 -1077 730.5 -1098 842.5 -1098 842.5 -1077"/><text x="733.5" y="-1083.8" font-family="Times,serif" font-size="14">artist_count</text><polygon fill="#eee" stroke="transparent" points="730.5 -1056 730.5 -1077 842.5 -1077 842.5 -1056"/><polygon fill="none" stroke="#000" points="730.5 -1056 730.5 -1077 842.5 -1077 842.5 -1056"/><text x="733.5" y="-1062.8" font-family="Times,serif" font-size="14">ref_count</text><polygon fill="#eee" stroke="transparent" points="730.5 -1035 730.5 -1056 842.5 -1056 842.5 -1035"/><polygon fill="none" stroke="#000" points="730.5 -1035 730.5 -1056 842.5 -1056 842.5 -1035"/><text x="733.5" y="-1041.8" font-family="Times,serif" font-size="14">created</text><polygon fill="#eee" stroke="transparent" points="730.5 -1014 730.5 -1035 842.5 -1035 842.5 -1014"/><polygon fill="none" stroke="#000" points="730.5 -1014 730.5 -1035 842.5 -1035 842.5 -1014"/><text x="733.5" y="-1020.8" font-family="Times,serif" font-size="14">edits_pending</text><polygon fill="#eee" stroke="transparent" points="730.5 -993 730.5 -1014 842.5 -1014 842.5 -993"/><polygon fill="none" stroke="#000" points="730.5 -993 730.5 -1014 842.5 -1014 842.5 -993"/><text x="733.5" y="-999.8" font-family="Times,serif" font-size="14">gid</text></g><g class="node"><title>musicbrainz.artist_credit_name</title><polygon fill="#eee" stroke="transparent" points="73 -1400 73 -1425 241 -1425 241 -1400"/><polygon fill="none" stroke="#000" points="73 -1400 73 -1425 241 -1425 241 -1400"/><text x="76" y="-1408.4" font-family="Times,serif" font-size="17">artist_credit_name</text><polygon fill="#f0976c" stroke="transparent" points="73 -1379 73 -1400 241 -1400 241 -1379"/><polygon fill="none" stroke="#000" points="73 -1379 73 -1400 241 -1400 241 -1379"/><text x="76" y="-1386.8" font-family="Times,serif" font-size="14" text-decoration="underline">artist_credit</text><polygon fill="#f0976c" stroke="transparent" points="73 -1358 73 -1379 241 -1379 241 -1358"/><polygon fill="none" stroke="#000" points="73 -1358 73 -1379 241 -1379 241 -1358"/><text x="76" y="-1365.8" font-family="Times,serif" font-size="14" text-decoration="underline">position</text><polygon fill="#f8d1be" stroke="transparent" points="73 -1337 73 -1358 241 -1358 241 -1337"/><polygon fill="none" stroke="#000" points="73 -1337 73 -1358 241 -1358 241 -1337"/><text x="76" y="-1343.8" font-family="Times,serif" font-size="14">artist</text><polygon fill="#eee" stroke="transparent" points="73 -1316 73 -1337 241 -1337 241 -1316"/><polygon fill="none" stroke="#000" points="73 -1316 73 -1337 241 -1337 241 -1316"/><text x="76" y="-1322.8" font-family="Times,serif" font-size="14">name</text><polygon fill="#eee" stroke="transparent" points="73 -1295 73 -1316 241 -1316 241 -1295"/><polygon fill="none" stroke="#000" points="73 -1295 73 -1316 241 -1316 241 -1295"/><text x="76" y="-1301.8" font-family="Times,serif" font-size="14">join_phrase</text></g><g class="edge"><title>musicbrainz.artist_credit_name:artist-&gt;musicbrainz.artist:id</title><path fill="none" stroke="#000" d="m242-1347c103.34 0 110.83 94.6 207.99 100.69"/><polygon stroke="#000" points="450.11 -1249.8 460 -1246 449.9 -1242.8"/></g><g class="edge"><title>musicbrainz.artist_credit_name:artist_credit-&gt;musicbrainz.artist_credit:id</title><path fill="none" stroke="#000" d="m242-1390c175.28 0 239.59-4.18 382 98 80.81 66.94 23.67 152.5 95.16 161.39"/><polygon stroke="#000" points="719.72 -1134.1 729.5 -1130 719.31 -1127.1"/></g><g class="node"><title>musicbrainz.artist_release_group</title><polygon fill="#eee" stroke="transparent" points="48 -1251 48 -1276 267 -1276 267 -1251"/><polygon fill="none" stroke="#000" points="48 -1251 48 -1276 267 -1276 267 -1251"/><text x="51" y="-1259.4" font-family="Times,serif" font-size="17">artist_release_group (m)</text><polygon fill="#eee" stroke="transparent" points="48 -1230 48 -1251 267 -1251 267 -1230"/><polygon fill="none" stroke="#000" points="48 -1230 48 -1251 267 -1251 267 -1230"/><text x="51" y="-1236.8" font-family="Times,serif" font-size="14">is_track_artist</text><polygon fill="#f8d1be" stroke="transparent" points="48 -1209 48 -1230 267 -1230 267 -1209"/><polygon fill="none" stroke="#000" points="48 -1209 48 -1230 267 -1230 267 -1209"/><text x="51" y="-1215.8" font-family="Times,serif" font-size="14">artist</text><polygon fill="#eee" stroke="transparent" points="48 -1188 48 -1209 267 -1209 267 -1188"/><polygon fill="none" stroke="#000" points="48 -1188 48 -1209 267 -1209 267 -1188"/><text x="51" y="-1194.8" font-family="Times,serif" font-size="14">unofficial</text><polygon fill="#eee" stroke="transparent" points="48 -1167 48 -1188 267 -1188 267 -1167"/><polygon fill="none" stroke="#000" points="48 -1167 48 -1188 267 -1188 267 -1167"/><text x="51" y="-1173.8" font-family="Times,serif" font-size="14">primary_type_child_order</text><polygon fill="#eee" stroke="transparent" points="48 -1146 48 -1167 267 -1167 267 -1146"/><polygon fill="none" stroke="#000" points="48 -1146 48 -1167 267 -1167 267 -1146"/><text x="51" y="-1152.8" font-family="Times,serif" font-size="14">primary_type</text><polygon fill="#eee" stroke="transparent" points="48 -1125 48 -1146 267 -1146 267 -1125"/><polygon fill="none" stroke="#000" points="48 -1125 48 -1146 267 -1146 267 -1125"/><text x="51" y="-1131.8" font-family="Times,serif" font-size="14">secondary_type_child_orders</text><polygon fill="#eee" stroke="transparent" points="48 -1104 48 -1125 267 -1125 267 -1104"/><polygon fill="none" stroke="#000" points="48 -1104 48 -1125 267 -1125 267 -1104"/><text x="51" y="-1110.8" font-family="Times,serif" font-size="14">secondary_types</text><polygon fill="#eee" stroke="transparent" points="48 -1083 48 -1104 267 -1104 267 -1083"/><polygon fill="none" stroke="#000" points="48 -1083 48 -1104 267 -1104 267 -1083"/><text x="51" y="-1089.8" font-family="Times,serif" font-size="14">first_release_date</text><polygon fill="#eee" stroke="transparent" points="48 -1062 48 -1083 267 -1083 267 -1062"/><polygon fill="none" stroke="#000" points="48 -1062 48 -1083 267 -1083 267 -1062"/><text x="51" y="-1068.8" font-family="Times,serif" font-size="14">name</text><polygon fill="#f8d1be" stroke="transparent" points="48 -1041 48 -1062 267 -1062 267 -1041"/><polygon fill="none" stroke="#000" points="48 -1041 48 -1062 267 -1062 267 -1041"/><text x="51" y="-1047.8" font-family="Times,serif" font-size="14">release_group</text></g><g class="edge"><title>musicbrainz.artist_release_group:artist-&gt;musicbrainz.artist:id</title><path fill="none" stroke="#000" d="m268-1220c82.58 0 104.15-23.91 181.73-25.87"/><polygon stroke="#000" points="449.96 -1249.4 460 -1246 450.04 -1242.4"/></g><g class="node"><title>musicbrainz.release_group</title><polygon fill="#eb743b" stroke="transparent" points="422 -817 422 -842 552 -842 552 -817"/><polygon fill="none" stroke="#000" points="422 -817 422 -842 552 -842 552 -817"/><text x="425" y="-825.4" font-family="Times,serif" font-size="17">release_group</text><polygon fill="#f0976c" stroke="transparent" points="422 -796 422 -817 552 -817 552 -796"/><polygon fill="none" stroke="#000" points="422 -796 422 -817 552 -817 552 -796"/><text x="425" y="-803.8" font-family="Times,serif" font-size="14" text-decoration="underline">id</text><polygon fill="#eee" stroke="transparent" points="422 -775 422 -796 552 -796 552 -775"/><polygon fill="none" stroke="#000" points="422 -775 422 -796 552 -796 552 -775"/><text x="425" y="-781.8" font-family="Times,serif" font-size="14">gid</text><polygon fill="#eee" stroke="transparent" points="422 -754 422 -775 552 -775 552 -754"/><polygon fill="none" stroke="#000" points="422 -754 422 -775 552 -775 552 -754"/><text x="425" y="-760.8" font-family="Times,serif" font-size="14">name</text><polygon fill="#f8d1be" stroke="transparent" points="422 -733 422 -754 552 -754 552 -733"/><polygon fill="none" stroke="#000" points="422 -733 422 -754 552 -754 552 -733"/><text x="425" y="-739.8" font-family="Times,serif" font-size="14">artist_credit</text><polygon fill="#f8d1be" stroke="transparent" points="422 -712 422 -733 552 -733 552 -712"/><polygon fill="none" stroke="#000" points="422 -712 422 -733 552 -733 552 -712"/><text x="425" y="-718.8" font-family="Times,serif" font-size="14">type</text><polygon fill="#eee" stroke="transparent" points="422 -691 422 -712 552 -712 552 -691"/><polygon fill="none" stroke="#000" points="422 -691 422 -712 552 -712 552 -691"/><text x="425" y="-697.8" font-family="Times,serif" font-size="14">comment</text><polygon fill="#eee" stroke="transparent" points="422 -670 422 -691 552 -691 552 -670"/><polygon fill="none" stroke="#000" points="422 -670 422 -691 552 -691 552 -670"/><text x="425" y="-676.8" font-family="Times,serif" font-size="14">edits_pending</text><polygon fill="#eee" stroke="transparent" points="422 -649 422 -670 552 -670 552 -649"/><polygon fill="none" stroke="#000" points="422 -649 422 -670 552 -670 552 -649"/><text x="425" y="-655.8" font-family="Times,serif" font-size="14">last_updated</text></g><g class="edge"><title>musicbrainz.artist_release_group:release_group-&gt;musicbrainz.release_group:id</title><path fill="none" stroke="#000" d="m268-1051c21.95 0 31.81 1.25 46 18 51.572 74.546 20.37 209.35 96.94 225.49"/><polygon stroke="#000" points="411.19 -811 421 -807 410.84 -804.01"/></g><g class="edge"><title>musicbrainz.release_group:artist_credit-&gt;musicbrainz.artist_credit:id</title><path fill="none" stroke="#000" d="m553-743c185.54 0-5.2-372.77 166.38-386.61"/><polygon stroke="#000" points="719.37 -1133.1 729.5 -1130 719.64 -1126.1"/></g><g class="node"><title>musicbrainz.release_group_primary_type</title><polygon fill="#eee" stroke="transparent" points="660.5 -732 660.5 -757 913.5 -757 913.5 -732"/><polygon fill="none" stroke="#000" points="660.5 -732 660.5 -757 913.5 -757 913.5 -732"/><text x="663.5" y="-740.4" font-family="Times,serif" font-size="17">release_group_primary_type</text><polygon fill="#f0976c" stroke="transparent" points="660.5 -711 660.5 -732 913.5 -732 913.5 -711"/><polygon fill="none" stroke="#000" points="660.5 -711 660.5 -732 913.5 -732 913.5 -711"/><text x="663.5" y="-718.8" font-family="Times,serif" font-size="14" text-decoration="underline">id</text><polygon fill="#eee" stroke="transparent" points="660.5 -690 660.5 -711 913.5 -711 913.5 -690"/><polygon fill="none" stroke="#000" points="660.5 -690 660.5 -711 913.5 -711 913.5 -690"/><text x="663.5" y="-696.8" font-family="Times,serif" font-size="14">name</text><polygon fill="#f8d1be" stroke="transparent" points="660.5 -669 660.5 -690 913.5 -690 913.5 -669"/><polygon fill="none" stroke="#000" points="660.5 -669 660.5 -690 913.5 -690 913.5 -669"/><text x="663.5" y="-675.8" font-family="Times,serif" font-size="14">parent</text><polygon fill="#eee" stroke="transparent" points="660.5 -648 660.5 -669 913.5 -669 913.5 -648"/><polygon fill="none" stroke="#000" points="660.5 -648 660.5 -669 913.5 -669 913.5 -648"/><text x="663.5" y="-654.8" font-family="Times,serif" font-size="14">child_order</text><polygon fill="#eee" stroke="transparent" points="660.5 -627 660.5 -648 913.5 -648 913.5 -627"/><polygon fill="none" stroke="#000" points="660.5 -627 660.5 -648 913.5 -648 913.5 -627"/><text x="663.5" y="-633.8" font-family="Times,serif" font-size="14">description</text><polygon fill="#eee" stroke="transparent" points="660.5 -606 660.5 -627 913.5 -627 913.5 -606"/><polygon fill="none" stroke="#000" points="660.5 -606 660.5 -627 913.5 -627 913.5 -606"/><text x="663.5" y="-612.8" font-family="Times,serif" font-size="14">gid</text></g><g class="edge"><title>musicbrainz.release_group:type-&gt;musicbrainz.release_group_primary_type:id</title><path fill="none" stroke="#000" d="m553-722h96.97"/><polygon stroke="#000" points="650 -725.5 660 -722 650 -718.5"/></g><g class="node"><title>musicbrainz.release_group_alias</title><polygon fill="#eee" stroke="transparent" points="68 -616 68 -641 246 -641 246 -616"/><polygon fill="none" stroke="#000" points="68 -616 68 -641 246 -641 246 -616"/><text x="71" y="-624.4" font-family="Times,serif" font-size="17">release_group_alias</text><polygon fill="#f0976c" stroke="transparent" points="68 -595 68 -616 246 -616 246 -595"/><polygon fill="none" stroke="#000" points="68 -595 68 -616 246 -616 246 -595"/><text x="71" y="-602.8" font-family="Times,serif" font-size="14" text-decoration="underline">id</text><polygon fill="#f8d1be" stroke="transparent" points="68 -574 68 -595 246 -595 246 -574"/><polygon fill="none" stroke="#000" points="68 -574 68 -595 246 -595 246 -574"/><text x="71" y="-580.8" font-family="Times,serif" font-size="14">release_group</text><polygon fill="#eee" stroke="transparent" points="68 -553 68 -574 246 -574 246 -553"/><polygon fill="none" stroke="#000" points="68 -553 68 -574 246 -574 246 -553"/><text x="71" y="-559.8" font-family="Times,serif" font-size="14">name</text><polygon fill="#eee" stroke="transparent" points="68 -532 68 -553 246 -553 246 -532"/><polygon fill="none" stroke="#000" points="68 -532 68 -553 246 -553 246 -532"/><text x="71" y="-538.8" font-family="Times,serif" font-size="14">locale</text><polygon fill="#eee" stroke="transparent" points="68 -511 68 -532 246 -532 246 -511"/><polygon fill="none" stroke="#000" points="68 -511 68 -532 246 -532 246 -511"/><text x="71" y="-517.8" font-family="Times,serif" font-size="14">edits_pending</text><polygon fill="#eee" stroke="transparent" points="68 -490 68 -511 246 -511 246 -490"/><polygon fill="none" stroke="#000" points="68 -490 68 -511 246 -511 246 -490"/><text x="71" y="-496.8" font-family="Times,serif" font-size="14">last_updated</text><polygon fill="#f8d1be" stroke="transparent" points="68 -469 68 -490 246 -490 246 -469"/><polygon fill="none" stroke="#000" points="68 -469 68 -490 246 -490 246 -469"/><text x="71" y="-475.8" font-family="Times,serif" font-size="14">type</text><polygon fill="#eee" stroke="transparent" points="68 -448 68 -469 246 -469 246 -448"/><polygon fill="none" stroke="#000" points="68 -448 68 -469 246 -469 246 -448"/><text x="71" y="-454.8" font-family="Times,serif" font-size="14">sort_name</text><polygon fill="#eee" stroke="transparent" points="68 -427 68 -448 246 -448 246 -427"/><polygon fill="none" stroke="#000" points="68 -427 68 -448 246 -448 246 -427"/><text x="71" y="-433.8" font-family="Times,serif" font-size="14">begin_date_year</text><polygon fill="#eee" stroke="transparent" points="68 -406 68 -427 246 -427 246 -406"/><polygon fill="none" stroke="#000" points="68 -406 68 -427 246 -427 246 -406"/><text x="71" y="-412.8" font-family="Times,serif" font-size="14">begin_date_month</text><polygon fill="#eee" stroke="transparent" points="68 -385 68 -406 246 -406 246 -385"/><polygon fill="none" stroke="#000" points="68 -385 68 -406 246 -406 246 -385"/><text x="71" y="-391.8" font-family="Times,serif" font-size="14">begin_date_day</text><polygon fill="#eee" stroke="transparent" points="68 -364 68 -385 246 -385 246 -364"/><polygon fill="none" stroke="#000" points="68 -364 68 -385 246 -385 246 -364"/><text x="71" y="-370.8" font-family="Times,serif" font-size="14">end_date_year</text><polygon fill="#eee" stroke="transparent" points="68 -343 68 -364 246 -364 246 -343"/><polygon fill="none" stroke="#000" points="68 -343 68 -364 246 -364 246 -343"/><text x="71" y="-349.8" font-family="Times,serif" font-size="14">end_date_month</text><polygon fill="#eee" stroke="transparent" points="68 -322 68 -343 246 -343 246 -322"/><polygon fill="none" stroke="#000" points="68 -322 68 -343 246 -343 246 -322"/><text x="71" y="-328.8" font-family="Times,serif" font-size="14">end_date_day</text><polygon fill="#eee" stroke="transparent" points="68 -301 68 -322 246 -322 246 -301"/><polygon fill="none" stroke="#000" points="68 -301 68 -322 246 -322 246 -301"/><text x="71" y="-307.8" font-family="Times,serif" font-size="14">primary_for_locale</text><polygon fill="#eee" stroke="transparent" points="68 -280 68 -301 246 -301 246 -280"/><polygon fill="none" stroke="#000" points="68 -280 68 -301 246 -301 246 -280"/><text x="71" y="-286.8" font-family="Times,serif" font-size="14">ended</text></g><g class="edge"><title>musicbrainz.release_group_alias:release_group-&gt;musicbrainz.release_group:id</title><path fill="none" stroke="#000" d="m247-585c121.81 0 52.82-209.6 163.83-221.48"/><polygon stroke="#000" points="410.83 -809.98 421 -807 411.19 -802.99"/></g><g class="node"><title>musicbrainz.release_group_alias_type</title><polygon fill="#eee" stroke="transparent" points="375 -490 375 -515 599 -515 599 -490"/><polygon fill="none" stroke="#000" points="375 -490 375 -515 599 -515 599 -490"/><text x="378" y="-498.4" font-family="Times,serif" font-size="17">release_group_alias_type</text><polygon fill="#f0976c" stroke="transparent" points="375 -469 375 -490 599 -490 599 -469"/><polygon fill="none" stroke="#000" points="375 -469 375 -490 599 -490 599 -469"/><text x="378" y="-476.8" font-family="Times,serif" font-size="14" text-decoration="underline">id</text><polygon fill="#eee" stroke="transparent" points="375 -448 375 -469 599 -469 599 -448"/><polygon fill="none" stroke="#000" points="375 -448 375 -469 599 -469 599 -448"/><text x="378" y="-454.8" font-family="Times,serif" font-size="14">name</text><polygon fill="#f8d1be" stroke="transparent" points="375 -427 375 -448 599 -448 599 -427"/><polygon fill="none" stroke="#000" points="375 -427 375 -448 599 -448 599 -427"/><text x="378" y="-433.8" font-family="Times,serif" font-size="14">parent</text><polygon fill="#eee" stroke="transparent" points="375 -406 375 -427 599 -427 599 -406"/><polygon fill="none" stroke="#000" points="375 -406 375 -427 599 -427 599 -406"/><text x="378" y="-412.8" font-family="Times,serif" font-size="14">child_order</text><polygon fill="#eee" stroke="transparent" points="375 -385 375 -406 599 -406 599 -385"/><polygon fill="none" stroke="#000" points="375 -385 375 -406 599 -406 599 -385"/><text x="378" y="-391.8" font-family="Times,serif" font-size="14">description</text><polygon fill="#eee" stroke="transparent" points="375 -364 375 -385 599 -385 599 -364"/><polygon fill="none" stroke="#000" points="375 -364 375 -385 599 -385 599 -364"/><text x="378" y="-370.8" font-family="Times,serif" font-size="14">gid</text></g><g class="edge"><title>musicbrainz.release_group_alias:type-&gt;musicbrainz.release_group_alias_type:id</title><path fill="none" stroke="#000" d="m247-480h116.89"/><polygon stroke="#000" points="364 -483.5 374 -480 364 -476.5"/></g><g class="node"><title>musicbrainz.release_group_annotation</title><polygon fill="#eee" stroke="transparent" points="41 -998 41 -1023 273 -1023 273 -998"/><polygon fill="none" stroke="#000" points="41 -998 41 -1023 273 -1023 273 -998"/><text x="44" y="-1006.4" font-family="Times,serif" font-size="17">release_group_annotation</text><polygon fill="#f0976c" stroke="transparent" points="41 -977 41 -998 273 -998 273 -977"/><polygon fill="none" stroke="#000" points="41 -977 41 -998 273 -998 273 -977"/><text x="44" y="-984.8" font-family="Times,serif" font-size="14" text-decoration="underline">release_group</text><polygon fill="#f0976c" stroke="transparent" points="41 -956 41 -977 273 -977 273 -956"/><polygon fill="none" stroke="#000" points="41 -956 41 -977 273 -977 273 -956"/><text x="44" y="-963.8" font-family="Times,serif" font-size="14" text-decoration="underline">annotation</text></g><g class="edge"><title>musicbrainz.release_group_annotation:annotation-&gt;musicbrainz.annotation:id</title><path fill="none" stroke="#000" d="m274-966h151.83"/><polygon stroke="#000" points="426 -969.5 436 -966 426 -962.5"/></g><g class="edge"><title>musicbrainz.release_group_annotation:release_group-&gt;musicbrainz.release_group:id</title><path fill="none" stroke="#000" d="m274-987c82.7 27.902 51.642 167.12 137.01 179.44"/><polygon stroke="#000" points="411.21 -811.05 421 -807 410.82 -804.06"/></g><g class="node"><title>musicbrainz.release_group_gid_redirect</title><polygon fill="#eee" stroke="transparent" points="36 -913 36 -938 279 -938 279 -913"/><polygon fill="none" stroke="#000" points="36 -913 36 -938 279 -938 279 -913"/><text x="39" y="-921.4" font-family="Times,serif" font-size="17">release_group_gid_redirect</text><polygon fill="#f0976c" stroke="transparent" points="36 -892 36 -913 279 -913 279 -892"/><polygon fill="none" stroke="#000" points="36 -892 36 -913 279 -913 279 -892"/><text x="39" y="-899.8" font-family="Times,serif" font-size="14" text-decoration="underline">gid</text><polygon fill="#f8d1be" stroke="transparent" points="36 -871 36 -892 279 -892 279 -871"/><polygon fill="none" stroke="#000" points="36 -871 36 -892 279 -892 279 -871"/><text x="39" y="-877.8" font-family="Times,serif" font-size="14">new_id</text><polygon fill="#eee" stroke="transparent" points="36 -850 36 -871 279 -871 279 -850"/><polygon fill="none" stroke="#000" points="36 -850 36 -871 279 -871 279 -850"/><text x="39" y="-856.8" font-family="Times,serif" font-size="14">created</text></g><g class="edge"><title>musicbrainz.release_group_gid_redirect:new_id-&gt;musicbrainz.release_group:id</title><path fill="none" stroke="#000" d="m280-881c67.18 0 70.1 66.68 130.75 73.45"/><polygon stroke="#000" points="411.2 -811.03 421 -807 410.83 -804.04"/></g><g class="node"><title>musicbrainz.release_group_meta</title><polygon fill="#eee" stroke="transparent" points="65 -807 65 -832 250 -832 250 -807"/><polygon fill="none" stroke="#000" points="65 -807 65 -832 250 -832 250 -807"/><text x="70" y="-815.4" font-family="Times,serif" font-size="17">release_group_meta</text><polygon fill="#f0976c" stroke="transparent" points="65 -786 65 -807 250 -807 250 -786"/><polygon fill="none" stroke="#000" points="65 -786 65 -807 250 -807 250 -786"/><text x="68" y="-793.8" font-family="Times,serif" font-size="14" text-decoration="underline">id</text><polygon fill="#eee" stroke="transparent" points="65 -765 65 -786 250 -786 250 -765"/><polygon fill="none" stroke="#000" points="65 -765 65 -786 250 -786 250 -765"/><text x="68" y="-771.8" font-family="Times,serif" font-size="14">release_count</text><polygon fill="#eee" stroke="transparent" points="65 -744 65 -765 250 -765 250 -744"/><polygon fill="none" stroke="#000" points="65 -744 65 -765 250 -765 250 -744"/><text x="68" y="-750.8" font-family="Times,serif" font-size="14">first_release_date_year</text><polygon fill="#eee" stroke="transparent" points="65 -723 65 -744 250 -744 250 -723"/><polygon fill="none" stroke="#000" points="65 -723 65 -744 250 -744 250 -723"/><text x="68" y="-729.8" font-family="Times,serif" font-size="14">first_release_date_month</text><polygon fill="#eee" stroke="transparent" points="65 -702 65 -723 250 -723 250 -702"/><polygon fill="none" stroke="#000" points="65 -702 65 -723 250 -723 250 -702"/><text x="68" y="-708.8" font-family="Times,serif" font-size="14">first_release_date_day</text><polygon fill="#eee" stroke="transparent" points="65 -681 65 -702 250 -702 250 -681"/><polygon fill="none" stroke="#000" points="65 -681 65 -702 250 -702 250 -681"/><text x="68" y="-687.8" font-family="Times,serif" font-size="14">rating</text><polygon fill="#eee" stroke="transparent" points="65 -660 65 -681 250 -681 250 -660"/><polygon fill="none" stroke="#000" points="65 -660 65 -681 250 -681 250 -660"/><text x="68" y="-666.8" font-family="Times,serif" font-size="14">rating_count</text></g><g class="edge"><title>musicbrainz.release_group_meta:id-&gt;musicbrainz.release_group:id</title><path fill="none" stroke="#000" d="m251-797c72.14 0 92.44-9.08 159.72-9.94"/><polygon stroke="#000" points="410.98 -810.44 421 -807 411.02 -803.44"/></g><g class="node"><title>musicbrainz.release_group_secondary_type</title><polygon fill="#eee" stroke="transparent" points="350 -232 350 -257 624 -257 624 -232"/><polygon fill="none" stroke="#000" points="350 -232 350 -257 624 -257 624 -232"/><text x="353" y="-240.4" font-family="Times,serif" font-size="17">release_group_secondary_type</text><polygon fill="#f0976c" stroke="transparent" points="350 -211 350 -232 624 -232 624 -211"/><polygon fill="none" stroke="#000" points="350 -211 350 -232 624 -232 624 -211"/><text x="353" y="-218.8" font-family="Times,serif" font-size="14" text-decoration="underline">id</text><polygon fill="#eee" stroke="transparent" points="350 -190 350 -211 624 -211 624 -190"/><polygon fill="none" stroke="#000" points="350 -190 350 -211 624 -211 624 -190"/><text x="353" y="-196.8" font-family="Times,serif" font-size="14">name</text><polygon fill="#f8d1be" stroke="transparent" points="350 -169 350 -190 624 -190 624 -169"/><polygon fill="none" stroke="#000" points="350 -169 350 -190 624 -190 624 -169"/><text x="353" y="-175.8" font-family="Times,serif" font-size="14">parent</text><polygon fill="#eee" stroke="transparent" points="350 -148 350 -169 624 -169 624 -148"/><polygon fill="none" stroke="#000" points="350 -148 350 -169 624 -169 624 -148"/><text x="353" y="-154.8" font-family="Times,serif" font-size="14">child_order</text><polygon fill="#eee" stroke="transparent" points="350 -127 350 -148 624 -148 624 -127"/><polygon fill="none" stroke="#000" points="350 -127 350 -148 624 -148 624 -127"/><text x="353" y="-133.8" font-family="Times,serif" font-size="14">description</text><polygon fill="#eee" stroke="transparent" points="350 -106 350 -127 624 -127 624 -106"/><polygon fill="none" stroke="#000" points="350 -106 350 -127 624 -127 624 -106"/><text x="353" y="-112.8" font-family="Times,serif" font-size="14">gid</text></g><g class="node"><title>musicbrainz.release_group_secondary_type_join</title><polygon fill="#eee" stroke="transparent" points="0 -238 0 -263 314 -263 314 -238"/><polygon fill="none" stroke="#000" points="0 -238 0 -263 314 -263 314 -238"/><text x="3" y="-246.4" font-family="Times,serif" font-size="17">release_group_secondary_type_join</text><polygon fill="#f0976c" stroke="transparent" points="0 -217 0 -238 314 -238 314 -217"/><polygon fill="none" stroke="#000" points="0 -217 0 -238 314 -238 314 -217"/><text x="3" y="-224.8" font-family="Times,serif" font-size="14" text-decoration="underline">release_group</text><polygon fill="#f0976c" stroke="transparent" points="0 -196 0 -217 314 -217 314 -196"/><polygon fill="none" stroke="#000" points="0 -196 0 -217 314 -217 314 -196"/><text x="3" y="-203.8" font-family="Times,serif" font-size="14" text-decoration="underline">secondary_type</text><polygon fill="#eee" stroke="transparent" points="0 -175 0 -196 314 -196 314 -175"/><polygon fill="none" stroke="#000" points="0 -175 0 -196 314 -196 314 -175"/><text x="3" y="-181.8" font-family="Times,serif" font-size="14">created</text></g><g class="edge"><title>musicbrainz.release_group_secondary_type_join:release_group-&gt;musicbrainz.release_group:id</title><path fill="none" stroke="#000" d="m314-228c50.072 0-44.441-561.21 96.86-578.66"/><polygon stroke="#000" points="410.89 -810.16 421 -807 411.12 -803.16"/></g><g class="edge"><title>musicbrainz.release_group_secondary_type_join:secondary_type-&gt;musicbrainz.release_group_secondary_type:id</title><path fill="none" stroke="#000" d="m314-206c13.41 0 17.12-9.38 25.99-13.78"/><polygon stroke="#000" points="339.48 -223.25 350 -222 341 -216.41"/></g><g class="node"><title>musicbrainz.release_group_tag</title><polygon fill="#eee" stroke="transparent" points="74 -100 74 -125 240 -125 240 -100"/><polygon fill="none" stroke="#000" points="74 -100 74 -125 240 -125 240 -100"/><text x="77" y="-108.4" font-family="Times,serif" font-size="17">release_group_tag</text><polygon fill="#f0976c" stroke="transparent" points="74 -79 74 -100 240 -100 240 -79"/><polygon fill="none" stroke="#000" points="74 -79 74 -100 240 -100 240 -79"/><text x="77" y="-86.8" font-family="Times,serif" font-size="14" text-decoration="underline">release_group</text><polygon fill="#f0976c" stroke="transparent" points="74 -58 74 -79 240 -79 240 -58"/><polygon fill="none" stroke="#000" points="74 -58 74 -79 240 -79 240 -58"/><text x="77" y="-65.8" font-family="Times,serif" font-size="14" text-decoration="underline">tag</text><polygon fill="#eee" stroke="transparent" points="74 -37 74 -58 240 -58 240 -37"/><polygon fill="none" stroke="#000" points="74 -37 74 -58 240 -58 240 -37"/><text x="77" y="-43.8" font-family="Times,serif" font-size="14">count</text><polygon fill="#eee" stroke="transparent" points="74 -16 74 -37 240 -37 240 -16"/><polygon fill="none" stroke="#000" points="74 -16 74 -37 240 -37 240 -16"/><text x="77" y="-22.8" font-family="Times,serif" font-size="14">last_updated</text></g><g class="edge"><title>musicbrainz.release_group_tag:release_group-&gt;musicbrainz.release_group:id</title><path fill="none" stroke="#000" d="m241-90c46.84 0 55.582-8.2423 75.222-50.762 59.07-127.91-34.952-641.57 94.628-665.34"/><polygon stroke="#000" points="410.73 -809.6 421 -807 411.35 -802.63"/></g><g class="node"><title>musicbrainz.tag</title><polygon fill="#eee" stroke="transparent" points="451 -63 451 -88 524 -88 524 -63"/><polygon fill="none" stroke="#000" points="451 -63 451 -88 524 -88 524 -63"/><text x="473" y="-71.4" font-family="Times,serif" font-size="17">tag</text><polygon fill="#f0976c" stroke="transparent" points="451 -42 451 -63 524 -63 524 -42"/><polygon fill="none" stroke="#000" points="451 -42 451 -63 524 -63 524 -42"/><text x="454" y="-49.8" font-family="Times,serif" font-size="14" text-decoration="underline">id</text><polygon fill="#eee" stroke="transparent" points="451 -21 451 -42 524 -42 524 -21"/><polygon fill="none" stroke="#000" points="451 -21 451 -42 524 -42 524 -21"/><text x="454" y="-27.8" font-family="Times,serif" font-size="14">name</text><polygon fill="#eee" stroke="transparent" points="451 0 451 -21 524 -21 524 0"/><polygon fill="none" stroke="#000" points="451 0 451 -21 524 -21 524 0"/><text x="454" y="-6.8" font-family="Times,serif" font-size="14">ref_count</text></g><g class="edge"><title>musicbrainz.release_group_tag:tag-&gt;musicbrainz.tag:id</title><path fill="none" stroke="#000" d="m241-68c89.67 0 114.09 13.91 198.92 14.94"/><polygon stroke="#000" points="440.02 -56.56 450 -53 439.98 -49.56"/></g></g></svg>