<svg xmlns="http://www.w3.org/2000/svg" xmlns:xlink="http://www.w3.org/1999/xlink" width="590pt" height="721pt" version="1.1" viewBox="0 0 590 720.5"><g class="graph" transform="scale(1) translate(4 716.5)"><title>series_entity_details</title><a xlink:title="Tables for the “series” entity type properties"><polygon fill="#e8c2da" stroke="transparent" points="-4 4 -4 -716.5 586 -716.5 586 4"/></a><g class="node"><title>musicbrainz.annotation</title><polygon fill="#eee" stroke="transparent" points="233 -681 233 -706 334 -706 334 -681"/><polygon fill="none" stroke="#000" points="233 -681 233 -706 334 -706 334 -681"/><text x="236" y="-689.4" font-family="Times,serif" font-size="17">annotation</text><polygon fill="#f0976c" stroke="transparent" points="233 -660 233 -681 334 -681 334 -660"/><polygon fill="none" stroke="#000" points="233 -660 233 -681 334 -681 334 -660"/><text x="236" y="-667.8" font-family="Times,serif" font-size="14" text-decoration="underline">id</text><polygon fill="#eee" stroke="transparent" points="233 -639 233 -660 334 -660 334 -639"/><polygon fill="none" stroke="#000" points="233 -639 233 -660 334 -660 334 -639"/><text x="236" y="-645.8" font-family="Times,serif" font-size="14">editor</text><polygon fill="#eee" stroke="transparent" points="233 -618 233 -639 334 -639 334 -618"/><polygon fill="none" stroke="#000" points="233 -618 233 -639 334 -639 334 -618"/><text x="236" y="-624.8" font-family="Times,serif" font-size="14">text</text><polygon fill="#eee" stroke="transparent" points="233 -597 233 -618 334 -618 334 -597"/><polygon fill="none" stroke="#000" points="233 -597 233 -618 334 -618 334 -597"/><text x="236" y="-603.8" font-family="Times,serif" font-size="14">changelog</text><polygon fill="#eee" stroke="transparent" points="233 -576 233 -597 334 -597 334 -576"/><polygon fill="none" stroke="#000" points="233 -576 233 -597 334 -597 334 -576"/><text x="236" y="-582.8" font-family="Times,serif" font-size="14">created</text></g><g class="node"><title>musicbrainz.series</title><polygon fill="#eb743b" stroke="transparent" points="230 -532 230 -557 336 -557 336 -532"/><polygon fill="none" stroke="#000" points="230 -532 230 -557 336 -557 336 -532"/><text x="257" y="-540.4" font-family="Times,serif" font-size="17">series</text><polygon fill="#f0976c" stroke="transparent" points="230 -511 230 -532 336 -532 336 -511"/><polygon fill="none" stroke="#000" points="230 -511 230 -532 336 -532 336 -511"/><text x="233" y="-518.8" font-family="Times,serif" font-size="14" text-decoration="underline">id</text><polygon fill="#eee" stroke="transparent" points="230 -490 230 -511 336 -511 336 -490"/><polygon fill="none" stroke="#000" points="230 -490 230 -511 336 -511 336 -490"/><text x="233" y="-496.8" font-family="Times,serif" font-size="14">gid</text><polygon fill="#eee" stroke="transparent" points="230 -469 230 -490 336 -490 336 -469"/><polygon fill="none" stroke="#000" points="230 -469 230 -490 336 -490 336 -469"/><text x="233" y="-475.8" font-family="Times,serif" font-size="14">name</text><polygon fill="#eee" stroke="transparent" points="230 -448 230 -469 336 -469 336 -448"/><polygon fill="none" stroke="#000" points="230 -448 230 -469 336 -469 336 -448"/><text x="233" y="-454.8" font-family="Times,serif" font-size="14">comment</text><polygon fill="#f8d1be" stroke="transparent" points="230 -427 230 -448 336 -448 336 -427"/><polygon fill="none" stroke="#000" points="230 -427 230 -448 336 -448 336 -427"/><text x="233" y="-433.8" font-family="Times,serif" font-size="14">type</text><polygon fill="#f8d1be" stroke="transparent" points="230 -406 230 -427 336 -427 336 -406"/><polygon fill="none" stroke="#000" points="230 -406 230 -427 336 -427 336 -406"/><text x="233" y="-412.8" font-family="Times,serif" font-size="14">ordering_type</text><polygon fill="#eee" stroke="transparent" points="230 -385 230 -406 336 -406 336 -385"/><polygon fill="none" stroke="#000" points="230 -385 230 -406 336 -406 336 -385"/><text x="233" y="-391.8" font-family="Times,serif" font-size="14">edits_pending</text><polygon fill="#eee" stroke="transparent" points="230 -364 230 -385 336 -385 336 -364"/><polygon fill="none" stroke="#000" points="230 -364 230 -385 336 -385 336 -364"/><text x="233" y="-370.8" font-family="Times,serif" font-size="14">last_updated</text></g><g class="node"><title>musicbrainz.series_ordering_type</title><polygon fill="#eee" stroke="transparent" points="395.5 -341 395.5 -366 582.5 -366 582.5 -341"/><polygon fill="none" stroke="#000" points="395.5 -341 395.5 -366 582.5 -366 582.5 -341"/><text x="398.5" y="-349.4" font-family="Times,serif" font-size="17">series_ordering_type</text><polygon fill="#f0976c" stroke="transparent" points="395.5 -320 395.5 -341 582.5 -341 582.5 -320"/><polygon fill="none" stroke="#000" points="395.5 -320 395.5 -341 582.5 -341 582.5 -320"/><text x="398.5" y="-327.8" font-family="Times,serif" font-size="14" text-decoration="underline">id</text><polygon fill="#eee" stroke="transparent" points="395.5 -299 395.5 -320 582.5 -320 582.5 -299"/><polygon fill="none" stroke="#000" points="395.5 -299 395.5 -320 582.5 -320 582.5 -299"/><text x="398.5" y="-305.8" font-family="Times,serif" font-size="14">name</text><polygon fill="#f8d1be" stroke="transparent" points="395.5 -278 395.5 -299 582.5 -299 582.5 -278"/><polygon fill="none" stroke="#000" points="395.5 -278 395.5 -299 582.5 -299 582.5 -278"/><text x="398.5" y="-284.8" font-family="Times,serif" font-size="14">parent</text><polygon fill="#eee" stroke="transparent" points="395.5 -257 395.5 -278 582.5 -278 582.5 -257"/><polygon fill="none" stroke="#000" points="395.5 -257 395.5 -278 582.5 -278 582.5 -257"/><text x="398.5" y="-263.8" font-family="Times,serif" font-size="14">child_order</text><polygon fill="#eee" stroke="transparent" points="395.5 -236 395.5 -257 582.5 -257 582.5 -236"/><polygon fill="none" stroke="#000" points="395.5 -236 395.5 -257 582.5 -257 582.5 -236"/><text x="398.5" y="-242.8" font-family="Times,serif" font-size="14">description</text><polygon fill="#eee" stroke="transparent" points="395.5 -215 395.5 -236 582.5 -236 582.5 -215"/><polygon fill="none" stroke="#000" points="395.5 -215 395.5 -236 582.5 -236 582.5 -215"/><text x="398.5" y="-221.8" font-family="Times,serif" font-size="14">gid</text></g><g class="edge"><title>musicbrainz.series:ordering_type-&gt;musicbrainz.series_ordering_type:id</title><path fill="none" stroke="#000" d="m337-416c41.8 0 17.43 71.02 47.86 83.22"/><polygon stroke="#000" points="385.75 -336.17 395 -331 384.55 -329.28"/></g><g class="node"><title>musicbrainz.series_type</title><polygon fill="#eee" stroke="transparent" points="437.5 -532 437.5 -557 540.5 -557 540.5 -532"/><polygon fill="none" stroke="#000" points="437.5 -532 437.5 -557 540.5 -557 540.5 -532"/><text x="440.5" y="-540.4" font-family="Times,serif" font-size="17">series_type</text><polygon fill="#f0976c" stroke="transparent" points="437.5 -511 437.5 -532 540.5 -532 540.5 -511"/><polygon fill="none" stroke="#000" points="437.5 -511 437.5 -532 540.5 -532 540.5 -511"/><text x="440.5" y="-518.8" font-family="Times,serif" font-size="14" text-decoration="underline">id</text><polygon fill="#eee" stroke="transparent" points="437.5 -490 437.5 -511 540.5 -511 540.5 -490"/><polygon fill="none" stroke="#000" points="437.5 -490 437.5 -511 540.5 -511 540.5 -490"/><text x="440.5" y="-496.8" font-family="Times,serif" font-size="14">name</text><polygon fill="#eee" stroke="transparent" points="437.5 -469 437.5 -490 540.5 -490 540.5 -469"/><polygon fill="none" stroke="#000" points="437.5 -469 437.5 -490 540.5 -490 540.5 -469"/><text x="440.5" y="-475.8" font-family="Times,serif" font-size="14">entity_type</text><polygon fill="#f8d1be" stroke="transparent" points="437.5 -448 437.5 -469 540.5 -469 540.5 -448"/><polygon fill="none" stroke="#000" points="437.5 -448 437.5 -469 540.5 -469 540.5 -448"/><text x="440.5" y="-454.8" font-family="Times,serif" font-size="14">parent</text><polygon fill="#eee" stroke="transparent" points="437.5 -427 437.5 -448 540.5 -448 540.5 -427"/><polygon fill="none" stroke="#000" points="437.5 -427 437.5 -448 540.5 -448 540.5 -427"/><text x="440.5" y="-433.8" font-family="Times,serif" font-size="14">child_order</text><polygon fill="#eee" stroke="transparent" points="437.5 -406 437.5 -427 540.5 -427 540.5 -406"/><polygon fill="none" stroke="#000" points="437.5 -406 437.5 -427 540.5 -427 540.5 -406"/><text x="440.5" y="-412.8" font-family="Times,serif" font-size="14">description</text><polygon fill="#eee" stroke="transparent" points="437.5 -385 437.5 -406 540.5 -406 540.5 -385"/><polygon fill="none" stroke="#000" points="437.5 -385 437.5 -406 540.5 -406 540.5 -385"/><text x="440.5" y="-391.8" font-family="Times,serif" font-size="14">gid</text></g><g class="edge"><title>musicbrainz.series:type-&gt;musicbrainz.series_type:id</title><path fill="none" stroke="#000" d="m337-437c54.53 0 43.15-74.71 89.44-84.05"/><polygon stroke="#000" points="426.21 -524.54 436.5 -522 426.88 -517.57"/></g><g class="node"><title>musicbrainz.series_alias</title><polygon fill="#eee" stroke="transparent" points="16.5 -464 16.5 -489 155.5 -489 155.5 -464"/><polygon fill="none" stroke="#000" points="16.5 -464 16.5 -489 155.5 -489 155.5 -464"/><text x="36" y="-472.4" font-family="Times,serif" font-size="17">series_alias</text><polygon fill="#f0976c" stroke="transparent" points="16.5 -443 16.5 -464 155.5 -464 155.5 -443"/><polygon fill="none" stroke="#000" points="16.5 -443 16.5 -464 155.5 -464 155.5 -443"/><text x="19.5" y="-450.8" font-family="Times,serif" font-size="14" text-decoration="underline">id</text><polygon fill="#f8d1be" stroke="transparent" points="16.5 -422 16.5 -443 155.5 -443 155.5 -422"/><polygon fill="none" stroke="#000" points="16.5 -422 16.5 -443 155.5 -443 155.5 -422"/><text x="19.5" y="-428.8" font-family="Times,serif" font-size="14">series</text><polygon fill="#eee" stroke="transparent" points="16.5 -401 16.5 -422 155.5 -422 155.5 -401"/><polygon fill="none" stroke="#000" points="16.5 -401 16.5 -422 155.5 -422 155.5 -401"/><text x="19.5" y="-407.8" font-family="Times,serif" font-size="14">name</text><polygon fill="#eee" stroke="transparent" points="16.5 -380 16.5 -401 155.5 -401 155.5 -380"/><polygon fill="none" stroke="#000" points="16.5 -380 16.5 -401 155.5 -401 155.5 -380"/><text x="19.5" y="-386.8" font-family="Times,serif" font-size="14">locale</text><polygon fill="#eee" stroke="transparent" points="16.5 -359 16.5 -380 155.5 -380 155.5 -359"/><polygon fill="none" stroke="#000" points="16.5 -359 16.5 -380 155.5 -380 155.5 -359"/><text x="19.5" y="-365.8" font-family="Times,serif" font-size="14">edits_pending</text><polygon fill="#eee" stroke="transparent" points="16.5 -338 16.5 -359 155.5 -359 155.5 -338"/><polygon fill="none" stroke="#000" points="16.5 -338 16.5 -359 155.5 -359 155.5 -338"/><text x="19.5" y="-344.8" font-family="Times,serif" font-size="14">last_updated</text><polygon fill="#f8d1be" stroke="transparent" points="16.5 -317 16.5 -338 155.5 -338 155.5 -317"/><polygon fill="none" stroke="#000" points="16.5 -317 16.5 -338 155.5 -338 155.5 -317"/><text x="19.5" y="-323.8" font-family="Times,serif" font-size="14">type</text><polygon fill="#eee" stroke="transparent" points="16.5 -296 16.5 -317 155.5 -317 155.5 -296"/><polygon fill="none" stroke="#000" points="16.5 -296 16.5 -317 155.5 -317 155.5 -296"/><text x="19.5" y="-302.8" font-family="Times,serif" font-size="14">sort_name</text><polygon fill="#eee" stroke="transparent" points="16.5 -275 16.5 -296 155.5 -296 155.5 -275"/><polygon fill="none" stroke="#000" points="16.5 -275 16.5 -296 155.5 -296 155.5 -275"/><text x="19.5" y="-281.8" font-family="Times,serif" font-size="14">begin_date_year</text><polygon fill="#eee" stroke="transparent" points="16.5 -254 16.5 -275 155.5 -275 155.5 -254"/><polygon fill="none" stroke="#000" points="16.5 -254 16.5 -275 155.5 -275 155.5 -254"/><text x="19.5" y="-260.8" font-family="Times,serif" font-size="14">begin_date_month</text><polygon fill="#eee" stroke="transparent" points="16.5 -233 16.5 -254 155.5 -254 155.5 -233"/><polygon fill="none" stroke="#000" points="16.5 -233 16.5 -254 155.5 -254 155.5 -233"/><text x="19.5" y="-239.8" font-family="Times,serif" font-size="14">begin_date_day</text><polygon fill="#eee" stroke="transparent" points="16.5 -212 16.5 -233 155.5 -233 155.5 -212"/><polygon fill="none" stroke="#000" points="16.5 -212 16.5 -233 155.5 -233 155.5 -212"/><text x="19.5" y="-218.8" font-family="Times,serif" font-size="14">end_date_year</text><polygon fill="#eee" stroke="transparent" points="16.5 -191 16.5 -212 155.5 -212 155.5 -191"/><polygon fill="none" stroke="#000" points="16.5 -191 16.5 -212 155.5 -212 155.5 -191"/><text x="19.5" y="-197.8" font-family="Times,serif" font-size="14">end_date_month</text><polygon fill="#eee" stroke="transparent" points="16.5 -170 16.5 -191 155.5 -191 155.5 -170"/><polygon fill="none" stroke="#000" points="16.5 -170 16.5 -191 155.5 -191 155.5 -170"/><text x="19.5" y="-176.8" font-family="Times,serif" font-size="14">end_date_day</text><polygon fill="#eee" stroke="transparent" points="16.5 -149 16.5 -170 155.5 -170 155.5 -149"/><polygon fill="none" stroke="#000" points="16.5 -149 16.5 -170 155.5 -170 155.5 -149"/><text x="19.5" y="-155.8" font-family="Times,serif" font-size="14">primary_for_locale</text><polygon fill="#eee" stroke="transparent" points="16.5 -128 16.5 -149 155.5 -149 155.5 -128"/><polygon fill="none" stroke="#000" points="16.5 -128 16.5 -149 155.5 -149 155.5 -128"/><text x="19.5" y="-134.8" font-family="Times,serif" font-size="14">ended</text></g><g class="edge"><title>musicbrainz.series_alias:series-&gt;musicbrainz.series:id</title><path fill="none" stroke="#000" d="m156.5-433c27.728 0 25.42-76.28 62.41-87.6"/><polygon stroke="#000" points="218.61 -524.1 229 -522 219.57 -517.16"/></g><g class="node"><title>musicbrainz.series_alias_type</title><polygon fill="#eee" stroke="transparent" points="207 -321 207 -346 359 -346 359 -321"/><polygon fill="none" stroke="#000" points="207 -321 207 -346 359 -346 359 -321"/><text x="210" y="-329.4" font-family="Times,serif" font-size="17">series_alias_type</text><polygon fill="#f0976c" stroke="transparent" points="207 -300 207 -321 359 -321 359 -300"/><polygon fill="none" stroke="#000" points="207 -300 207 -321 359 -321 359 -300"/><text x="210" y="-307.8" font-family="Times,serif" font-size="14" text-decoration="underline">id</text><polygon fill="#eee" stroke="transparent" points="207 -279 207 -300 359 -300 359 -279"/><polygon fill="none" stroke="#000" points="207 -279 207 -300 359 -300 359 -279"/><text x="210" y="-285.8" font-family="Times,serif" font-size="14">name</text><polygon fill="#f8d1be" stroke="transparent" points="207 -258 207 -279 359 -279 359 -258"/><polygon fill="none" stroke="#000" points="207 -258 207 -279 359 -279 359 -258"/><text x="210" y="-264.8" font-family="Times,serif" font-size="14">parent</text><polygon fill="#eee" stroke="transparent" points="207 -237 207 -258 359 -258 359 -237"/><polygon fill="none" stroke="#000" points="207 -237 207 -258 359 -258 359 -237"/><text x="210" y="-243.8" font-family="Times,serif" font-size="14">child_order</text><polygon fill="#eee" stroke="transparent" points="207 -216 207 -237 359 -237 359 -216"/><polygon fill="none" stroke="#000" points="207 -216 207 -237 359 -237 359 -216"/><text x="210" y="-222.8" font-family="Times,serif" font-size="14">description</text><polygon fill="#eee" stroke="transparent" points="207 -195 207 -216 359 -216 359 -195"/><polygon fill="none" stroke="#000" points="207 -195 207 -216 359 -216 359 -195"/><text x="210" y="-201.8" font-family="Times,serif" font-size="14">gid</text></g><g class="edge"><title>musicbrainz.series_alias:type-&gt;musicbrainz.series_alias_type:id</title><path fill="none" stroke="#000" d="m156.5-328c19.8 0 25.24 11.88 40.32 15.78"/><polygon stroke="#000" points="197.49 -315.67 207 -311 196.65 -308.72"/></g><g class="node"><title>musicbrainz.series_annotation</title><polygon fill="#eee" stroke="transparent" points="5.5 -687 5.5 -712 165.5 -712 165.5 -687"/><polygon fill="none" stroke="#000" points="5.5 -687 5.5 -712 165.5 -712 165.5 -687"/><text x="8.5" y="-695.4" font-family="Times,serif" font-size="17">series_annotation</text><polygon fill="#f0976c" stroke="transparent" points="5.5 -666 5.5 -687 165.5 -687 165.5 -666"/><polygon fill="none" stroke="#000" points="5.5 -666 5.5 -687 165.5 -687 165.5 -666"/><text x="8.5" y="-673.8" font-family="Times,serif" font-size="14" text-decoration="underline">series</text><polygon fill="#f0976c" stroke="transparent" points="5.5 -645 5.5 -666 165.5 -666 165.5 -645"/><polygon fill="none" stroke="#000" points="5.5 -645 5.5 -666 165.5 -666 165.5 -645"/><text x="8.5" y="-652.8" font-family="Times,serif" font-size="14" text-decoration="underline">annotation</text></g><g class="edge"><title>musicbrainz.series_annotation:annotation-&gt;musicbrainz.annotation:id</title><path fill="none" stroke="#000" d="m166.5-655c26.22 0 33.76-12.25 55.31-15.31"/><polygon stroke="#000" points="221.79 -673.82 232 -671 222.26 -666.83"/></g><g class="edge"><title>musicbrainz.series_annotation:series-&gt;musicbrainz.series:id</title><path fill="none" stroke="#000" d="m166.5-676c70.12 0-3.12 138.76 52.44 152.85"/><polygon stroke="#000" points="219.46 -526.61 229 -522 218.67 -519.66"/></g><g class="node"><title>musicbrainz.series_gid_redirect</title><polygon fill="#eee" stroke="transparent" points=".5 -570 .5 -595 171.5 -595 171.5 -570"/><polygon fill="none" stroke="#000" points=".5 -570 .5 -595 171.5 -595 171.5 -570"/><text x="3.5" y="-578.4" font-family="Times,serif" font-size="17">series_gid_redirect</text><polygon fill="#f0976c" stroke="transparent" points=".5 -549 .5 -570 171.5 -570 171.5 -549"/><polygon fill="none" stroke="#000" points=".5 -549 .5 -570 171.5 -570 171.5 -549"/><text x="3.5" y="-556.8" font-family="Times,serif" font-size="14" text-decoration="underline">gid</text><polygon fill="#f8d1be" stroke="transparent" points=".5 -528 .5 -549 171.5 -549 171.5 -528"/><polygon fill="none" stroke="#000" points=".5 -528 .5 -549 171.5 -549 171.5 -528"/><text x="3.5" y="-534.8" font-family="Times,serif" font-size="14">new_id</text><polygon fill="#eee" stroke="transparent" points=".5 -507 .5 -528 171.5 -528 171.5 -507"/><polygon fill="none" stroke="#000" points=".5 -507 .5 -528 171.5 -528 171.5 -507"/><text x="3.5" y="-513.8" font-family="Times,serif" font-size="14">created</text></g><g class="edge"><title>musicbrainz.series_gid_redirect:new_id-&gt;musicbrainz.series:id</title><path fill="none" stroke="#000" d="m171-538c22.98 0 29.55 11.82 47.91 15.14"/><polygon stroke="#000" points="219.33 -526.34 229 -522 218.74 -519.36"/></g><g class="node"><title>musicbrainz.series_tag</title><polygon fill="#eee" stroke="transparent" points="36.5 -85 36.5 -110 134.5 -110 134.5 -85"/><polygon fill="none" stroke="#000" points="36.5 -85 36.5 -110 134.5 -110 134.5 -85"/><text x="41.5" y="-93.4" font-family="Times,serif" font-size="17">series_tag</text><polygon fill="#f0976c" stroke="transparent" points="36.5 -64 36.5 -85 134.5 -85 134.5 -64"/><polygon fill="none" stroke="#000" points="36.5 -64 36.5 -85 134.5 -85 134.5 -64"/><text x="39.5" y="-71.8" font-family="Times,serif" font-size="14" text-decoration="underline">series</text><polygon fill="#f0976c" stroke="transparent" points="36.5 -43 36.5 -64 134.5 -64 134.5 -43"/><polygon fill="none" stroke="#000" points="36.5 -43 36.5 -64 134.5 -64 134.5 -43"/><text x="39.5" y="-50.8" font-family="Times,serif" font-size="14" text-decoration="underline">tag</text><polygon fill="#eee" stroke="transparent" points="36.5 -22 36.5 -43 134.5 -43 134.5 -22"/><polygon fill="none" stroke="#000" points="36.5 -22 36.5 -43 134.5 -43 134.5 -22"/><text x="39.5" y="-28.8" font-family="Times,serif" font-size="14">count</text><polygon fill="#eee" stroke="transparent" points="36.5 -1 36.5 -22 134.5 -22 134.5 -1"/><polygon fill="none" stroke="#000" points="36.5 -1 36.5 -22 134.5 -22 134.5 -1"/><text x="39.5" y="-7.8" font-family="Times,serif" font-size="14">last_updated</text></g><g class="edge"><title>musicbrainz.series_tag:series-&gt;musicbrainz.series:id</title><path fill="none" stroke="#000" d="m135.5-75c97.92 0-0.55-416.12 83.56-445.38"/><polygon stroke="#000" points="218.57 -523.85 229 -522 219.69 -516.94"/></g><g class="node"><title>musicbrainz.tag</title><polygon fill="#eee" stroke="transparent" points="247 -63 247 -88 320 -88 320 -63"/><polygon fill="none" stroke="#000" points="247 -63 247 -88 320 -88 320 -63"/><text x="269" y="-71.4" font-family="Times,serif" font-size="17">tag</text><polygon fill="#f0976c" stroke="transparent" points="247 -42 247 -63 320 -63 320 -42"/><polygon fill="none" stroke="#000" points="247 -42 247 -63 320 -63 320 -42"/><text x="250" y="-49.8" font-family="Times,serif" font-size="14" text-decoration="underline">id</text><polygon fill="#eee" stroke="transparent" points="247 -21 247 -42 320 -42 320 -21"/><polygon fill="none" stroke="#000" points="247 -21 247 -42 320 -42 320 -21"/><text x="250" y="-27.8" font-family="Times,serif" font-size="14">name</text><polygon fill="#eee" stroke="transparent" points="247 0 247 -21 320 -21 320 0"/><polygon fill="none" stroke="#000" points="247 0 247 -21 320 -21 320 0"/><text x="250" y="-6.8" font-family="Times,serif" font-size="14">ref_count</text></g><g class="edge"><title>musicbrainz.series_tag:tag-&gt;musicbrainz.tag:id</title><path fill="none" stroke="#000" d="m135.5-53h100.4"/><polygon stroke="#000" points="236 -56.5 246 -53 236 -49.5"/></g></g></svg>