<svg xmlns="http://www.w3.org/2000/svg" xmlns:xlink="http://www.w3.org/1999/xlink" width="295pt" height="160pt" viewBox="0 0 295 160"><g class="graph" transform="scale(1) translate(4 156)"><title>url_entity_details</title><a xlink:title="Tables for the “url” entity type properties"><polygon fill="#e8c2da" stroke="transparent" points="-4 4 -4 -156 291 -156 291 4"/></a><g class="node"><title>musicbrainz.url</title><polygon fill="#eb743b" stroke="transparent" points="181 -105 181 -130 287 -130 287 -105"/><polygon fill="none" stroke="#000" points="181 -105 181 -130 287 -130 287 -105"/><text x="221.5" y="-113.4" font-family="Times,serif" font-size="17">url</text><polygon fill="#f0976c" stroke="transparent" points="181 -84 181 -105 287 -105 287 -84"/><polygon fill="none" stroke="#000" points="181 -84 181 -105 287 -105 287 -84"/><text x="184" y="-91.8" font-family="Times,serif" font-size="14" text-decoration="underline">id</text><polygon fill="#eee" stroke="transparent" points="181 -63 181 -84 287 -84 287 -63"/><polygon fill="none" stroke="#000" points="181 -63 181 -84 287 -84 287 -63"/><text x="184" y="-69.8" font-family="Times,serif" font-size="14">gid</text><polygon fill="#eee" stroke="transparent" points="181 -42 181 -63 287 -63 287 -42"/><polygon fill="none" stroke="#000" points="181 -42 181 -63 287 -63 287 -42"/><text x="184" y="-48.8" font-family="Times,serif" font-size="14">url</text><polygon fill="#eee" stroke="transparent" points="181 -21 181 -42 287 -42 287 -21"/><polygon fill="none" stroke="#000" points="181 -21 181 -42 287 -42 287 -21"/><text x="184" y="-27.8" font-family="Times,serif" font-size="14">edits_pending</text><polygon fill="#eee" stroke="transparent" points="181 0 181 -21 287 -21 287 0"/><polygon fill="none" stroke="#000" points="181 0 181 -21 287 -21 287 0"/><text x="184" y="-6.8" font-family="Times,serif" font-size="14">last_updated</text></g><g class="node"><title>musicbrainz.url_gid_redirect</title><polygon fill="#eee" stroke="transparent" points=".5 -127 .5 -152 145.5 -152 145.5 -127"/><polygon fill="none" stroke="#000" points=".5 -127 .5 -152 145.5 -152 145.5 -127"/><text x="3.5" y="-135.4" font-family="Times,serif" font-size="17">url_gid_redirect</text><polygon fill="#f0976c" stroke="transparent" points=".5 -106 .5 -127 145.5 -127 145.5 -106"/><polygon fill="none" stroke="#000" points=".5 -106 .5 -127 145.5 -127 145.5 -106"/><text x="3.5" y="-113.8" font-family="Times,serif" font-size="14" text-decoration="underline">gid</text><polygon fill="#f8d1be" stroke="transparent" points=".5 -85 .5 -106 145.5 -106 145.5 -85"/><polygon fill="none" stroke="#000" points=".5 -85 .5 -106 145.5 -106 145.5 -85"/><text x="3.5" y="-91.8" font-family="Times,serif" font-size="14">new_id</text><polygon fill="#eee" stroke="transparent" points=".5 -64 .5 -85 145.5 -85 145.5 -64"/><polygon fill="none" stroke="#000" points=".5 -64 .5 -85 145.5 -85 145.5 -64"/><text x="3.5" y="-70.8" font-family="Times,serif" font-size="14">created</text></g><g class="edge"><title>musicbrainz.url_gid_redirect:new_id-&gt;musicbrainz.url:id</title><path fill="none" stroke="#000" d="m145-95h25.88"/><polygon stroke="#000" points="171 -98.5 181 -95 171 -91.5"/></g></g></svg>