<svg xmlns="http://www.w3.org/2000/svg" xmlns:xlink="http://www.w3.org/1999/xlink" width="1104" height="1216pt" version="1.1" viewBox="0 0 828 1215.5"><g class="graph" transform="scale(1) translate(4 1211.5)"><title>work_entity_details</title><a xlink:title="Tables for the “work” entity type properties"><polygon fill="#e8c2da" stroke="transparent" points="-4 4 -4 -1211.5 824 -1211.5 824 4"/></a><g class="node"><title>musicbrainz.annotation</title><polygon fill="#eee" stroke="transparent" points="398 -1160 398 -1185 499 -1185 499 -1160"/><polygon fill="none" stroke="#000" points="398 -1160 398 -1185 499 -1185 499 -1160"/><text x="401" y="-1168.4" font-family="Times,serif" font-size="17">annotation</text><polygon fill="#f0976c" stroke="transparent" points="398 -1139 398 -1160 499 -1160 499 -1139"/><polygon fill="none" stroke="#000" points="398 -1139 398 -1160 499 -1160 499 -1139"/><text x="401" y="-1146.8" font-family="Times,serif" font-size="14" text-decoration="underline">id</text><polygon fill="#eee" stroke="transparent" points="398 -1118 398 -1139 499 -1139 499 -1118"/><polygon fill="none" stroke="#000" points="398 -1118 398 -1139 499 -1139 499 -1118"/><text x="401" y="-1124.8" font-family="Times,serif" font-size="14">editor</text><polygon fill="#eee" stroke="transparent" points="398 -1097 398 -1118 499 -1118 499 -1097"/><polygon fill="none" stroke="#000" points="398 -1097 398 -1118 499 -1118 499 -1097"/><text x="401" y="-1103.8" font-family="Times,serif" font-size="14">text</text><polygon fill="#eee" stroke="transparent" points="398 -1076 398 -1097 499 -1097 499 -1076"/><polygon fill="none" stroke="#000" points="398 -1076 398 -1097 499 -1097 499 -1076"/><text x="401" y="-1082.8" font-family="Times,serif" font-size="14">changelog</text><polygon fill="#eee" stroke="transparent" points="398 -1055 398 -1076 499 -1076 499 -1055"/><polygon fill="none" stroke="#000" points="398 -1055 398 -1076 499 -1076 499 -1055"/><text x="401" y="-1061.8" font-family="Times,serif" font-size="14">created</text></g><g class="node"><title>musicbrainz.language</title><polygon fill="#eee" stroke="transparent" points="403 -253 403 -278 494 -278 494 -253"/><polygon fill="none" stroke="#000" points="403 -253 403 -278 494 -278 494 -253"/><text x="407.5" y="-261.4" font-family="Times,serif" font-size="17">language</text><polygon fill="#f0976c" stroke="transparent" points="403 -232 403 -253 494 -253 494 -232"/><polygon fill="none" stroke="#000" points="403 -232 403 -253 494 -253 494 -232"/><text x="406" y="-239.8" font-family="Times,serif" font-size="14" text-decoration="underline">id</text><polygon fill="#eee" stroke="transparent" points="403 -211 403 -232 494 -232 494 -211"/><polygon fill="none" stroke="#000" points="403 -211 403 -232 494 -232 494 -211"/><text x="406" y="-217.8" font-family="Times,serif" font-size="14">iso_code_2t</text><polygon fill="#eee" stroke="transparent" points="403 -190 403 -211 494 -211 494 -190"/><polygon fill="none" stroke="#000" points="403 -190 403 -211 494 -211 494 -190"/><text x="406" y="-196.8" font-family="Times,serif" font-size="14">iso_code_2b</text><polygon fill="#eee" stroke="transparent" points="403 -169 403 -190 494 -190 494 -169"/><polygon fill="none" stroke="#000" points="403 -169 403 -190 494 -190 494 -169"/><text x="406" y="-175.8" font-family="Times,serif" font-size="14">iso_code_1</text><polygon fill="#eee" stroke="transparent" points="403 -148 403 -169 494 -169 494 -148"/><polygon fill="none" stroke="#000" points="403 -148 403 -169 494 -169 494 -148"/><text x="406" y="-154.8" font-family="Times,serif" font-size="14">name</text><polygon fill="#eee" stroke="transparent" points="403 -127 403 -148 494 -148 494 -127"/><polygon fill="none" stroke="#000" points="403 -127 403 -148 494 -148 494 -127"/><text x="406" y="-133.8" font-family="Times,serif" font-size="14">frequency</text><polygon fill="#eee" stroke="transparent" points="403 -106 403 -127 494 -127 494 -106"/><polygon fill="none" stroke="#000" points="403 -106 403 -127 494 -127 494 -106"/><text x="406" y="-112.8" font-family="Times,serif" font-size="14">iso_code_3</text></g><g class="node"><title>musicbrainz.tag</title><polygon fill="#eee" stroke="transparent" points="412 -63 412 -88 485 -88 485 -63"/><polygon fill="none" stroke="#000" points="412 -63 412 -88 485 -88 485 -63"/><text x="434" y="-71.4" font-family="Times,serif" font-size="17">tag</text><polygon fill="#f0976c" stroke="transparent" points="412 -42 412 -63 485 -63 485 -42"/><polygon fill="none" stroke="#000" points="412 -42 412 -63 485 -63 485 -42"/><text x="415" y="-49.8" font-family="Times,serif" font-size="14" text-decoration="underline">id</text><polygon fill="#eee" stroke="transparent" points="412 -21 412 -42 485 -42 485 -21"/><polygon fill="none" stroke="#000" points="412 -21 412 -42 485 -42 485 -21"/><text x="415" y="-27.8" font-family="Times,serif" font-size="14">name</text><polygon fill="#eee" stroke="transparent" points="412 0 412 -21 485 -21 485 0"/><polygon fill="none" stroke="#000" points="412 0 412 -21 485 -21 485 0"/><text x="415" y="-6.8" font-family="Times,serif" font-size="14">ref_count</text></g><g class="node"><title>musicbrainz.work</title><polygon fill="#eb743b" stroke="transparent" points="395 -671 395 -696 501 -696 501 -671"/><polygon fill="none" stroke="#000" points="395 -671 395 -696 501 -696 501 -671"/><text x="426" y="-679.4" font-family="Times,serif" font-size="17">work</text><polygon fill="#f0976c" stroke="transparent" points="395 -650 395 -671 501 -671 501 -650"/><polygon fill="none" stroke="#000" points="395 -650 395 -671 501 -671 501 -650"/><text x="398" y="-657.8" font-family="Times,serif" font-size="14" text-decoration="underline">id</text><polygon fill="#eee" stroke="transparent" points="395 -629 395 -650 501 -650 501 -629"/><polygon fill="none" stroke="#000" points="395 -629 395 -650 501 -650 501 -629"/><text x="398" y="-635.8" font-family="Times,serif" font-size="14">gid</text><polygon fill="#eee" stroke="transparent" points="395 -608 395 -629 501 -629 501 -608"/><polygon fill="none" stroke="#000" points="395 -608 395 -629 501 -629 501 -608"/><text x="398" y="-614.8" font-family="Times,serif" font-size="14">name</text><polygon fill="#f8d1be" stroke="transparent" points="395 -587 395 -608 501 -608 501 -587"/><polygon fill="none" stroke="#000" points="395 -587 395 -608 501 -608 501 -587"/><text x="398" y="-593.8" font-family="Times,serif" font-size="14">type</text><polygon fill="#eee" stroke="transparent" points="395 -566 395 -587 501 -587 501 -566"/><polygon fill="none" stroke="#000" points="395 -566 395 -587 501 -587 501 -566"/><text x="398" y="-572.8" font-family="Times,serif" font-size="14">comment</text><polygon fill="#eee" stroke="transparent" points="395 -545 395 -566 501 -566 501 -545"/><polygon fill="none" stroke="#000" points="395 -545 395 -566 501 -566 501 -545"/><text x="398" y="-551.8" font-family="Times,serif" font-size="14">edits_pending</text><polygon fill="#eee" stroke="transparent" points="395 -524 395 -545 501 -545 501 -524"/><polygon fill="none" stroke="#000" points="395 -524 395 -545 501 -545 501 -524"/><text x="398" y="-530.8" font-family="Times,serif" font-size="14">last_updated</text></g><g class="node"><title>musicbrainz.work_type</title><polygon fill="#eee" stroke="transparent" points="681.5 -607 681.5 -632 777.5 -632 777.5 -607"/><polygon fill="none" stroke="#000" points="681.5 -607 681.5 -632 777.5 -632 777.5 -607"/><text x="684.5" y="-615.4" font-family="Times,serif" font-size="17">work_type</text><polygon fill="#f0976c" stroke="transparent" points="681.5 -586 681.5 -607 777.5 -607 777.5 -586"/><polygon fill="none" stroke="#000" points="681.5 -586 681.5 -607 777.5 -607 777.5 -586"/><text x="684.5" y="-593.8" font-family="Times,serif" font-size="14" text-decoration="underline">id</text><polygon fill="#eee" stroke="transparent" points="681.5 -565 681.5 -586 777.5 -586 777.5 -565"/><polygon fill="none" stroke="#000" points="681.5 -565 681.5 -586 777.5 -586 777.5 -565"/><text x="684.5" y="-571.8" font-family="Times,serif" font-size="14">name</text><polygon fill="#f8d1be" stroke="transparent" points="681.5 -544 681.5 -565 777.5 -565 777.5 -544"/><polygon fill="none" stroke="#000" points="681.5 -544 681.5 -565 777.5 -565 777.5 -544"/><text x="684.5" y="-550.8" font-family="Times,serif" font-size="14">parent</text><polygon fill="#eee" stroke="transparent" points="681.5 -523 681.5 -544 777.5 -544 777.5 -523"/><polygon fill="none" stroke="#000" points="681.5 -523 681.5 -544 777.5 -544 777.5 -523"/><text x="684.5" y="-529.8" font-family="Times,serif" font-size="14">child_order</text><polygon fill="#eee" stroke="transparent" points="681.5 -502 681.5 -523 777.5 -523 777.5 -502"/><polygon fill="none" stroke="#000" points="681.5 -502 681.5 -523 777.5 -523 777.5 -502"/><text x="684.5" y="-508.8" font-family="Times,serif" font-size="14">description</text><polygon fill="#eee" stroke="transparent" points="681.5 -481 681.5 -502 777.5 -502 777.5 -481"/><polygon fill="none" stroke="#000" points="681.5 -481 681.5 -502 777.5 -502 777.5 -481"/><text x="684.5" y="-487.8" font-family="Times,serif" font-size="14">gid</text></g><g class="edge"><title>musicbrainz.work:type-&gt;musicbrainz.work_type:id</title><path fill="none" stroke="#000" d="m502-597h168.16"/><polygon stroke="#000" points="670.5 -600.5 680.5 -597 670.5 -593.5"/></g><g class="node"><title>musicbrainz.work_alias</title><polygon fill="#eee" stroke="transparent" points="59.5 -1097 59.5 -1122 198.5 -1122 198.5 -1097"/><polygon fill="none" stroke="#000" points="59.5 -1097 59.5 -1122 198.5 -1122 198.5 -1097"/><text x="82.5" y="-1105.4" font-family="Times,serif" font-size="17">work_alias</text><polygon fill="#f0976c" stroke="transparent" points="59.5 -1076 59.5 -1097 198.5 -1097 198.5 -1076"/><polygon fill="none" stroke="#000" points="59.5 -1076 59.5 -1097 198.5 -1097 198.5 -1076"/><text x="62.5" y="-1083.8" font-family="Times,serif" font-size="14" text-decoration="underline">id</text><polygon fill="#f8d1be" stroke="transparent" points="59.5 -1055 59.5 -1076 198.5 -1076 198.5 -1055"/><polygon fill="none" stroke="#000" points="59.5 -1055 59.5 -1076 198.5 -1076 198.5 -1055"/><text x="62.5" y="-1061.8" font-family="Times,serif" font-size="14">work</text><polygon fill="#eee" stroke="transparent" points="59.5 -1034 59.5 -1055 198.5 -1055 198.5 -1034"/><polygon fill="none" stroke="#000" points="59.5 -1034 59.5 -1055 198.5 -1055 198.5 -1034"/><text x="62.5" y="-1040.8" font-family="Times,serif" font-size="14">name</text><polygon fill="#eee" stroke="transparent" points="59.5 -1013 59.5 -1034 198.5 -1034 198.5 -1013"/><polygon fill="none" stroke="#000" points="59.5 -1013 59.5 -1034 198.5 -1034 198.5 -1013"/><text x="62.5" y="-1019.8" font-family="Times,serif" font-size="14">locale</text><polygon fill="#eee" stroke="transparent" points="59.5 -992 59.5 -1013 198.5 -1013 198.5 -992"/><polygon fill="none" stroke="#000" points="59.5 -992 59.5 -1013 198.5 -1013 198.5 -992"/><text x="62.5" y="-998.8" font-family="Times,serif" font-size="14">edits_pending</text><polygon fill="#eee" stroke="transparent" points="59.5 -971 59.5 -992 198.5 -992 198.5 -971"/><polygon fill="none" stroke="#000" points="59.5 -971 59.5 -992 198.5 -992 198.5 -971"/><text x="62.5" y="-977.8" font-family="Times,serif" font-size="14">last_updated</text><polygon fill="#f8d1be" stroke="transparent" points="59.5 -950 59.5 -971 198.5 -971 198.5 -950"/><polygon fill="none" stroke="#000" points="59.5 -950 59.5 -971 198.5 -971 198.5 -950"/><text x="62.5" y="-956.8" font-family="Times,serif" font-size="14">type</text><polygon fill="#eee" stroke="transparent" points="59.5 -929 59.5 -950 198.5 -950 198.5 -929"/><polygon fill="none" stroke="#000" points="59.5 -929 59.5 -950 198.5 -950 198.5 -929"/><text x="62.5" y="-935.8" font-family="Times,serif" font-size="14">sort_name</text><polygon fill="#eee" stroke="transparent" points="59.5 -908 59.5 -929 198.5 -929 198.5 -908"/><polygon fill="none" stroke="#000" points="59.5 -908 59.5 -929 198.5 -929 198.5 -908"/><text x="62.5" y="-914.8" font-family="Times,serif" font-size="14">begin_date_year</text><polygon fill="#eee" stroke="transparent" points="59.5 -887 59.5 -908 198.5 -908 198.5 -887"/><polygon fill="none" stroke="#000" points="59.5 -887 59.5 -908 198.5 -908 198.5 -887"/><text x="62.5" y="-893.8" font-family="Times,serif" font-size="14">begin_date_month</text><polygon fill="#eee" stroke="transparent" points="59.5 -866 59.5 -887 198.5 -887 198.5 -866"/><polygon fill="none" stroke="#000" points="59.5 -866 59.5 -887 198.5 -887 198.5 -866"/><text x="62.5" y="-872.8" font-family="Times,serif" font-size="14">begin_date_day</text><polygon fill="#eee" stroke="transparent" points="59.5 -845 59.5 -866 198.5 -866 198.5 -845"/><polygon fill="none" stroke="#000" points="59.5 -845 59.5 -866 198.5 -866 198.5 -845"/><text x="62.5" y="-851.8" font-family="Times,serif" font-size="14">end_date_year</text><polygon fill="#eee" stroke="transparent" points="59.5 -824 59.5 -845 198.5 -845 198.5 -824"/><polygon fill="none" stroke="#000" points="59.5 -824 59.5 -845 198.5 -845 198.5 -824"/><text x="62.5" y="-830.8" font-family="Times,serif" font-size="14">end_date_month</text><polygon fill="#eee" stroke="transparent" points="59.5 -803 59.5 -824 198.5 -824 198.5 -803"/><polygon fill="none" stroke="#000" points="59.5 -803 59.5 -824 198.5 -824 198.5 -803"/><text x="62.5" y="-809.8" font-family="Times,serif" font-size="14">end_date_day</text><polygon fill="#eee" stroke="transparent" points="59.5 -782 59.5 -803 198.5 -803 198.5 -782"/><polygon fill="none" stroke="#000" points="59.5 -782 59.5 -803 198.5 -803 198.5 -782"/><text x="62.5" y="-788.8" font-family="Times,serif" font-size="14">primary_for_locale</text><polygon fill="#eee" stroke="transparent" points="59.5 -761 59.5 -782 198.5 -782 198.5 -761"/><polygon fill="none" stroke="#000" points="59.5 -761 59.5 -782 198.5 -782 198.5 -761"/><text x="62.5" y="-767.8" font-family="Times,serif" font-size="14">ended</text></g><g class="edge"><title>musicbrainz.work_alias:work-&gt;musicbrainz.work:id</title><path fill="none" stroke="#000" d="m199.5-1066c140.23 56.47-41.372 374.03 184.46 404.57"/><polygon stroke="#000" points="384.16 -664.92 394 -661 383.86 -657.93"/></g><g class="node"><title>musicbrainz.work_alias_type</title><polygon fill="#eee" stroke="transparent" points="376 -971 376 -996 521 -996 521 -971"/><polygon fill="none" stroke="#000" points="376 -971 376 -996 521 -996 521 -971"/><text x="379" y="-979.4" font-family="Times,serif" font-size="17">work_alias_type</text><polygon fill="#f0976c" stroke="transparent" points="376 -950 376 -971 521 -971 521 -950"/><polygon fill="none" stroke="#000" points="376 -950 376 -971 521 -971 521 -950"/><text x="379" y="-957.8" font-family="Times,serif" font-size="14" text-decoration="underline">id</text><polygon fill="#eee" stroke="transparent" points="376 -929 376 -950 521 -950 521 -929"/><polygon fill="none" stroke="#000" points="376 -929 376 -950 521 -950 521 -929"/><text x="379" y="-935.8" font-family="Times,serif" font-size="14">name</text><polygon fill="#f8d1be" stroke="transparent" points="376 -908 376 -929 521 -929 521 -908"/><polygon fill="none" stroke="#000" points="376 -908 376 -929 521 -929 521 -908"/><text x="379" y="-914.8" font-family="Times,serif" font-size="14">parent</text><polygon fill="#eee" stroke="transparent" points="376 -887 376 -908 521 -908 521 -887"/><polygon fill="none" stroke="#000" points="376 -887 376 -908 521 -908 521 -887"/><text x="379" y="-893.8" font-family="Times,serif" font-size="14">child_order</text><polygon fill="#eee" stroke="transparent" points="376 -866 376 -887 521 -887 521 -866"/><polygon fill="none" stroke="#000" points="376 -866 376 -887 521 -887 521 -866"/><text x="379" y="-872.8" font-family="Times,serif" font-size="14">description</text><polygon fill="#eee" stroke="transparent" points="376 -845 376 -866 521 -866 521 -845"/><polygon fill="none" stroke="#000" points="376 -845 376 -866 521 -866 521 -845"/><text x="379" y="-851.8" font-family="Times,serif" font-size="14">gid</text></g><g class="edge"><title>musicbrainz.work_alias:type-&gt;musicbrainz.work_alias_type:id</title><path fill="none" stroke="#000" d="m199.5-961h165.33"/><polygon stroke="#000" points="365 -964.5 375 -961 365 -957.5"/></g><g class="node"><title>musicbrainz.work_annotation</title><polygon fill="#eee" stroke="transparent" points="52.5 -1182 52.5 -1207 205.5 -1207 205.5 -1182"/><polygon fill="none" stroke="#000" points="52.5 -1182 52.5 -1207 205.5 -1207 205.5 -1182"/><text x="55.5" y="-1190.4" font-family="Times,serif" font-size="17">work_annotation</text><polygon fill="#f0976c" stroke="transparent" points="52.5 -1161 52.5 -1182 205.5 -1182 205.5 -1161"/><polygon fill="none" stroke="#000" points="52.5 -1161 52.5 -1182 205.5 -1182 205.5 -1161"/><text x="55.5" y="-1168.8" font-family="Times,serif" font-size="14" text-decoration="underline">work</text><polygon fill="#f0976c" stroke="transparent" points="52.5 -1140 52.5 -1161 205.5 -1161 205.5 -1140"/><polygon fill="none" stroke="#000" points="52.5 -1140 52.5 -1161 205.5 -1161 205.5 -1140"/><text x="55.5" y="-1147.8" font-family="Times,serif" font-size="14" text-decoration="underline">annotation</text></g><g class="edge"><title>musicbrainz.work_annotation:annotation-&gt;musicbrainz.annotation:id</title><path fill="none" stroke="#000" d="m206.5-1150h180.39"/><polygon stroke="#000" points="387 -1153.5 397 -1150 387 -1146.5"/></g><g class="edge"><title>musicbrainz.work_annotation:work-&gt;musicbrainz.work:id</title><path fill="none" stroke="#000" d="m206.5-1171c169.15 70.652 4.3179 487.55 177.42 509.59"/><polygon stroke="#000" points="384.15 -664.9 394 -661 383.87 -657.91"/></g><g class="node"><title>musicbrainz.work_attribute</title><polygon fill="#eee" stroke="transparent" points=".5 -507 .5 -532 257.5 -532 257.5 -507"/><polygon fill="none" stroke="#000" points=".5 -507 .5 -532 257.5 -532 257.5 -507"/><text x="64.5" y="-515.4" font-family="Times,serif" font-size="17">work_attribute</text><polygon fill="#f0976c" stroke="transparent" points=".5 -486 .5 -507 257.5 -507 257.5 -486"/><polygon fill="none" stroke="#000" points=".5 -486 .5 -507 257.5 -507 257.5 -486"/><text x="3.5" y="-493.8" font-family="Times,serif" font-size="14" text-decoration="underline">id</text><polygon fill="#f8d1be" stroke="transparent" points=".5 -465 .5 -486 257.5 -486 257.5 -465"/><polygon fill="none" stroke="#000" points=".5 -465 .5 -486 257.5 -486 257.5 -465"/><text x="3.5" y="-471.8" font-family="Times,serif" font-size="14">work</text><polygon fill="#f8d1be" stroke="transparent" points=".5 -444 .5 -465 257.5 -465 257.5 -444"/><polygon fill="none" stroke="#000" points=".5 -444 .5 -465 257.5 -465 257.5 -444"/><text x="3.5" y="-450.8" font-family="Times,serif" font-size="14">work_attribute_type</text><polygon fill="#f8d1be" stroke="transparent" points=".5 -423 .5 -444 257.5 -444 257.5 -423"/><polygon fill="none" stroke="#000" points=".5 -423 .5 -444 257.5 -444 257.5 -423"/><text x="3.5" y="-429.8" font-family="Times,serif" font-size="14">work_attribute_type_allowed_value</text><polygon fill="#eee" stroke="transparent" points=".5 -402 .5 -423 257.5 -423 257.5 -402"/><polygon fill="none" stroke="#000" points=".5 -402 .5 -423 257.5 -423 257.5 -402"/><text x="3.5" y="-408.8" font-family="Times,serif" font-size="14">work_attribute_text</text></g><g class="edge"><title>musicbrainz.work_attribute:work-&gt;musicbrainz.work:id</title><path fill="none" stroke="#000" d="m257-476c23.365 0-40.939-180.05 127.89-180.05"/><polygon stroke="#000" points="383.54 -659.3 394 -661 386.88 -653.15"/></g><g class="node"><title>musicbrainz.work_attribute_type</title><polygon fill="#eee" stroke="transparent" points="639.5 -430 639.5 -455 820.5 -455 820.5 -430"/><polygon fill="none" stroke="#000" points="639.5 -430 639.5 -455 820.5 -455 820.5 -430"/><text x="642.5" y="-438.4" font-family="Times,serif" font-size="17">work_attribute_type</text><polygon fill="#f0976c" stroke="transparent" points="639.5 -409 639.5 -430 820.5 -430 820.5 -409"/><polygon fill="none" stroke="#000" points="639.5 -409 639.5 -430 820.5 -430 820.5 -409"/><text x="642.5" y="-416.8" font-family="Times,serif" font-size="14" text-decoration="underline">id</text><polygon fill="#eee" stroke="transparent" points="639.5 -388 639.5 -409 820.5 -409 820.5 -388"/><polygon fill="none" stroke="#000" points="639.5 -388 639.5 -409 820.5 -409 820.5 -388"/><text x="642.5" y="-394.8" font-family="Times,serif" font-size="14">name</text><polygon fill="#eee" stroke="transparent" points="639.5 -367 639.5 -388 820.5 -388 820.5 -367"/><polygon fill="none" stroke="#000" points="639.5 -367 639.5 -388 820.5 -388 820.5 -367"/><text x="642.5" y="-373.8" font-family="Times,serif" font-size="14">comment</text><polygon fill="#eee" stroke="transparent" points="639.5 -346 639.5 -367 820.5 -367 820.5 -346"/><polygon fill="none" stroke="#000" points="639.5 -346 639.5 -367 820.5 -367 820.5 -346"/><text x="642.5" y="-352.8" font-family="Times,serif" font-size="14">free_text</text><polygon fill="#f8d1be" stroke="transparent" points="639.5 -325 639.5 -346 820.5 -346 820.5 -325"/><polygon fill="none" stroke="#000" points="639.5 -325 639.5 -346 820.5 -346 820.5 -325"/><text x="642.5" y="-331.8" font-family="Times,serif" font-size="14">parent</text><polygon fill="#eee" stroke="transparent" points="639.5 -304 639.5 -325 820.5 -325 820.5 -304"/><polygon fill="none" stroke="#000" points="639.5 -304 639.5 -325 820.5 -325 820.5 -304"/><text x="642.5" y="-310.8" font-family="Times,serif" font-size="14">child_order</text><polygon fill="#eee" stroke="transparent" points="639.5 -283 639.5 -304 820.5 -304 820.5 -283"/><polygon fill="none" stroke="#000" points="639.5 -283 639.5 -304 820.5 -304 820.5 -283"/><text x="642.5" y="-289.8" font-family="Times,serif" font-size="14">description</text><polygon fill="#eee" stroke="transparent" points="639.5 -262 639.5 -283 820.5 -283 820.5 -262"/><polygon fill="none" stroke="#000" points="639.5 -262 639.5 -283 820.5 -283 820.5 -262"/><text x="642.5" y="-268.8" font-family="Times,serif" font-size="14">gid</text></g><g class="edge"><title>musicbrainz.work_attribute:work_attribute_type-&gt;musicbrainz.work_attribute_type:id</title><path fill="none" stroke="#000" d="m257-454c18.99 0 17.78-17.68 36-23 66.12-19.32 249.67-33.25 310 0 22.55 12.43 10.8 45.59 26.07 54.67"/><polygon stroke="#000" points="630.06 -425.69 639 -420 628.47 -418.87"/></g><g class="node"><title>musicbrainz.work_attribute_type_allowed_value</title><polygon fill="#eee" stroke="transparent" points="293 -443 293 -468 603 -468 603 -443"/><polygon fill="none" stroke="#000" points="293 -443 293 -468 603 -468 603 -443"/><text x="296" y="-451.4" font-family="Times,serif" font-size="17">work_attribute_type_allowed_value</text><polygon fill="#f0976c" stroke="transparent" points="293 -422 293 -443 603 -443 603 -422"/><polygon fill="none" stroke="#000" points="293 -422 293 -443 603 -443 603 -422"/><text x="296" y="-429.8" font-family="Times,serif" font-size="14" text-decoration="underline">id</text><polygon fill="#f8d1be" stroke="transparent" points="293 -401 293 -422 603 -422 603 -401"/><polygon fill="none" stroke="#000" points="293 -401 293 -422 603 -422 603 -401"/><text x="296" y="-407.8" font-family="Times,serif" font-size="14">work_attribute_type</text><polygon fill="#eee" stroke="transparent" points="293 -380 293 -401 603 -401 603 -380"/><polygon fill="none" stroke="#000" points="293 -380 293 -401 603 -401 603 -380"/><text x="296" y="-386.8" font-family="Times,serif" font-size="14">value</text><polygon fill="#f8d1be" stroke="transparent" points="293 -359 293 -380 603 -380 603 -359"/><polygon fill="none" stroke="#000" points="293 -359 293 -380 603 -380 603 -359"/><text x="296" y="-365.8" font-family="Times,serif" font-size="14">parent</text><polygon fill="#eee" stroke="transparent" points="293 -338 293 -359 603 -359 603 -338"/><polygon fill="none" stroke="#000" points="293 -338 293 -359 603 -359 603 -338"/><text x="296" y="-344.8" font-family="Times,serif" font-size="14">child_order</text><polygon fill="#eee" stroke="transparent" points="293 -317 293 -338 603 -338 603 -317"/><polygon fill="none" stroke="#000" points="293 -317 293 -338 603 -338 603 -317"/><text x="296" y="-323.8" font-family="Times,serif" font-size="14">description</text><polygon fill="#eee" stroke="transparent" points="293 -296 293 -317 603 -317 603 -296"/><polygon fill="none" stroke="#000" points="293 -296 293 -317 603 -317 603 -296"/><text x="296" y="-302.8" font-family="Times,serif" font-size="14">gid</text></g><g class="edge"><title>musicbrainz.work_attribute:work_attribute_type_allowed_value-&gt;musicbrainz.work_attribute_type_allowed_value:id</title><path fill="none" stroke="#000" d="m257-433h25.88"/><polygon stroke="#000" points="283 -436.5 293 -433 283 -429.5"/></g><g class="edge"><title>musicbrainz.work_attribute_type_allowed_value:work_attribute_type-&gt;musicbrainz.work_attribute_type:id</title><path fill="none" stroke="#000" d="m603-412c12.42 0 17.28-4.59 26.03-6.82"/><polygon stroke="#000" points="628.66 -422.3 639 -420 629.48 -415.35"/></g><g class="node"><title>musicbrainz.work_gid_redirect</title><polygon fill="#eee" stroke="transparent" points="47.5 -613 47.5 -638 210.5 -638 210.5 -613"/><polygon fill="none" stroke="#000" points="47.5 -613 47.5 -638 210.5 -638 210.5 -613"/><text x="50.5" y="-621.4" font-family="Times,serif" font-size="17">work_gid_redirect</text><polygon fill="#f0976c" stroke="transparent" points="47.5 -592 47.5 -613 210.5 -613 210.5 -592"/><polygon fill="none" stroke="#000" points="47.5 -592 47.5 -613 210.5 -613 210.5 -592"/><text x="50.5" y="-599.8" font-family="Times,serif" font-size="14" text-decoration="underline">gid</text><polygon fill="#f8d1be" stroke="transparent" points="47.5 -571 47.5 -592 210.5 -592 210.5 -571"/><polygon fill="none" stroke="#000" points="47.5 -571 47.5 -592 210.5 -592 210.5 -571"/><text x="50.5" y="-577.8" font-family="Times,serif" font-size="14">new_id</text><polygon fill="#eee" stroke="transparent" points="47.5 -550 47.5 -571 210.5 -571 210.5 -550"/><polygon fill="none" stroke="#000" points="47.5 -550 47.5 -571 210.5 -571 210.5 -550"/><text x="50.5" y="-556.8" font-family="Times,serif" font-size="14">created</text></g><g class="edge"><title>musicbrainz.work_gid_redirect:new_id-&gt;musicbrainz.work:id</title><path fill="none" stroke="#000" d="m211.5-581c69.295 0 35.288-74.947 173.66-74.947"/><polygon stroke="#000" points="383.88 -664.14 394 -661 384.13 -657.15"/></g><g class="node"><title>musicbrainz.work_language</title><polygon fill="#eee" stroke="transparent" points="59.5 -316 59.5 -341 198.5 -341 198.5 -316"/><polygon fill="none" stroke="#000" points="59.5 -316 59.5 -341 198.5 -341 198.5 -316"/><text x="62.5" y="-324.4" font-family="Times,serif" font-size="17">work_language</text><polygon fill="#f0976c" stroke="transparent" points="59.5 -295 59.5 -316 198.5 -316 198.5 -295"/><polygon fill="none" stroke="#000" points="59.5 -295 59.5 -316 198.5 -316 198.5 -295"/><text x="62.5" y="-302.8" font-family="Times,serif" font-size="14" text-decoration="underline">work</text><polygon fill="#f0976c" stroke="transparent" points="59.5 -274 59.5 -295 198.5 -295 198.5 -274"/><polygon fill="none" stroke="#000" points="59.5 -274 59.5 -295 198.5 -295 198.5 -274"/><text x="62.5" y="-281.8" font-family="Times,serif" font-size="14" text-decoration="underline">language</text><polygon fill="#eee" stroke="transparent" points="59.5 -253 59.5 -274 198.5 -274 198.5 -253"/><polygon fill="none" stroke="#000" points="59.5 -253 59.5 -274 198.5 -274 198.5 -253"/><text x="62.5" y="-259.8" font-family="Times,serif" font-size="14">edits_pending</text><polygon fill="#eee" stroke="transparent" points="59.5 -232 59.5 -253 198.5 -253 198.5 -232"/><polygon fill="none" stroke="#000" points="59.5 -232 59.5 -253 198.5 -253 198.5 -232"/><text x="62.5" y="-238.8" font-family="Times,serif" font-size="14">created</text></g><g class="edge"><title>musicbrainz.work_language:language-&gt;musicbrainz.language:id</title><path fill="none" stroke="#000" d="m199.5-284c88.33 0 109.13 37.94 192.32 40.83"/><polygon stroke="#000" points="392.06 -246.67 402 -243 391.94 -239.67"/></g><g class="edge"><title>musicbrainz.work_language:work-&gt;musicbrainz.work:id</title><path fill="none" stroke="#000" d="m199.5-306c141.41 0-21.247-349.92 184.96-349.92"/><polygon stroke="#000" points="383.9 -664.19 394 -661 384.11 -657.2"/></g><g class="node"><title>musicbrainz.work_meta</title><polygon fill="#eee" stroke="transparent" points="78.5 -719 78.5 -744 179.5 -744 179.5 -719"/><polygon fill="none" stroke="#000" points="78.5 -719 78.5 -744 179.5 -744 179.5 -719"/><text x="81.5" y="-727.4" font-family="Times,serif" font-size="17">work_meta</text><polygon fill="#f0976c" stroke="transparent" points="78.5 -698 78.5 -719 179.5 -719 179.5 -698"/><polygon fill="none" stroke="#000" points="78.5 -698 78.5 -719 179.5 -719 179.5 -698"/><text x="81.5" y="-705.8" font-family="Times,serif" font-size="14" text-decoration="underline">id</text><polygon fill="#eee" stroke="transparent" points="78.5 -677 78.5 -698 179.5 -698 179.5 -677"/><polygon fill="none" stroke="#000" points="78.5 -677 78.5 -698 179.5 -698 179.5 -677"/><text x="81.5" y="-683.8" font-family="Times,serif" font-size="14">rating</text><polygon fill="#eee" stroke="transparent" points="78.5 -656 78.5 -677 179.5 -677 179.5 -656"/><polygon fill="none" stroke="#000" points="78.5 -656 78.5 -677 179.5 -677 179.5 -656"/><text x="81.5" y="-662.8" font-family="Times,serif" font-size="14">rating_count</text></g><g class="edge"><title>musicbrainz.work_meta:id-&gt;musicbrainz.work:id</title><path fill="none" stroke="#000" d="m180.5-709c93.74 0 114.77 44.59 203.26 47.82"/><polygon stroke="#000" points="384.06 -664.68 394 -661 383.94 -657.68"/></g><g class="node"><title>musicbrainz.work_tag</title><polygon fill="#eee" stroke="transparent" points="79.5 -158 79.5 -183 177.5 -183 177.5 -158"/><polygon fill="none" stroke="#000" points="79.5 -158 79.5 -183 177.5 -183 177.5 -158"/><text x="88" y="-166.4" font-family="Times,serif" font-size="17">work_tag</text><polygon fill="#f0976c" stroke="transparent" points="79.5 -137 79.5 -158 177.5 -158 177.5 -137"/><polygon fill="none" stroke="#000" points="79.5 -137 79.5 -158 177.5 -158 177.5 -137"/><text x="82.5" y="-144.8" font-family="Times,serif" font-size="14" text-decoration="underline">work</text><polygon fill="#f0976c" stroke="transparent" points="79.5 -116 79.5 -137 177.5 -137 177.5 -116"/><polygon fill="none" stroke="#000" points="79.5 -116 79.5 -137 177.5 -137 177.5 -116"/><text x="82.5" y="-123.8" font-family="Times,serif" font-size="14" text-decoration="underline">tag</text><polygon fill="#eee" stroke="transparent" points="79.5 -95 79.5 -116 177.5 -116 177.5 -95"/><polygon fill="none" stroke="#000" points="79.5 -95 79.5 -116 177.5 -116 177.5 -95"/><text x="82.5" y="-101.8" font-family="Times,serif" font-size="14">count</text><polygon fill="#eee" stroke="transparent" points="79.5 -74 79.5 -95 177.5 -95 177.5 -74"/><polygon fill="none" stroke="#000" points="79.5 -74 79.5 -95 177.5 -95 177.5 -74"/><text x="82.5" y="-80.8" font-family="Times,serif" font-size="14">last_updated</text></g><g class="edge"><title>musicbrainz.work_tag:tag-&gt;musicbrainz.tag:id</title><path fill="none" stroke="#000" d="m178.5-126c104.82 0 123.07 68.37 222.31 72.78"/><polygon stroke="#000" points="401.08 -56.72 411 -53 400.93 -49.72"/></g><g class="edge"><title>musicbrainz.work_tag:work-&gt;musicbrainz.work:id</title><path fill="none" stroke="#000" d="m180.05-143.31c213.9 0-24-498.57 205.31-512.69"/><polygon stroke="#000" points="383.9 -664.2 394 -661 384.11 -657.2"/></g></g></svg>